<svg width="35" height="35" viewBox="0 0 35 35" fill="none" xmlns="http://www.w3.org/2000/svg">
<g clip-path="url(#clip0_207_641)">
<path d="M34.8 22.4L31.9 18.5L28 9.7L27 5.8C27 5.7 26.9 5.7 26.9 5.7C26.9 5.6 26.8 5.6 26.8 5.5C26.8 5.4 26.7 5.4 26.6 5.4L26.5 5.3C26.4 5.3 26.4 5.3 26.3 5.2C26.2 5.2 26.2 5.2 26.1 5.2C26 5.2 26 5.2 25.9 5.2C25.8 5.2 25.8 5.2 25.7 5.2L24.7 5.5L24 3.9V3.8C23 2.1 21.4 1.6 19.7 2.4C19.3 2.6 18.7 3.1 18.3 3.9L17.7 3.3C17.5 3.1 17.3 3 17 3C16.7 3 16.5 3.1 16.3 3.3L15.3 4.4L11.3 0.9C10.1 -0.3 8.1 -0.3 6.9 0.9C6.5 1.3 6.3 1.7 6.1 2.2C5.1 1.8 3.8 2 2.9 2.9C2 3.8 1.8 5.1 2.2 6.2C1.7 6.3 1.3 6.5 0.9 6.9C-0.3 8.1 -0.3 10.1 0.9 11.3L1.9 12.3C1.6 12.5 1.2 12.7 0.9 12.9C-0.3 14.1 -0.3 16.1 0.9 17.3L2.1 18.5L1.3 19.4C1.3 19.4 1.2 19.5 1.2 19.6C1.2 19.7 1.1 19.7 1.1 19.8C1.1 19.9 1.1 19.9 1.1 20C1 19.9 1 20 1 20C1 20.1 1 20.1 1 20.2C1 20.3 1 20.3 1 20.4C1 20.5 1.1 20.5 1.1 20.6C1.1 20.7 1.2 20.7 1.2 20.8L4.1 23.7L4.2 23.8C4.5 24.1 11.3 30.2 17.4 32L21.3 34.9C21.5 35 21.7 35.1 21.9 35.1C22.2 35.1 22.5 35 22.7 34.7C23 34.3 22.9 33.6 22.5 33.3L19.7 31L32.1 22.1L33.2 23.6C33.4 23.9 33.7 24 34 24C34.2 24 34.4 23.9 34.6 23.8C35 23.5 35.1 22.8 34.8 22.4ZM15 28.8C12.4 27.5 9.8 25.7 8 24.3L19 9.7L19.9 13.2C20 13.7 20.4 14 20.9 14C21 14 21.1 14 21.1 14C21.6 13.9 22 13.3 21.8 12.8L20.8 8.8L25.3 7.3L26 10.3V10.4V10.5L26.3 11.3C26.2 11.4 26.1 11.5 26 11.6L15 28.6C15.1 28.6 15.1 28.7 15 28.8ZM20.6 4.2C21.1 3.9 21.7 3.8 22.2 4.7L22.7 6L20.3 6.8L20.1 6C19.8 4.6 20.3 4.3 20.6 4.2ZM17 5.4L18.2 6.6L18.4 7.3L18.3 7.4L6.5 23C6.2 22.7 5.9 22.5 5.8 22.4C5.8 22.4 5.8 22.3 5.7 22.3L3.4 20L7.1 16.1L10 13L17 5.4ZM8.3 2.3C8.7 1.9 9.4 1.9 9.9 2.3L13.9 5.8L12.2 7.6L8.3 3.9C8.1 3.7 8 3.4 8 3.1C8 2.8 8.1 2.5 8.3 2.3ZM4.3 4.3C4.7 3.9 5.4 3.9 5.9 4.3L10.8 9.2L9.3 10.8L4.3 5.9C3.9 5.4 3.9 4.8 4.3 4.3ZM2.3 8.3C2.7 7.9 3.4 7.9 3.9 8.3L7.9 12.3L6.4 13.9L2.4 9.9C1.9 9.5 1.9 8.8 2.3 8.3ZM2.3 15.9C1.9 15.5 1.9 14.8 2.3 14.4C2.7 14 3.4 14 3.8 14.4L4.9 15.5L3.4 17L2.3 15.9ZM17.8 29.9C17.5 29.8 17.1 29.7 16.8 29.6L27.3 13.3L30 19.4C30 19.5 30.1 19.5 30.1 19.5C30.1 19.5 30.1 19.5 30.1 19.6L30.8 20.5L17.8 29.9Z" fill="white"/>
</g>
<defs>
<clipPath id="clip0_207_641">
<rect width="35" height="35" fill="white"/>
</clipPath>
</defs>
</svg>
