<svg width="240" height="39" viewBox="0 0 240 39" fill="none" xmlns="http://www.w3.org/2000/svg">
<g clip-path="url(#clip0_1_2691)">
<path d="M60.9052 16.066H53.2346V8.61548H47.6196V28.4527H53.2346V20.7263H60.9052V28.4527H66.5202V8.61548H60.9052V16.066Z" fill="#0554C6"/>
<path d="M113.771 8.61548H97.755L97.5403 14.7476C97.3562 20.0518 96.6812 23.9763 94.1652 24.007H93.4595V31.3348H98.6142V28.4527H111.317V31.3348H116.441V24.007H113.741V8.61548H113.771ZM108.249 24.007H100.731C101.897 22.3207 102.327 19.1013 102.449 15.2075L102.542 13.0612H108.249V24.007V24.007Z" fill="white"/>
<path d="M128.192 8.21704C121.841 8.21704 117.146 12.5708 117.146 18.5496C117.146 24.4977 121.841 28.8821 128.192 28.8821C134.544 28.8821 139.238 24.5284 139.238 18.5496C139.238 12.5708 134.544 8.21704 128.192 8.21704ZM128.192 24.1911C125.185 24.1911 122.823 21.9529 122.823 18.5189C122.823 15.085 125.185 12.8468 128.192 12.8468C131.199 12.8468 133.562 15.085 133.562 18.5189C133.562 21.9529 131.199 24.1911 128.192 24.1911Z" fill="white"/>
<path d="M182.961 8.61548L178.174 18.2122L173.541 8.61548H167.62L175.352 22.9032C174.615 23.9763 173.818 24.4362 172.713 24.4362C172.13 24.4362 171.486 24.3136 170.719 24.099L169.369 28.2381C170.596 28.7287 171.762 28.974 172.897 28.974C175.873 28.974 178.451 27.257 180.23 23.9457L188.453 8.61548H182.961V8.61548Z" fill="white"/>
<path d="M77.5658 8.61548L68.7905 28.4527H74.5282L74.8657 27.5943L77.7499 20.4504H77.7192L78.6397 18.2122L80.2965 14.1037L82.8432 20.4504H81.3398L79.6829 24.5895H84.5001L86.0342 28.4527H91.8946L83.0887 8.61548H77.5658Z" fill="#0554C6"/>
<path d="M160.133 23.2712L160.163 28.4528H165.349L165.318 14.625L160.133 23.2712Z" fill="white"/>
<path d="M165.288 8.61548H160.655L153.843 20.0518L146.878 8.61548H142.245V28.4527H147.4V18.1509L152.524 26.4905H155.009L157.924 21.6155L165.288 9.25935V8.61548Z" fill="white"/>
<path d="M185.293 25.54C185.293 23.6084 186.704 22.3513 188.545 22.3513C190.386 22.3513 191.798 23.6084 191.798 25.54C191.798 27.4103 190.417 28.7593 188.545 28.7593C186.704 28.7593 185.293 27.4103 185.293 25.54Z" fill="#0554C6"/>
<path d="M212.662 15.9435C212.662 20.4505 209.256 23.2713 203.825 23.2713H200.358V28.4835H194.712V8.58496H203.825C209.256 8.58496 212.662 11.4057 212.662 15.9435ZM206.955 15.9435C206.955 14.1038 205.789 13.0001 203.457 13.0001H200.327V18.8255H203.457C205.789 18.8562 206.955 17.7831 206.955 15.9435Z" fill="white"/>
<path d="M229.66 27.257V29.4339H224.505V27.257C217.755 26.7665 214.134 23.6698 214.134 18.4882C214.134 13.2759 217.755 10.2099 224.505 9.68862V7.66504H229.66V9.71928C236.41 10.1792 240.03 13.3065 240.03 18.5188C240 23.6698 236.41 26.8584 229.66 27.257ZM224.505 22.8419V14.1037C221.099 14.5023 219.596 15.8514 219.596 18.4882C219.596 21.0943 221.283 22.4433 224.505 22.8419ZM234.538 18.4575C234.538 15.8514 232.943 14.4716 229.629 14.1037V22.8726C233.035 22.5047 234.538 21.0636 234.538 18.4575Z" fill="white"/>
<path d="M25.3134 25.1108L18.8394 27.1651L12.3653 25.1108L12.0278 33.4198C12.0278 33.4198 12.6415 35.0141 18.8701 35.0141C25.0987 35.0141 25.7123 33.4198 25.7123 33.4198L25.3134 25.1108Z" fill="white"/>
<path d="M18.8083 4.26172C8.43753 4.26172 5.33858 14.5023 5.92155 20.573C6.5352 26.6438 7.51705 28.974 6.96476 32.316C6.96476 32.316 5.61472 35.3513 8.77504 35.1674L14.2672 32.4693C14.2672 32.4693 14.6661 30.4457 14.2366 28.4834C13.8377 26.5212 18.8083 20.849 18.8083 20.849C18.8083 20.849 23.7789 26.5212 23.38 28.4528C22.9504 30.415 23.3493 32.4386 23.3493 32.4386L28.8415 35.1367C32.0018 35.29 30.6518 32.2853 30.6518 32.2853C30.0995 28.974 31.0814 26.6131 31.695 20.5424C32.3087 14.4716 29.179 4.26172 18.8083 4.26172Z" fill="#135F91"/>
<path d="M23.4417 10.1792C19.453 15.5141 13.0096 16.0353 11.2914 16.066H10.8618C10.8618 26.1839 15.0653 30.9363 18.8393 30.9363C22.6133 30.9363 26.8168 26.1839 26.8168 16.066C23.2883 14.5943 23.4417 10.1792 23.4417 10.1792Z" fill="white"/>
<path d="M18.8085 0C13.347 0 10.248 2.11557 10.248 2.11557L11.3833 8.58491C11.3833 8.58491 14.2982 6.89858 18.8085 6.89858C23.3189 6.89858 26.2337 8.58491 26.2337 8.58491L27.369 2.11557C27.3997 2.11557 24.27 0 18.8085 0Z" fill="#8AB4FF"/>
<path d="M21.1403 3.34191C21.1403 4.62964 20.0971 5.6721 18.8084 5.6721C17.5198 5.6721 16.4766 4.62964 16.4766 3.34191C16.4766 2.05417 17.5198 1.01172 18.8084 1.01172C20.0971 1.01172 21.1403 2.05417 21.1403 3.34191Z" fill="white"/>
<path d="M28.9951 4.38452L28.6576 6.22414C33.0453 9.32084 35.9294 14.4105 35.9294 20.1746C35.9294 29.5874 28.2588 37.2524 18.8392 37.2524C9.41959 37.2524 1.71823 29.618 1.71823 20.1746C1.71823 14.4105 4.6024 9.32084 8.95935 6.22414L8.62184 4.38452C3.43646 7.7265 0 13.552 0 20.1746C0 30.5378 8.43774 38.9694 18.8085 38.9694C29.1792 38.9694 37.617 30.5378 37.617 20.1746C37.617 13.552 34.1805 7.7265 28.9951 4.38452Z" fill="#135F91"/>
<path d="M19.9746 2.94352H19.2382V2.20767C19.2382 1.99304 19.0541 1.80908 18.8393 1.80908C18.6245 1.80908 18.4404 1.99304 18.4404 2.20767V2.94352H17.7041C17.4893 2.94352 17.3052 3.12748 17.3052 3.3421C17.3052 3.55672 17.4893 3.74069 17.7041 3.74069H18.4098V4.47654C18.4098 4.69116 18.5938 4.87512 18.8086 4.87512C19.0234 4.87512 19.2075 4.69116 19.2075 4.47654V3.74069H19.9439C20.1587 3.74069 20.3428 3.55672 20.3428 3.3421C20.3734 3.12748 20.1893 2.94352 19.9746 2.94352Z" fill="#8AB4FF"/>
</g>
<defs>
<clipPath id="clip0_1_2691">
<rect width="240" height="39" fill="white"/>
</clipPath>
</defs>
</svg>
