<svg width="30" height="31" viewBox="0 0 30 31" fill="none" xmlns="http://www.w3.org/2000/svg">
<path d="M29.705 14.9561L27.602 12.8531L16.0297 1.2807C15.6189 0.869975 14.9529 0.869975 14.5421 1.2807L2.9697 12.8531L0.865647 14.9572C0.462012 15.3751 0.473539 16.0411 0.891476 16.4447C1.29918 16.8385 1.9455 16.8385 2.35321 16.4447L2.66037 16.1354V29.3763C2.66037 29.9573 3.13138 30.4284 3.71243 30.4284H26.8572C27.4382 30.4284 27.9093 29.9573 27.9093 29.3763V16.1354L28.2175 16.4437C28.6354 16.8473 29.3014 16.8357 29.705 16.4178C30.0988 16.0101 30.0988 15.3638 29.705 14.9561ZM18.4409 28.3243H12.1287V19.908H18.4409V28.3243ZM25.8051 28.3243H20.545V18.856C20.545 18.275 20.074 17.8039 19.4929 17.8039H11.0767C10.4956 17.8039 10.0246 18.275 10.0246 18.856V28.3243H4.76448V14.0314L15.2848 3.51099L25.8051 14.0314V28.3243Z" fill="#3F85EF"/>
</svg>
