<svg width="40" height="40" viewBox="0 0 40 40" fill="none" xmlns="http://www.w3.org/2000/svg">
<rect width="40" height="40" rx="10" fill="#F0F1F8"/>
<g clip-path="url(#clip0_207_459)">
<path d="M30.1709 23.0852L28.5137 20.8566L26.2852 15.828L25.7137 13.5994C25.7137 13.5423 25.6566 13.5423 25.6566 13.5423C25.6566 13.4852 25.5994 13.4852 25.5994 13.428C25.5994 13.3709 25.5423 13.3709 25.4852 13.3709L25.428 13.3137C25.3709 13.3137 25.3709 13.3137 25.3137 13.2566C25.2566 13.2566 25.2566 13.2566 25.1994 13.2566C25.1423 13.2566 25.1423 13.2566 25.0852 13.2566C25.028 13.2566 25.028 13.2566 24.9709 13.2566L24.3994 13.428L23.9994 12.5137V12.4566C23.428 11.4852 22.5137 11.1994 21.5423 11.6566C21.3137 11.7709 20.9709 12.0566 20.7423 12.5137L20.3994 12.1709C20.2852 12.0566 20.1709 11.9994 19.9994 11.9994C19.828 11.9994 19.7137 12.0566 19.5994 12.1709L19.028 12.7994L16.7423 10.7994C16.0566 10.1137 14.9137 10.1137 14.228 10.7994C13.9994 11.028 13.8852 11.2566 13.7709 11.5423C13.1994 11.3137 12.4566 11.428 11.9423 11.9423C11.428 12.4566 11.3137 13.1994 11.5423 13.828C11.2566 13.8852 11.028 13.9994 10.7994 14.228C10.1137 14.9137 10.1137 16.0566 10.7994 16.7423L11.3709 17.3137C11.1994 17.428 10.9709 17.5423 10.7994 17.6566C10.1137 18.3423 10.1137 19.4852 10.7994 20.1709L11.4852 20.8566L11.028 21.3709C11.028 21.3709 10.9709 21.428 10.9709 21.4852C10.9709 21.5423 10.9137 21.5423 10.9137 21.5994C10.9137 21.6566 10.9137 21.6566 10.9137 21.7137C10.8566 21.6566 10.8566 21.7137 10.8566 21.7137C10.8566 21.7709 10.8566 21.7709 10.8566 21.828C10.8566 21.8852 10.8566 21.8852 10.8566 21.9423C10.8566 21.9994 10.9137 21.9994 10.9137 22.0566C10.9137 22.1137 10.9709 22.1137 10.9709 22.1709L12.628 23.828L12.6852 23.8852C12.8566 24.0566 16.7423 27.5423 20.228 28.5709L22.4566 30.228C22.5709 30.2852 22.6852 30.3423 22.7994 30.3423C22.9709 30.3423 23.1423 30.2852 23.2566 30.1137C23.428 29.8852 23.3709 29.4852 23.1423 29.3137L21.5423 27.9994L28.628 22.9137L29.2566 23.7709C29.3709 23.9423 29.5423 23.9994 29.7137 23.9994C29.828 23.9994 29.9423 23.9423 30.0566 23.8852C30.2852 23.7137 30.3423 23.3137 30.1709 23.0852ZM18.8566 26.7423C17.3709 25.9994 15.8852 24.9709 14.8566 24.1709L21.1423 15.828L21.6566 17.828C21.7137 18.1137 21.9423 18.2852 22.228 18.2852C22.2852 18.2852 22.3423 18.2852 22.3423 18.2852C22.628 18.228 22.8566 17.8852 22.7423 17.5994L22.1709 15.3137L24.7423 14.4566L25.1423 16.1709V16.228V16.2852L25.3137 16.7423C25.2566 16.7994 25.1994 16.8566 25.1423 16.9137L18.8566 26.628C18.9137 26.628 18.9137 26.6852 18.8566 26.7423ZM22.0566 12.6852C22.3423 12.5137 22.6852 12.4566 22.9709 12.9709L23.2566 13.7137L21.8852 14.1709L21.7709 13.7137C21.5994 12.9137 21.8852 12.7423 22.0566 12.6852ZM19.9994 13.3709L20.6852 14.0566L20.7994 14.4566L20.7423 14.5137L13.9994 23.428C13.828 23.2566 13.6566 23.1423 13.5994 23.0852C13.5994 23.0852 13.5994 23.028 13.5423 23.028L12.228 21.7137L14.3423 19.4852L15.9994 17.7137L19.9994 13.3709ZM15.028 11.5994C15.2566 11.3709 15.6566 11.3709 15.9423 11.5994L18.228 13.5994L17.2566 14.628L15.028 12.5137C14.9137 12.3994 14.8566 12.228 14.8566 12.0566C14.8566 11.8852 14.9137 11.7137 15.028 11.5994ZM12.7423 12.7423C12.9709 12.5137 13.3709 12.5137 13.6566 12.7423L16.4566 15.5423L15.5994 16.4566L12.7423 13.6566C12.5137 13.3709 12.5137 13.028 12.7423 12.7423ZM11.5994 15.028C11.828 14.7994 12.228 14.7994 12.5137 15.028L14.7994 17.3137L13.9423 18.228L11.6566 15.9423C11.3709 15.7137 11.3709 15.3137 11.5994 15.028ZM11.5994 19.3709C11.3709 19.1423 11.3709 18.7423 11.5994 18.5137C11.828 18.2852 12.228 18.2852 12.4566 18.5137L13.0852 19.1423L12.228 19.9994L11.5994 19.3709ZM20.4566 27.3709C20.2852 27.3137 20.0566 27.2566 19.8852 27.1994L25.8852 17.8852L27.428 21.3709C27.428 21.428 27.4852 21.428 27.4852 21.428C27.4852 21.428 27.4852 21.428 27.4852 21.4852L27.8852 21.9994L20.4566 27.3709Z" fill="#3F85EF"/>
</g>
<defs>
<clipPath id="clip0_207_459">
<rect width="20" height="20" fill="white" transform="translate(10.2852 10.2852)"/>
</clipPath>
</defs>
</svg>
