<svg width="20" height="37" viewBox="0 0 20 37" fill="none" xmlns="http://www.w3.org/2000/svg">
<path d="M19 0H1C0.4 0 0 0.4 0 1V17C0 18.5 0.2 19.5 1.2 20.7C2.1 21.8 3.5 22.7 4.6 23.4C5.1 23.7 5.6 24.1 5.9 24.3V26C5.9 28.2 7 29.6 8.9 29.9C9.1 32.7 10.4 36 13.6 36.9C13.7 36.9 13.8 36.9 13.9 36.9C14.3 36.9 14.7 36.6 14.9 36.2C15.1 35.7 14.8 35.1 14.2 35C11.7 34.3 11.1 31.4 11 29.8C12.9 29.4 13.9 28 13.9 25.9V24.2C14.2 24 14.8 23.6 15.2 23.3C16.3 22.6 17.7 21.6 18.6 20.6C19.7 19.4 19.8 18.4 19.8 16.9V1C20 0.4 19.6 0 19 0ZM18 17C18 18.1 17.9 18.6 17.2 19.3C16.4 20.2 15.2 21 14.2 21.7C12.8 22.6 12.1 23.1 12 23.9V24V26C12 27.4 11.4 28 10 28C8.6 28 8 27.4 8 26V24V23.9C7.9 23.1 7.2 22.6 5.8 21.7C4.8 21 3.5 20.2 2.8 19.3C2.1 18.6 2 18.1 2 17V6.5C3.5 5.5 5.5 5.6 7.5 6.8C8.8 7.7 10.2 8 11.6 8C13.5 8 15.1 7.4 15.8 6.7C16.2 6.3 16.1 5.7 15.7 5.3C15.3 4.9 14.7 4.9 14.3 5.3C13.9 5.7 10.9 6.6 8.5 5.1C6.3 3.8 3.9 3.5 2 4.3V2H18V17Z" fill="#3F85EF"/>
</svg>
