<svg width="18" height="22" viewBox="0 0 18 22" fill="none" xmlns="http://www.w3.org/2000/svg">
<path d="M17 9.28809C17 15.5103 9 20.8436 9 20.8436C9 20.8436 1 15.5103 1 9.28809C1 7.16635 1.84285 5.13152 3.34315 3.63123C4.84344 2.13094 6.87827 1.28809 9 1.28809C11.1217 1.28809 13.1566 2.13094 14.6569 3.63123C16.1571 5.13152 17 7.16635 17 9.28809Z" stroke="#87B1CA" stroke-width="2" stroke-linecap="round" stroke-linejoin="round"/>
<path d="M9.00065 11.9544C10.4734 11.9544 11.6673 10.7605 11.6673 9.28776C11.6673 7.815 10.4734 6.62109 9.00065 6.62109C7.52789 6.62109 6.33398 7.815 6.33398 9.28776C6.33398 10.7605 7.52789 11.9544 9.00065 11.9544Z" stroke="#87B1CA" stroke-width="2" stroke-linecap="round" stroke-linejoin="round"/>
</svg>
