<svg width="22" height="22" viewBox="0 0 22 22" fill="none" xmlns="http://www.w3.org/2000/svg">
<path d="M20.5206 15.9325V18.8771C20.5218 19.1504 20.4658 19.421 20.3562 19.6715C20.2467 19.9219 20.0861 20.1468 19.8847 20.3316C19.6833 20.5164 19.4455 20.657 19.1865 20.7446C18.9276 20.8322 18.6532 20.8647 18.3809 20.8401C15.3606 20.5119 12.4594 19.4799 9.91038 17.8268C7.53885 16.3199 5.52821 14.3092 4.02124 11.9377C2.36245 9.37711 1.33014 6.46178 1.00797 3.4279C0.983439 3.15648 1.0157 2.88292 1.10268 2.62465C1.18967 2.36637 1.32949 2.12904 1.51322 1.92776C1.69696 1.72648 1.92059 1.56567 2.16988 1.45555C2.41918 1.34544 2.68867 1.28844 2.9612 1.28818H5.90577C6.38211 1.28349 6.8439 1.45217 7.20507 1.76278C7.56624 2.07339 7.80214 2.50473 7.86881 2.9764C7.9931 3.91873 8.22358 4.84397 8.55588 5.73448C8.68794 6.08579 8.71652 6.46759 8.63823 6.83465C8.55995 7.20171 8.37809 7.53863 8.11419 7.80549L6.86766 9.05203C8.26491 11.5093 10.2995 13.5439 12.7568 14.9412L14.0033 13.6946C14.2702 13.4307 14.6071 13.2489 14.9742 13.1706C15.3412 13.0923 15.723 13.1209 16.0743 13.2529C16.9649 13.5852 17.8901 13.8157 18.8324 13.94C19.3092 14.0073 19.7447 14.2474 20.0559 14.6148C20.3672 14.9822 20.5326 15.4511 20.5206 15.9325Z" stroke="#87B1CA" stroke-width="2" stroke-linecap="round" stroke-linejoin="round"/>
</svg>
