<svg width="20" height="20" viewBox="0 0 20 20" fill="none" xmlns="http://www.w3.org/2000/svg">
<g clip-path="url(#clip0_6263_13228)">
<path d="M9.75851 11.7828C9.00569 11.03 7.78079 11.03 7.02798 11.7828C6.27517 12.5356 6.27514 13.7605 7.02795 14.5133L7.85659 13.6847C7.56069 13.3888 7.56072 12.9073 7.85662 12.6114C8.15252 12.3155 8.63397 12.3155 8.92987 12.6114L9.75851 11.7828Z" fill="#87B1CA"/>
<path d="M11.7827 7.02797C11.0299 7.78078 11.0299 9.00569 11.7827 9.7585L12.6114 8.92986C12.3155 8.63396 12.3155 8.15251 12.6114 7.85661C12.9073 7.56071 13.3888 7.56068 13.6847 7.85658L14.5133 7.02794C13.7605 6.27513 12.5356 6.27513 11.7827 7.02797Z" fill="#87B1CA"/>
<path d="M13.1952 13.1952C12.6714 13.7191 11.8992 13.9294 11.18 13.744L10.8875 14.8788C12.0063 15.1672 13.2081 14.8396 14.0238 14.0239C14.8396 13.2082 15.1671 12.0064 14.8787 10.8875L13.7439 11.18C13.9294 11.8992 13.7191 12.6714 13.1952 13.1952Z" fill="#87B1CA"/>
<path d="M15.835 2.77113C15.3075 2.77144 14.8018 2.92854 14.3739 3.21999C11.1965 1.59631 7.29032 2.19697 4.74365 4.74365L4.46586 5.02143C3.79877 5.68853 2.7133 5.6885 2.04624 5.02143L1.2176 5.85007C1.67027 6.30274 2.23727 6.57276 2.82647 6.66082L2.56394 6.92335C1.89685 7.59044 0.811387 7.59041 0.144323 6.92335L-0.684316 7.75199C0.216012 8.65232 1.56825 8.83074 2.64852 8.28878C2.07095 10.2769 2.24088 12.4578 3.22002 14.3738C2.92857 14.8018 2.77144 15.3076 2.77116 15.8356C2.77152 16.5309 3.04238 17.1845 3.53384 17.676C4.01926 18.1614 4.66449 18.4321 5.35076 18.4383C5.8871 18.4431 6.40129 18.286 6.83601 17.9898C10.0133 19.6136 13.9195 19.0129 16.4662 16.4662C19.0129 13.9195 19.6135 10.0133 17.9898 6.83601C18.286 6.40129 18.4431 5.8871 18.4383 5.35076C18.4321 4.66449 18.1614 4.01926 17.676 3.53384C17.1845 3.04238 16.5309 2.77152 15.835 2.77113ZM16.8669 6.36599L16.5619 6.68282L16.7809 7.06421C18.3767 9.84304 17.9065 13.3685 15.6375 15.6375C13.3684 17.9066 9.84303 18.3767 7.06421 16.7809L6.68282 16.5619L6.36599 16.8669C5.80865 17.4036 4.90989 17.3948 4.36245 16.8474C4.09215 16.5771 3.94318 16.2175 3.94296 15.8356C3.94315 15.4636 4.08516 15.1114 4.3428 14.8439L4.64795 14.527L4.42888 14.1456C2.83312 11.3668 3.30328 7.84134 5.57231 5.57231C6.32121 4.82341 7.53974 4.82341 8.28864 5.57231C9.03754 6.32121 9.03757 7.53977 8.28867 8.28867C7.53977 9.03757 6.32124 9.03757 5.57234 8.28867L4.7437 9.11731C5.94951 10.3231 7.91149 10.3231 9.11731 9.11731C10.3231 7.91149 10.3231 5.94952 9.11731 4.7437C8.77415 4.40054 8.36969 4.1554 7.93888 4.00755C9.91981 3.20893 12.2132 3.31924 14.1456 4.42894L14.527 4.648L14.8439 4.34286C15.1114 4.08519 15.4636 3.94321 15.835 3.94299C16.2176 3.94321 16.5771 4.09218 16.8474 4.36248C17.3948 4.90994 17.4035 5.80871 16.8669 6.36599Z" fill="#87B1CA"/>
</g>
<defs>
<clipPath id="clip0_6263_13228">
<rect width="20" height="20" fill="white"/>
</clipPath>
</defs>
</svg>
