<svg width="20" height="20" viewBox="0 0 20 20" fill="none" xmlns="http://www.w3.org/2000/svg">
<g clip-path="url(#clip0_6263_12772)">
<path d="M19.8857 12.8L18.2286 10.5714L16 5.54286L15.4286 3.31429C15.4286 3.25714 15.3714 3.25714 15.3714 3.25714C15.3714 3.2 15.3143 3.2 15.3143 3.14286C15.3143 3.08571 15.2571 3.08571 15.2 3.08571L15.1429 3.02857C15.0857 3.02857 15.0857 3.02857 15.0286 2.97143C14.9714 2.97143 14.9714 2.97143 14.9143 2.97143C14.8571 2.97143 14.8571 2.97143 14.8 2.97143C14.7429 2.97143 14.7429 2.97143 14.6857 2.97143L14.1143 3.14286L13.7143 2.22857V2.17143C13.1429 1.2 12.2286 0.914286 11.2571 1.37143C11.0286 1.48571 10.6857 1.77143 10.4571 2.22857L10.1143 1.88571C10 1.77143 9.88571 1.71429 9.71428 1.71429C9.54286 1.71429 9.42857 1.77143 9.31428 1.88571L8.74286 2.51429L6.45714 0.514286C5.77143 -0.171429 4.62857 -0.171429 3.94286 0.514286C3.71429 0.742857 3.6 0.971429 3.48571 1.25714C2.91429 1.02857 2.17143 1.14286 1.65714 1.65714C1.14286 2.17143 1.02857 2.91429 1.25714 3.54286C0.971429 3.6 0.742857 3.71429 0.514286 3.94286C-0.171429 4.62857 -0.171429 5.77143 0.514286 6.45714L1.08571 7.02857C0.914286 7.14286 0.685714 7.25714 0.514286 7.37143C-0.171429 8.05714 -0.171429 9.2 0.514286 9.88571L1.2 10.5714L0.742857 11.0857C0.742857 11.0857 0.685714 11.1429 0.685714 11.2C0.685714 11.2571 0.628571 11.2571 0.628571 11.3143C0.628571 11.3714 0.628571 11.3714 0.628571 11.4286C0.571429 11.3714 0.571429 11.4286 0.571429 11.4286C0.571429 11.4857 0.571429 11.4857 0.571429 11.5429C0.571429 11.6 0.571429 11.6 0.571429 11.6571C0.571429 11.7143 0.628571 11.7143 0.628571 11.7714C0.628571 11.8286 0.685714 11.8286 0.685714 11.8857L2.34286 13.5429L2.4 13.6C2.57143 13.7714 6.45714 17.2571 9.94286 18.2857L12.1714 19.9429C12.2857 20 12.4 20.0571 12.5143 20.0571C12.6857 20.0571 12.8571 20 12.9714 19.8286C13.1429 19.6 13.0857 19.2 12.8571 19.0286L11.2571 17.7143L18.3429 12.6286L18.9714 13.4857C19.0857 13.6571 19.2571 13.7143 19.4286 13.7143C19.5429 13.7143 19.6571 13.6571 19.7714 13.6C20 13.4286 20.0571 13.0286 19.8857 12.8ZM8.57143 16.4571C7.08571 15.7143 5.6 14.6857 4.57143 13.8857L10.8571 5.54286L11.3714 7.54286C11.4286 7.82857 11.6571 8 11.9429 8C12 8 12.0571 8 12.0571 8C12.3429 7.94286 12.5714 7.6 12.4571 7.31429L11.8857 5.02857L14.4571 4.17143L14.8571 5.88571V5.94286V6L15.0286 6.45714C14.9714 6.51429 14.9143 6.57143 14.8571 6.62857L8.57143 16.3429C8.62857 16.3429 8.62857 16.4 8.57143 16.4571ZM11.7714 2.4C12.0571 2.22857 12.4 2.17143 12.6857 2.68571L12.9714 3.42857L11.6 3.88571L11.4857 3.42857C11.3143 2.62857 11.6 2.45714 11.7714 2.4ZM9.71428 3.08571L10.4 3.77143L10.5143 4.17143L10.4571 4.22857L3.71429 13.1429C3.54286 12.9714 3.37143 12.8571 3.31429 12.8C3.31429 12.8 3.31429 12.7429 3.25714 12.7429L1.94286 11.4286L4.05714 9.2L5.71429 7.42857L9.71428 3.08571ZM4.74286 1.31429C4.97143 1.08571 5.37143 1.08571 5.65714 1.31429L7.94286 3.31429L6.97143 4.34286L4.74286 2.22857C4.62857 2.11429 4.57143 1.94286 4.57143 1.77143C4.57143 1.6 4.62857 1.42857 4.74286 1.31429ZM2.45714 2.45714C2.68571 2.22857 3.08571 2.22857 3.37143 2.45714L6.17143 5.25714L5.31429 6.17143L2.45714 3.37143C2.22857 3.08571 2.22857 2.74286 2.45714 2.45714ZM1.31429 4.74286C1.54286 4.51429 1.94286 4.51429 2.22857 4.74286L4.51429 7.02857L3.65714 7.94286L1.37143 5.65714C1.08571 5.42857 1.08571 5.02857 1.31429 4.74286ZM1.31429 9.08571C1.08571 8.85714 1.08571 8.45714 1.31429 8.22857C1.54286 8 1.94286 8 2.17143 8.22857L2.8 8.85714L1.94286 9.71429L1.31429 9.08571ZM10.1714 17.0857C10 17.0286 9.77143 16.9714 9.6 16.9143L15.6 7.6L17.1429 11.0857C17.1429 11.1429 17.2 11.1429 17.2 11.1429C17.2 11.1429 17.2 11.1429 17.2 11.2L17.6 11.7143L10.1714 17.0857Z" fill="#87B1CA"/>
</g>
<defs>
<clipPath id="clip0_6263_12772">
<rect width="20" height="20" fill="white"/>
</clipPath>
</defs>
</svg>
