<svg width="20" height="20" viewBox="0 0 20 20" fill="none" xmlns="http://www.w3.org/2000/svg">
<g clip-path="url(#clip0_6263_12809)">
<path d="M16.6618 2.61534L11.1868 1.57578C10.0418 1.35843 8.84251 1.53592 7.80963 2.07564C6.77678 2.61545 5.9462 3.49862 5.47095 4.56271L4.22047 7.36225C4.13247 7.55925 4.22083 7.79019 4.41777 7.8782C4.61474 7.96617 4.84565 7.87773 4.93374 7.68087L6.18422 4.88132C7.02319 3.00334 9.02028 1.95963 11.0411 2.3433L14.4038 2.98177L10.2377 3.70459C9.3645 3.85607 8.60982 4.42137 8.21895 5.21684L3.37221 15.0804C3.20367 15.4238 2.78556 15.5685 2.4406 15.4031C1.99907 15.1914 1.80959 14.6752 2.00932 14.2281L3.57211 10.7293C3.66011 10.5323 3.57175 10.3014 3.37481 10.2134C3.17779 10.1254 2.94684 10.2139 2.85884 10.4107L1.29605 13.9096C0.922439 14.7459 1.27682 15.7114 2.10276 16.1075C2.83244 16.4575 3.71646 16.1513 4.07333 15.4249L8.92015 5.56133C9.20106 4.98957 9.74355 4.5832 10.3713 4.47426L16.6558 3.38391C16.7376 3.36971 16.8098 3.33068 16.8651 3.27533C16.9356 3.20484 16.9788 3.10789 16.9796 3.00215C16.981 2.81341 16.8473 2.65056 16.6618 2.61534Z" fill="#87B1CA"/>
<path d="M3.93874 8.56047C3.83571 8.56019 3.73517 8.60217 3.66255 8.67479C3.58991 8.74744 3.54793 8.84798 3.54823 8.95098C3.54823 9.05373 3.58969 9.1543 3.66255 9.22716C3.7352 9.29981 3.83602 9.34152 3.93874 9.34149C4.04149 9.34149 4.14231 9.29978 4.21493 9.22716C4.28757 9.15452 4.32928 9.0537 4.32925 8.95098C4.32925 8.84823 4.28754 8.74741 4.21493 8.67479C4.14201 8.60187 4.04149 8.56047 3.93874 8.56047Z" fill="#87B1CA"/>
<path d="M17.1307 7.43798L17.117 7.44522C16.6813 7.67453 16.1884 7.754 15.7073 7.67655C15.7475 7.30231 15.7687 6.92384 15.7687 6.54211C15.7687 6.32639 15.5938 6.15151 15.3781 6.15149C15.1624 6.15149 14.9875 6.32639 14.9875 6.54208C14.9875 8.70852 14.2775 10.7657 12.9677 12.4483C12.9584 12.459 12.9497 12.47 12.9417 12.4815C12.7022 12.7864 12.4431 13.079 12.1647 13.3575C12.1646 13.3576 12.1644 13.3577 12.1642 13.3579C12.1641 13.358 12.164 13.3582 12.1638 13.3583C11.8854 13.6368 11.5928 13.8958 11.2878 14.1353C11.2764 14.1433 11.2653 14.152 11.2546 14.1614C9.57206 15.4711 7.51487 16.1811 5.34843 16.1811C5.13276 16.1812 4.95786 16.356 4.95784 16.5717C4.95784 16.7874 5.13271 16.9623 5.34846 16.9623C5.73019 16.9623 6.10868 16.9412 6.4829 16.9009C6.56038 17.382 6.48099 17.8749 6.25182 18.3102L6.24433 18.3244C6.1436 18.5151 6.21657 18.7514 6.40736 18.8521C6.56259 18.9341 6.74798 18.901 6.8659 18.7831C6.89291 18.7561 6.91636 18.7246 6.93512 18.6891L6.94285 18.6745C7.2497 18.0915 7.35701 17.4324 7.25578 16.7884C7.41535 16.7591 7.57392 16.7261 7.73142 16.6894C8.01976 17.2475 8.04605 17.9052 7.79346 18.49L7.74183 18.6094C7.65626 18.8075 7.74747 19.0373 7.94546 19.1229C8.09685 19.1884 8.26678 19.1505 8.37668 19.0405C8.41057 19.0067 8.43872 18.9659 8.45891 18.9193L8.51056 18.7997C8.83467 18.0493 8.82456 17.211 8.49775 16.4795C8.65903 16.4286 8.81885 16.3738 8.9772 16.3151C9.41917 16.8203 9.56811 17.5169 9.36479 18.1639L9.35691 18.1889C9.29217 18.3947 9.40649 18.614 9.61225 18.6788C9.75599 18.724 9.9063 18.6819 10.0059 18.5822C10.0489 18.5392 10.0825 18.4855 10.102 18.4234L10.11 18.3983C10.3694 17.5729 10.2204 16.6902 9.72596 16.0035C9.88606 15.9293 10.0443 15.8511 10.2006 15.7687C10.6229 16.2226 10.8694 16.8089 10.8965 17.4307C10.9058 17.6462 11.0881 17.8133 11.3037 17.804C11.4053 17.7995 11.4962 17.7567 11.5628 17.69C11.6376 17.6153 11.6819 17.5106 11.6769 17.3968C11.6444 16.6484 11.3673 15.9395 10.8907 15.3702C11.0854 15.2474 11.2762 15.1176 11.4633 14.9814C11.8518 15.4414 12.1342 15.9843 12.2863 16.5695L12.3124 16.67C12.3666 16.8788 12.5799 17.004 12.7887 16.9497C12.8584 16.9316 12.9189 16.8957 12.9664 16.8482C13.0612 16.7534 13.1046 16.6124 13.0684 16.4734L13.0424 16.373C12.8632 15.6833 12.5324 15.0429 12.0777 14.4981C12.1987 14.3954 12.3178 14.2895 12.4348 14.1808L14.0757 15.8218C14.2282 15.9743 14.4756 15.9743 14.6281 15.8218C14.7806 15.6692 14.7806 15.4219 14.6281 15.2694L12.9871 13.6285C13.0959 13.5114 13.2017 13.3924 13.3044 13.2713C13.8491 13.726 14.4896 14.0569 15.1792 14.236L15.2797 14.2621C15.4188 14.2983 15.5598 14.2548 15.6545 14.1601C15.702 14.1126 15.7379 14.0521 15.7561 13.9824C15.8103 13.7735 15.685 13.5603 15.4763 13.506L15.3757 13.4799C14.7906 13.3279 14.2477 13.0454 13.7877 12.657C13.9238 12.4699 14.0538 12.2791 14.1765 12.0844C14.7457 12.561 15.4547 12.838 16.2031 12.8706C16.317 12.8755 16.4216 12.8312 16.4963 12.7565C16.563 12.6898 16.6059 12.599 16.6103 12.4974C16.6196 12.2818 16.4526 12.0995 16.237 12.0902C15.6152 12.0631 15.0289 11.8165 14.575 11.3943C14.6574 11.238 14.7356 11.0798 14.8098 10.9196C15.4966 11.4141 16.3793 11.563 17.2047 11.3036L17.2297 11.2957C17.2918 11.2762 17.3455 11.2426 17.3885 11.1996C17.4882 11.1 17.5303 10.9496 17.4851 10.8059C17.4203 10.6001 17.201 10.4858 16.9952 10.5506L16.9703 10.5584C16.3233 10.7618 15.6267 10.6129 15.1214 10.1709C15.1801 10.0125 15.2349 9.85268 15.2858 9.69143C16.0173 10.0183 16.8556 10.0284 17.6061 9.70424L17.7256 9.65262C17.7723 9.63243 17.813 9.60428 17.8469 9.57039C17.9568 9.46048 17.9946 9.29047 17.9293 9.13916C17.8437 8.94112 17.6138 8.84997 17.4158 8.93554L17.2963 8.98713C16.7115 9.23973 16.0538 9.21346 15.4957 8.9251C15.5324 8.7676 15.5653 8.60902 15.5947 8.44945C16.2387 8.55072 16.8978 8.44338 17.4812 8.13628L17.4954 8.1288C17.531 8.11004 17.5624 8.08656 17.5894 8.05958C17.7073 7.94163 17.7404 7.75624 17.6584 7.60103C17.5578 7.41022 17.3215 7.33722 17.1307 7.43798Z" fill="#87B1CA"/>
</g>
<defs>
<clipPath id="clip0_6263_12809">
<rect width="20" height="20" fill="white"/>
</clipPath>
</defs>
</svg>
