<svg width="20" height="20" viewBox="0 0 20 20" fill="none" xmlns="http://www.w3.org/2000/svg">
<g clip-path="url(#clip0_6263_12850)">
<path d="M6.14999 11.5499L5.04999 10.4499C5.00268 10.4017 4.93778 10.3749 4.87023 10.3755L6.14999 11.5499ZM6.14999 11.5499C6.45393 11.8532 6.94605 11.8532 7.24999 11.5499M6.14999 11.5499H7.24999M7.24999 11.5499C7.55174 11.2454 7.55174 10.7545 7.24999 10.4499M7.24999 11.5499V10.4499M7.24999 10.4499L6.14999 9.34994L7.24999 10.4499ZM3.54799 11.952L3.54796 11.952L1.71464 10.1187L1.71461 10.1186L1.74996 10.0833L3.54799 11.952ZM3.54799 11.952C3.87145 12.2748 4.39518 12.2748 4.71863 11.952L4.71883 11.9518M3.54799 11.952L4.71883 11.9518M4.71883 11.9518C5.03989 11.6277 5.03989 11.1055 4.71884 10.7814L4.71859 10.7812M4.71883 11.9518L4.71859 10.7812M4.71859 10.7812C4.67881 10.7416 4.65717 10.6873 4.65883 10.6312L4.65883 10.6312M4.71859 10.7812L4.65883 10.6312M4.65883 10.6312L4.65884 10.6304M4.65883 10.6312L4.65884 10.6304M4.65884 10.6304C4.65959 10.5753 4.68221 10.5227 4.72172 10.4842C4.76124 10.4458 4.81441 10.4247 4.86951 10.4254L4.86951 10.4255M4.65884 10.6304L4.86951 10.4255M4.86951 10.4255L4.87067 10.4255M4.86951 10.4255L4.87067 10.4255M4.87067 10.4255C4.92466 10.425 4.97651 10.4465 5.0143 10.485L5.01463 10.4853M4.87067 10.4255L5.01463 10.4853M5.01463 10.4853L6.11464 11.5853L6.11467 11.5853M5.01463 10.4853L6.11467 11.5853M6.11467 11.5853C6.43813 11.9081 6.96185 11.9081 7.28531 11.5853L7.28551 11.5851M6.11467 11.5853L7.28551 11.5851M7.28551 11.5851C7.60657 11.2611 7.60657 10.7388 7.28552 10.4148L7.28535 10.4146M7.28551 11.5851L7.28535 10.4146M7.28535 10.4146L6.18537 9.3146C6.10372 9.23285 6.10372 9.10037 6.18537 9.01862L6.18542 9.01856M7.28535 10.4146L6.18542 9.01856M6.18542 9.01856C6.22503 8.97879 6.27931 8.95716 6.33545 8.9588L6.33545 8.95883M6.18542 9.01856L6.33545 8.95883M6.33545 8.95883L6.33735 8.95882M6.33545 8.95883L6.33735 8.95882M6.33735 8.95882C6.39133 8.95834 6.44319 8.97982 6.48098 9.01833L6.48131 9.01866M6.33735 8.95882L6.48131 9.01866M6.48131 9.01866L8.83064 11.368C8.82496 11.3735 8.81926 11.3791 8.81357 11.3846C8.76951 11.4276 8.72523 11.4707 8.68132 11.5146C7.54066 12.6552 6.50206 13.9145 5.85367 14.9958C5.52968 15.5361 5.30134 16.0348 5.20772 16.4539C5.11439 16.8717 5.15253 17.2232 5.38129 17.452C7.93211 20.0028 12.0678 20.0028 14.6187 17.452C17.1695 14.9012 17.1695 10.7654 14.6187 8.21462C14.4212 8.0172 14.1377 7.96106 13.8067 8.00401C13.4759 8.04695 13.0899 8.18959 12.6756 8.40034C11.8574 8.81647 10.9166 9.50451 10.05 10.2459L6.9646 7.16057C6.90035 7.09526 6.83927 7.02688 6.78158 6.95571L10.952 2.78532C11.4778 2.25954 11.4778 1.40707 10.952 0.88126C10.4262 0.355453 9.57375 0.355452 9.04795 0.88126L1.71463 8.21458L6.48131 9.01866ZM4.31662 11.1833L4.28134 11.2187C4.32112 11.2584 4.34276 11.3127 4.34111 11.3688L4.34107 11.3687L4.34109 11.3707C4.34157 11.4247 4.32009 11.4765 4.28158 11.5143L4.28126 11.5146C4.19949 11.5963 4.06704 11.5963 3.98528 11.5146L2.15197 9.6813L2.1519 9.68123C2.01507 9.54493 1.93815 9.35978 1.93815 9.16665C1.93815 8.97353 2.01505 8.78836 2.1519 8.65208L2.15197 8.65201L5.53347 5.27051C5.58748 5.42812 5.61764 5.59308 5.62284 5.7599L5.62287 5.76062C5.62779 5.86829 5.64303 5.97533 5.66842 6.08014C5.80351 6.65793 6.10162 7.18478 6.52737 7.59807L10.3313 11.402L10.3314 11.4021C10.3712 11.4417 10.3928 11.496 10.3911 11.5521L10.3911 11.5521L10.3911 11.554C10.3916 11.608 10.3701 11.6598 10.3316 11.6976L10.3313 11.6979C10.2495 11.7796 10.1171 11.7796 10.0353 11.6979L6.91865 8.58128L6.91849 8.58111C6.59441 8.26006 6.07218 8.26006 5.7481 8.58111L5.7479 8.58131C5.42513 8.90477 5.42513 9.42849 5.7479 9.75195L5.74794 9.75199L6.84794 10.852L6.84802 10.8521C6.8878 10.8917 6.90944 10.946 6.90778 11.0021L6.90775 11.0021L6.90776 11.004C6.90825 11.058 6.88677 11.1098 6.84826 11.1476L6.84794 11.1479C6.76619 11.2296 6.63371 11.2296 6.55196 11.1479L5.4521 10.0481M4.31662 11.1833L4.28147 11.2189C4.1241 11.0633 4.03701 10.8502 4.04033 10.629L4.04034 10.6284L4.04034 10.6284C4.05244 10.1769 4.41777 9.81494 4.86933 9.80702L4.86979 9.80701C5.08854 9.80521 5.29864 9.89219 5.4521 10.0481M4.31662 11.1833C4.16893 11.0373 4.08721 10.8374 4.09032 10.6297L3.94994 11.55C4.05122 11.6511 4.2153 11.6512 4.3166 11.55C4.36481 11.5027 4.39168 11.4378 4.39108 11.3702C4.39315 11.3003 4.36618 11.2327 4.31662 11.1833ZM5.4521 10.0481C5.45215 10.0481 5.45221 10.0482 5.45226 10.0482L5.41662 10.0833L5.45198 10.048L5.4521 10.0481ZM6.24079 5.73139C6.23364 5.40757 6.15112 5.09009 6 4.80402L9.48535 1.31867C9.76957 1.03445 10.2304 1.03445 10.5146 1.31867C10.7989 1.60289 10.7989 2.06369 10.5146 2.34794L6.44125 6.42131C6.36658 6.2682 6.30944 6.10706 6.27103 5.94095L6.27086 5.94028C6.25403 5.87181 6.24398 5.80186 6.24079 5.73139ZM6.24079 5.73139C6.24079 5.73159 6.2408 5.73179 6.2408 5.73199L6.19081 5.73308M6.24079 5.73139C6.24078 5.73121 6.24077 5.73103 6.24076 5.73084L6.19081 5.73308M6.19081 5.73308C6.18366 5.40456 6.09701 5.0827 5.93831 4.795L6.22231 5.95222C6.20465 5.88038 6.19412 5.80698 6.19081 5.73308ZM4.68331 10.8166C4.63375 10.7673 4.60679 10.6996 4.60885 10.6297L4.68331 11.9166C4.98506 11.612 4.98506 11.1212 4.68331 10.8166ZM11.6391 12.9208L11.6389 12.921C11.4086 13.1756 11.1607 13.4353 10.8813 13.7146C9.59657 14.9994 8.40985 15.9151 7.49917 16.4626C7.04354 16.7365 6.6588 16.9171 6.36656 17.0062C6.22029 17.0508 6.09957 17.0717 6.00598 17.0711C5.9116 17.0704 5.85213 17.0481 5.81867 17.0146C5.78521 16.9812 5.76284 16.9217 5.76221 16.8273C5.76158 16.7337 5.78249 16.613 5.82709 16.4667C5.91618 16.1745 6.09682 15.7898 6.37072 15.3341C6.91819 14.4235 7.83391 13.2367 9.11866 11.952C9.168 11.9027 9.21771 11.8536 9.2674 11.8048L9.59795 12.1353L9.59799 12.1354C9.92144 12.4582 10.4452 12.4582 10.7686 12.1354L10.7688 12.1352C11.0899 11.8111 11.0899 11.2889 10.7688 10.9648L10.7687 10.9646L10.4886 10.6845C11.5005 9.8224 12.364 9.25092 13.0087 8.92777C13.3356 8.76388 13.6044 8.66485 13.8065 8.62345C13.9077 8.60274 13.9901 8.5969 14.0537 8.60346C14.1176 8.61004 14.1579 8.62858 14.1813 8.65199C14.2074 8.67803 14.2271 8.72429 14.2318 8.7987C14.2365 8.87255 14.2258 8.96836 14.1971 9.08569C14.1399 9.32015 14.0133 9.63177 13.81 10.0084C13.4037 10.7611 12.6951 11.7661 11.6391 12.9208ZM5.67282 5.75834C5.67759 5.86289 5.69239 5.96681 5.71706 6.06856C5.84998 6.63723 6.1434 7.15576 6.56247 7.56246L5.67282 5.75834ZM14.1813 17.0146C12.1103 19.0799 8.84658 19.3206 6.49731 17.5958C7.10919 17.4291 7.87476 17.0006 8.68767 16.417C9.54813 15.7993 10.4663 15.0044 11.3187 14.152C11.6052 13.8654 11.8598 13.5987 12.0966 13.3372C12.7059 12.671 13.3144 11.9257 13.8029 11.2076C14.2615 10.5336 14.6171 9.87973 14.7664 9.33585C16.4871 11.685 16.2449 14.9454 14.1813 17.0146Z" fill="#87B1CA" stroke="#87B1CA" stroke-width="0.1"/>
</g>
<defs>
<clipPath id="clip0_6263_12850">
<rect width="20" height="20" fill="white"/>
</clipPath>
</defs>
</svg>
