<svg width="20" height="20" viewBox="0 0 20 20" fill="none" xmlns="http://www.w3.org/2000/svg">
<g clip-path="url(#clip0_6263_12820)">
<path d="M7.33389 -1.47602C6.57671 -0.718847 6.1845 0.300647 6.23329 1.35897C4.75674 1.7057 3.40918 2.44869 2.32299 3.53487C2.32053 3.53733 2.31797 3.5399 2.31551 3.54236C2.02255 3.83609 1.75027 4.15294 1.5062 4.48413C-0.0678215 6.62003 -0.380267 9.4112 0.690834 11.7684C1.02328 12.5 1.46466 13.1438 2.0028 13.6819C3.34268 15.0218 3.39718 16.3668 3.31041 17.0492C3.27922 17.2945 3.37253 17.5375 3.55996 17.6993C3.74773 17.8613 4.00227 17.9181 4.24084 17.8512C4.46523 17.7884 4.70474 17.7041 4.93632 17.6227C5.14719 17.5486 5.44818 17.4428 5.60466 17.4104L6.02544 17.8312C6.17137 17.9771 6.28608 18.1475 6.3664 18.3377C6.5222 18.7067 6.84675 18.9768 7.23202 19.0665C7.4394 19.2392 7.69481 19.341 7.96261 19.359L8.29348 19.6898C9.05337 20.4497 10.2898 20.4497 11.0497 19.6898C11.6866 19.0528 12.2275 18.3342 12.6602 17.5554L15.2972 18.5243C15.4448 18.5785 15.6041 18.5381 15.7084 18.4337C15.7472 18.3949 15.7785 18.3473 15.7986 18.2923C15.873 18.0899 15.7692 17.8653 15.5667 17.791L13.0135 16.8529C13.2729 16.2807 13.477 15.6819 13.6213 15.064C13.6703 14.8539 13.5398 14.6438 13.3297 14.5948C13.1196 14.5458 12.9095 14.6763 12.8605 14.8864C12.4844 16.4975 11.6672 17.9675 10.4973 19.1374C10.042 19.5927 9.30123 19.5927 8.84595 19.1374L8.40037 18.6918C8.31899 18.6105 8.20588 18.5691 8.09117 18.5788C7.945 18.5912 7.80167 18.5388 7.69795 18.4351L7.68886 18.426C7.62691 18.364 7.54592 18.3247 7.45892 18.3143C7.29368 18.2946 7.15085 18.1871 7.08614 18.0339C6.9664 17.7504 6.79543 17.4964 6.57788 17.2788L6.06427 16.7652C5.79264 16.4936 5.37279 16.6412 4.67725 16.8857C4.48027 16.9549 4.27734 17.0263 4.09335 17.0807C4.18606 16.2378 4.08916 14.6634 2.55525 13.1295C2.08361 12.6578 1.69565 12.0912 1.40215 11.4453C1.24988 11.1101 1.1294 10.765 1.03958 10.4139C2.63963 9.54851 4.55624 9.4865 6.21392 10.2581C7.2421 10.7367 8.38306 10.9405 9.51345 10.8474L10.4221 10.7726C10.5325 10.7635 10.6337 10.708 10.7009 10.6199C10.768 10.5317 10.7945 10.4192 10.7738 10.3104L10.5812 9.29545C10.5161 8.95333 10.6244 8.60215 10.871 8.35554C11.2807 7.94582 11.9473 7.94581 12.357 8.35549C13.0583 9.05679 13.3976 10.0244 13.2881 11.01C13.2487 11.3635 13.0375 11.6738 12.7232 11.8403C12.5325 11.9411 12.4598 12.1776 12.5607 12.3682C12.6617 12.5589 12.8981 12.6317 13.0887 12.5307C13.2546 12.443 13.4037 12.332 13.5329 12.2027C13.7776 11.958 13.9503 11.6479 14.0286 11.306L19.3894 14.3471C19.5457 14.4358 19.7371 14.405 19.8583 14.2838C19.8826 14.2595 19.9041 14.2315 19.9219 14.2001C20.0284 14.0125 19.9625 13.774 19.7749 13.6676L16.1417 11.6066C16.3892 10.7164 16.4862 9.79664 16.4291 8.87145C16.4158 8.65611 16.2305 8.49232 16.0152 8.50564C15.7999 8.51898 15.6361 8.70424 15.6494 8.91958C15.697 9.69238 15.626 10.4609 15.439 11.208L14.0841 10.4394C14.0339 9.45162 13.6227 8.51631 12.9094 7.80305C12.1952 7.08876 11.0329 7.08878 10.3181 7.80353C9.88895 8.23272 9.70034 8.84493 9.81353 9.44123L9.92525 10.0296L9.44935 10.0689C8.45387 10.1508 7.44908 9.9713 6.54359 9.54986C4.73704 8.70897 2.6597 8.74008 0.889082 9.61268C0.693437 7.99798 1.12229 6.32197 2.13514 4.94761C2.35623 4.64758 2.60303 4.3604 2.86862 4.09409L2.87536 4.08735C4.27376 2.68896 6.15312 1.91809 8.16798 1.91681C10.1861 1.91551 12.0689 2.68629 13.4697 4.08715C13.9611 4.57853 14.3804 5.13223 14.716 5.73289C14.8212 5.92118 15.0592 5.98857 15.2475 5.88336C15.4359 5.77812 15.5032 5.54013 15.398 5.35181C15.0274 4.6884 14.5645 4.07705 14.0222 3.53474C13.8067 3.31921 13.5805 3.11769 13.3455 2.92956C13.6823 2.28064 13.8258 1.53811 13.7507 0.804482C13.6629 -0.0545224 13.2777 -0.864411 12.6661 -1.47603C11.196 -2.94616 8.80402 -2.94615 7.33389 -1.47602L7.33389 -1.47602ZM12.704 2.46533C11.3751 1.59914 9.8117 1.13443 8.16755 1.13551C7.77657 1.13576 7.39028 1.16286 7.01051 1.21488C7.00256 0.41507 7.31216 -0.349447 7.88631 -0.9236C9.05183 -2.08911 10.9482 -2.08912 12.1136 -0.923668C13.0083 -0.0290449 13.2314 1.34325 12.704 2.46533V2.46533Z" fill="#87B1CA"/>
<path d="M5.58741 12.0677C5.5874 12.5258 5.21469 12.8984 4.7567 12.8984C4.541 12.8984 4.36609 13.0733 4.36603 13.2891C4.36603 13.5048 4.54093 13.6797 4.75668 13.6797C5.20112 13.6797 5.60407 13.4989 5.89595 13.207C6.18784 12.9151 6.36868 12.5121 6.36869 12.0677C6.36869 11.852 6.19379 11.6771 5.97804 11.6771C5.76231 11.6771 5.58741 11.852 5.58741 12.0677Z" fill="#87B1CA"/>
<path d="M12.5227 11.105C12.5954 11.0323 12.6371 10.9315 12.6371 10.8287C12.6368 10.7257 12.5954 10.6252 12.5227 10.5525C12.4498 10.4796 12.3493 10.4382 12.2465 10.4382C12.1435 10.4379 12.0429 10.4799 11.9703 10.5525C11.8974 10.6255 11.8557 10.7257 11.8557 10.829C11.8557 10.9318 11.8974 11.0321 11.9703 11.105C12.0429 11.1776 12.1435 11.2196 12.2462 11.2196C12.3493 11.2193 12.4498 11.1779 12.5227 11.105Z" fill="#87B1CA"/>
<path d="M15.4601 6.88764C15.3874 6.96029 15.3457 7.06108 15.3457 7.16386C15.3457 7.26664 15.3874 7.36743 15.4601 7.44008C15.533 7.513 15.6335 7.55443 15.7363 7.5544C15.839 7.5544 15.9399 7.51272 16.0125 7.44007C16.0851 7.36742 16.1269 7.2666 16.1268 7.16382C16.1271 7.06082 16.0852 6.96028 16.0125 6.88763C15.9399 6.81499 15.8393 6.773 15.7363 6.77328C15.6335 6.77326 15.5327 6.815 15.4601 6.88764Z" fill="#87B1CA"/>
</g>
<defs>
<clipPath id="clip0_6263_12820">
<rect width="20" height="20" fill="white"/>
</clipPath>
</defs>
</svg>
