<svg width="20" height="20" viewBox="0 0 20 20" fill="none" xmlns="http://www.w3.org/2000/svg">
<mask id="path-1-outside-1_6263_12855" maskUnits="userSpaceOnUse" x="-1.19209e-07" y="1" width="20" height="18" fill="black">
<rect fill="white" x="-1.19209e-07" y="1" width="20" height="18"/>
<path d="M19.2855 14.0863C19.4356 14.0863 19.5573 13.9646 19.5573 13.8145V13.2887C19.5573 12.7573 19.1515 12.3249 18.6528 12.3249H18.2128V11.7679C18.2128 11.3782 17.8957 11.0611 17.506 11.0611L15.3179 11.0611C14.9282 11.0611 14.6111 11.3782 14.6111 11.7679V13.2185C12.6565 12.9905 10.2234 12.9901 8.26547 13.2185V11.7679C8.26547 11.3782 7.94837 11.0611 7.55866 11.0611H7.38578C8.87598 10.1537 10.5425 8.92311 11.842 7.72468L12.6952 8.8977C12.9248 9.21339 13.368 9.28236 13.6826 9.05355L15.4521 7.7665C15.4521 7.7665 15.4521 7.7665 15.4521 7.76647C15.7673 7.53725 15.8372 7.09431 15.6079 6.77909L15.2803 6.32864L15.636 6.06989C16.0394 5.77645 16.1132 5.18813 15.8006 4.75834L14.3251 2.72976C14.0125 2.30004 13.43 2.18902 13.0267 2.48242L12.6709 2.74125L12.3433 2.29083C12.114 1.97558 11.6711 1.90573 11.3559 2.13495L9.58637 3.422C9.27122 3.65121 9.20131 4.09415 9.43056 4.40937L10.2838 5.5824C8.56848 6.54806 6.60108 7.97868 5.15209 9.31506L4.52444 8.45225C4.17098 7.96632 3.48712 7.85831 3.00126 8.21184L1.85208 9.04768C1.3659 9.40139 1.25807 10.0847 1.61171 10.5709L1.7137 10.7111L1.35796 10.9699C0.946545 11.2691 0.88714 11.8604 1.19337 12.2814L2.66889 14.3099C2.83033 14.5319 3.06693 14.6731 3.31927 14.7106V15.7972C3.31927 16.3286 3.72506 16.761 4.22383 16.761H4.66376V17.318C4.66376 17.7077 4.98087 18.0248 5.37057 18.0248H7.55866C7.9484 18.0248 8.26547 17.7077 8.26547 17.318V15.8676C9.03803 15.9575 9.90648 16.014 10.7985 16.0319C10.8004 16.032 10.8022 16.032 10.8041 16.032C10.9517 16.032 11.0728 15.9138 11.0758 15.7656C11.0788 15.6155 10.9596 15.4914 10.8094 15.4884C9.91004 15.4702 9.03629 15.4124 8.26547 15.3202V13.7657C10.1885 13.5352 12.6482 13.5304 14.6111 13.7657V15.3202C13.8404 15.4124 12.9666 15.4702 12.0671 15.4884C11.9171 15.4914 11.7978 15.6155 11.8008 15.7656C11.8038 15.9138 11.9248 16.032 12.0725 16.032C12.0744 16.032 12.0762 16.032 12.0781 16.0319C12.9701 16.014 13.8386 15.9575 14.6111 15.8676V17.318C14.6111 17.7077 14.9282 18.0248 15.3179 18.0248H17.506C17.8958 18.0248 18.2128 17.7077 18.2128 17.318V16.761H18.6528C19.1515 16.761 19.5573 16.3286 19.5573 15.7972V15.0831C19.5573 14.933 19.4356 14.8113 19.2855 14.8113C19.1354 14.8113 19.0137 14.933 19.0137 15.0831V15.7972C19.0137 16.0249 18.8484 16.2173 18.6528 16.2173H18.2129V12.8687H18.6528C18.8484 12.8687 19.0137 13.0611 19.0137 13.2888V13.8145C19.0136 13.9646 19.1354 14.0863 19.2855 14.0863ZM13.3465 2.92211C13.5046 2.80714 13.7515 2.86546 13.8854 3.04962L15.3609 5.0782C15.4949 5.26232 15.4744 5.51516 15.3162 5.6302L14.9604 5.88895C14.7402 5.58602 13.2146 3.48865 12.9907 3.18086L13.3465 2.92211ZM9.87024 4.08962C9.81827 4.01811 9.83472 3.91376 9.90619 3.86175L11.6757 2.57467C11.7475 2.52251 11.8517 2.53936 11.9035 2.61066C12.0136 2.76194 14.5493 6.2481 14.6806 6.42867C14.6807 6.42875 14.6807 6.42882 14.6808 6.42889L15.1682 7.09891C15.2202 7.17042 15.2038 7.27477 15.1322 7.32678L13.3627 8.61387C13.2909 8.66606 13.1876 8.65033 13.1349 8.57788C13.0277 8.43047 9.99967 4.26755 9.87024 4.08962ZM10.6057 6.02502L11.5201 7.28213C10.1058 8.59477 8.12198 10.0459 6.38829 11.0146L5.47401 9.75764C6.88451 8.44845 8.86952 6.99507 10.6057 6.02502ZM3.31927 13.2887L3.31927 14.1517C3.23841 14.1215 3.16367 14.0658 3.10865 13.9901L1.63313 11.9616C1.49304 11.769 1.52436 11.5212 1.67782 11.4096L2.03356 11.1508C2.07669 11.2101 2.41438 11.6744 3.3662 12.983C3.3338 13.086 3.31927 13.1922 3.31927 13.2887ZM4.66376 16.2173H4.22383C4.02825 16.2173 3.86297 16.0249 3.86297 15.7971C3.86297 15.5515 3.86297 13.5447 3.86297 13.2887C3.86297 13.1937 3.89433 13.0912 3.95641 13.0107C4.03035 12.9146 4.13035 12.8686 4.22383 12.8686H4.66373L4.66373 16.2173H4.66376ZM4.66376 11.7679V12.3249H4.22383C4.20175 12.3249 4.1799 12.326 4.15819 12.3277C4.15434 12.328 4.1505 12.3283 4.14666 12.3287C3.97834 12.3439 3.82307 12.4084 3.69357 12.5086L2.05143 10.251C1.87412 10.0073 1.92816 9.66467 2.17191 9.48736L3.32108 8.65152C3.56374 8.4749 3.9081 8.52916 4.08472 8.77204C4.28265 9.04413 5.53788 10.7698 5.74969 11.061H5.37053C4.98087 11.061 4.66376 11.3781 4.66376 11.7679ZM7.7218 17.318C7.7218 17.4064 7.6471 17.4811 7.5587 17.4811H5.37061C5.28221 17.4811 5.20751 17.4064 5.20751 17.318C5.20751 17.0621 5.20751 11.9347 5.20751 11.7679C5.20751 11.6795 5.28221 11.6048 5.37061 11.6048C5.92381 11.6048 6.22924 11.6048 6.38825 11.6048C6.50286 11.6048 6.54142 11.6048 6.54175 11.6048C6.70068 11.6048 7.00593 11.6048 7.5587 11.6048C7.6471 11.6048 7.7218 11.6795 7.7218 11.7679C7.7218 12.1043 7.7218 17.1111 7.7218 17.318ZM17.6692 17.318C17.6692 17.4064 17.5945 17.4811 17.5061 17.4811H15.318C15.2296 17.4811 15.1549 17.4064 15.1549 17.318V11.7679C15.1549 11.6795 15.2296 11.6048 15.318 11.6048L17.5061 11.6048C17.5945 11.6048 17.6692 11.6795 17.6692 11.7679C17.6692 12.1027 17.6692 17.1383 17.6692 17.318Z"/>
</mask>
<path d="M19.2855 14.0863C19.4356 14.0863 19.5573 13.9646 19.5573 13.8145V13.2887C19.5573 12.7573 19.1515 12.3249 18.6528 12.3249H18.2128V11.7679C18.2128 11.3782 17.8957 11.0611 17.506 11.0611L15.3179 11.0611C14.9282 11.0611 14.6111 11.3782 14.6111 11.7679V13.2185C12.6565 12.9905 10.2234 12.9901 8.26547 13.2185V11.7679C8.26547 11.3782 7.94837 11.0611 7.55866 11.0611H7.38578C8.87598 10.1537 10.5425 8.92311 11.842 7.72468L12.6952 8.8977C12.9248 9.21339 13.368 9.28236 13.6826 9.05355L15.4521 7.7665C15.4521 7.7665 15.4521 7.7665 15.4521 7.76647C15.7673 7.53725 15.8372 7.09431 15.6079 6.77909L15.2803 6.32864L15.636 6.06989C16.0394 5.77645 16.1132 5.18813 15.8006 4.75834L14.3251 2.72976C14.0125 2.30004 13.43 2.18902 13.0267 2.48242L12.6709 2.74125L12.3433 2.29083C12.114 1.97558 11.6711 1.90573 11.3559 2.13495L9.58637 3.422C9.27122 3.65121 9.20131 4.09415 9.43056 4.40937L10.2838 5.5824C8.56848 6.54806 6.60108 7.97868 5.15209 9.31506L4.52444 8.45225C4.17098 7.96632 3.48712 7.85831 3.00126 8.21184L1.85208 9.04768C1.3659 9.40139 1.25807 10.0847 1.61171 10.5709L1.7137 10.7111L1.35796 10.9699C0.946545 11.2691 0.88714 11.8604 1.19337 12.2814L2.66889 14.3099C2.83033 14.5319 3.06693 14.6731 3.31927 14.7106V15.7972C3.31927 16.3286 3.72506 16.761 4.22383 16.761H4.66376V17.318C4.66376 17.7077 4.98087 18.0248 5.37057 18.0248H7.55866C7.9484 18.0248 8.26547 17.7077 8.26547 17.318V15.8676C9.03803 15.9575 9.90648 16.014 10.7985 16.0319C10.8004 16.032 10.8022 16.032 10.8041 16.032C10.9517 16.032 11.0728 15.9138 11.0758 15.7656C11.0788 15.6155 10.9596 15.4914 10.8094 15.4884C9.91004 15.4702 9.03629 15.4124 8.26547 15.3202V13.7657C10.1885 13.5352 12.6482 13.5304 14.6111 13.7657V15.3202C13.8404 15.4124 12.9666 15.4702 12.0671 15.4884C11.9171 15.4914 11.7978 15.6155 11.8008 15.7656C11.8038 15.9138 11.9248 16.032 12.0725 16.032C12.0744 16.032 12.0762 16.032 12.0781 16.0319C12.9701 16.014 13.8386 15.9575 14.6111 15.8676V17.318C14.6111 17.7077 14.9282 18.0248 15.3179 18.0248H17.506C17.8958 18.0248 18.2128 17.7077 18.2128 17.318V16.761H18.6528C19.1515 16.761 19.5573 16.3286 19.5573 15.7972V15.0831C19.5573 14.933 19.4356 14.8113 19.2855 14.8113C19.1354 14.8113 19.0137 14.933 19.0137 15.0831V15.7972C19.0137 16.0249 18.8484 16.2173 18.6528 16.2173H18.2129V12.8687H18.6528C18.8484 12.8687 19.0137 13.0611 19.0137 13.2888V13.8145C19.0136 13.9646 19.1354 14.0863 19.2855 14.0863ZM13.3465 2.92211C13.5046 2.80714 13.7515 2.86546 13.8854 3.04962L15.3609 5.0782C15.4949 5.26232 15.4744 5.51516 15.3162 5.6302L14.9604 5.88895C14.7402 5.58602 13.2146 3.48865 12.9907 3.18086L13.3465 2.92211ZM9.87024 4.08962C9.81827 4.01811 9.83472 3.91376 9.90619 3.86175L11.6757 2.57467C11.7475 2.52251 11.8517 2.53936 11.9035 2.61066C12.0136 2.76194 14.5493 6.2481 14.6806 6.42867C14.6807 6.42875 14.6807 6.42882 14.6808 6.42889L15.1682 7.09891C15.2202 7.17042 15.2038 7.27477 15.1322 7.32678L13.3627 8.61387C13.2909 8.66606 13.1876 8.65033 13.1349 8.57788C13.0277 8.43047 9.99967 4.26755 9.87024 4.08962ZM10.6057 6.02502L11.5201 7.28213C10.1058 8.59477 8.12198 10.0459 6.38829 11.0146L5.47401 9.75764C6.88451 8.44845 8.86952 6.99507 10.6057 6.02502ZM3.31927 13.2887L3.31927 14.1517C3.23841 14.1215 3.16367 14.0658 3.10865 13.9901L1.63313 11.9616C1.49304 11.769 1.52436 11.5212 1.67782 11.4096L2.03356 11.1508C2.07669 11.2101 2.41438 11.6744 3.3662 12.983C3.3338 13.086 3.31927 13.1922 3.31927 13.2887ZM4.66376 16.2173H4.22383C4.02825 16.2173 3.86297 16.0249 3.86297 15.7971C3.86297 15.5515 3.86297 13.5447 3.86297 13.2887C3.86297 13.1937 3.89433 13.0912 3.95641 13.0107C4.03035 12.9146 4.13035 12.8686 4.22383 12.8686H4.66373L4.66373 16.2173H4.66376ZM4.66376 11.7679V12.3249H4.22383C4.20175 12.3249 4.1799 12.326 4.15819 12.3277C4.15434 12.328 4.1505 12.3283 4.14666 12.3287C3.97834 12.3439 3.82307 12.4084 3.69357 12.5086L2.05143 10.251C1.87412 10.0073 1.92816 9.66467 2.17191 9.48736L3.32108 8.65152C3.56374 8.4749 3.9081 8.52916 4.08472 8.77204C4.28265 9.04413 5.53788 10.7698 5.74969 11.061H5.37053C4.98087 11.061 4.66376 11.3781 4.66376 11.7679ZM7.7218 17.318C7.7218 17.4064 7.6471 17.4811 7.5587 17.4811H5.37061C5.28221 17.4811 5.20751 17.4064 5.20751 17.318C5.20751 17.0621 5.20751 11.9347 5.20751 11.7679C5.20751 11.6795 5.28221 11.6048 5.37061 11.6048C5.92381 11.6048 6.22924 11.6048 6.38825 11.6048C6.50286 11.6048 6.54142 11.6048 6.54175 11.6048C6.70068 11.6048 7.00593 11.6048 7.5587 11.6048C7.6471 11.6048 7.7218 11.6795 7.7218 11.7679C7.7218 12.1043 7.7218 17.1111 7.7218 17.318ZM17.6692 17.318C17.6692 17.4064 17.5945 17.4811 17.5061 17.4811H15.318C15.2296 17.4811 15.1549 17.4064 15.1549 17.318V11.7679C15.1549 11.6795 15.2296 11.6048 15.318 11.6048L17.5061 11.6048C17.5945 11.6048 17.6692 11.6795 17.6692 11.7679C17.6692 12.1027 17.6692 17.1383 17.6692 17.318Z" fill="#87B1CA"/>
<path d="M19.2855 14.0863C19.4356 14.0863 19.5573 13.9646 19.5573 13.8145V13.2887C19.5573 12.7573 19.1515 12.3249 18.6528 12.3249H18.2128V11.7679C18.2128 11.3782 17.8957 11.0611 17.506 11.0611L15.3179 11.0611C14.9282 11.0611 14.6111 11.3782 14.6111 11.7679V13.2185C12.6565 12.9905 10.2234 12.9901 8.26547 13.2185V11.7679C8.26547 11.3782 7.94837 11.0611 7.55866 11.0611H7.38578C8.87598 10.1537 10.5425 8.92311 11.842 7.72468L12.6952 8.8977C12.9248 9.21339 13.368 9.28236 13.6826 9.05355L15.4521 7.7665C15.4521 7.7665 15.4521 7.7665 15.4521 7.76647C15.7673 7.53725 15.8372 7.09431 15.6079 6.77909L15.2803 6.32864L15.636 6.06989C16.0394 5.77645 16.1132 5.18813 15.8006 4.75834L14.3251 2.72976C14.0125 2.30004 13.43 2.18902 13.0267 2.48242L12.6709 2.74125L12.3433 2.29083C12.114 1.97558 11.6711 1.90573 11.3559 2.13495L9.58637 3.422C9.27122 3.65121 9.20131 4.09415 9.43056 4.40937L10.2838 5.5824C8.56848 6.54806 6.60108 7.97868 5.15209 9.31506L4.52444 8.45225C4.17098 7.96632 3.48712 7.85831 3.00126 8.21184L1.85208 9.04768C1.3659 9.40139 1.25807 10.0847 1.61171 10.5709L1.7137 10.7111L1.35796 10.9699C0.946545 11.2691 0.88714 11.8604 1.19337 12.2814L2.66889 14.3099C2.83033 14.5319 3.06693 14.6731 3.31927 14.7106V15.7972C3.31927 16.3286 3.72506 16.761 4.22383 16.761H4.66376V17.318C4.66376 17.7077 4.98087 18.0248 5.37057 18.0248H7.55866C7.9484 18.0248 8.26547 17.7077 8.26547 17.318V15.8676C9.03803 15.9575 9.90648 16.014 10.7985 16.0319C10.8004 16.032 10.8022 16.032 10.8041 16.032C10.9517 16.032 11.0728 15.9138 11.0758 15.7656C11.0788 15.6155 10.9596 15.4914 10.8094 15.4884C9.91004 15.4702 9.03629 15.4124 8.26547 15.3202V13.7657C10.1885 13.5352 12.6482 13.5304 14.6111 13.7657V15.3202C13.8404 15.4124 12.9666 15.4702 12.0671 15.4884C11.9171 15.4914 11.7978 15.6155 11.8008 15.7656C11.8038 15.9138 11.9248 16.032 12.0725 16.032C12.0744 16.032 12.0762 16.032 12.0781 16.0319C12.9701 16.014 13.8386 15.9575 14.6111 15.8676V17.318C14.6111 17.7077 14.9282 18.0248 15.3179 18.0248H17.506C17.8958 18.0248 18.2128 17.7077 18.2128 17.318V16.761H18.6528C19.1515 16.761 19.5573 16.3286 19.5573 15.7972V15.0831C19.5573 14.933 19.4356 14.8113 19.2855 14.8113C19.1354 14.8113 19.0137 14.933 19.0137 15.0831V15.7972C19.0137 16.0249 18.8484 16.2173 18.6528 16.2173H18.2129V12.8687H18.6528C18.8484 12.8687 19.0137 13.0611 19.0137 13.2888V13.8145C19.0136 13.9646 19.1354 14.0863 19.2855 14.0863ZM13.3465 2.92211C13.5046 2.80714 13.7515 2.86546 13.8854 3.04962L15.3609 5.0782C15.4949 5.26232 15.4744 5.51516 15.3162 5.6302L14.9604 5.88895C14.7402 5.58602 13.2146 3.48865 12.9907 3.18086L13.3465 2.92211ZM9.87024 4.08962C9.81827 4.01811 9.83472 3.91376 9.90619 3.86175L11.6757 2.57467C11.7475 2.52251 11.8517 2.53936 11.9035 2.61066C12.0136 2.76194 14.5493 6.2481 14.6806 6.42867C14.6807 6.42875 14.6807 6.42882 14.6808 6.42889L15.1682 7.09891C15.2202 7.17042 15.2038 7.27477 15.1322 7.32678L13.3627 8.61387C13.2909 8.66606 13.1876 8.65033 13.1349 8.57788C13.0277 8.43047 9.99967 4.26755 9.87024 4.08962ZM10.6057 6.02502L11.5201 7.28213C10.1058 8.59477 8.12198 10.0459 6.38829 11.0146L5.47401 9.75764C6.88451 8.44845 8.86952 6.99507 10.6057 6.02502ZM3.31927 13.2887L3.31927 14.1517C3.23841 14.1215 3.16367 14.0658 3.10865 13.9901L1.63313 11.9616C1.49304 11.769 1.52436 11.5212 1.67782 11.4096L2.03356 11.1508C2.07669 11.2101 2.41438 11.6744 3.3662 12.983C3.3338 13.086 3.31927 13.1922 3.31927 13.2887ZM4.66376 16.2173H4.22383C4.02825 16.2173 3.86297 16.0249 3.86297 15.7971C3.86297 15.5515 3.86297 13.5447 3.86297 13.2887C3.86297 13.1937 3.89433 13.0912 3.95641 13.0107C4.03035 12.9146 4.13035 12.8686 4.22383 12.8686H4.66373L4.66373 16.2173H4.66376ZM4.66376 11.7679V12.3249H4.22383C4.20175 12.3249 4.1799 12.326 4.15819 12.3277C4.15434 12.328 4.1505 12.3283 4.14666 12.3287C3.97834 12.3439 3.82307 12.4084 3.69357 12.5086L2.05143 10.251C1.87412 10.0073 1.92816 9.66467 2.17191 9.48736L3.32108 8.65152C3.56374 8.4749 3.9081 8.52916 4.08472 8.77204C4.28265 9.04413 5.53788 10.7698 5.74969 11.061H5.37053C4.98087 11.061 4.66376 11.3781 4.66376 11.7679ZM7.7218 17.318C7.7218 17.4064 7.6471 17.4811 7.5587 17.4811H5.37061C5.28221 17.4811 5.20751 17.4064 5.20751 17.318C5.20751 17.0621 5.20751 11.9347 5.20751 11.7679C5.20751 11.6795 5.28221 11.6048 5.37061 11.6048C5.92381 11.6048 6.22924 11.6048 6.38825 11.6048C6.50286 11.6048 6.54142 11.6048 6.54175 11.6048C6.70068 11.6048 7.00593 11.6048 7.5587 11.6048C7.6471 11.6048 7.7218 11.6795 7.7218 11.7679C7.7218 12.1043 7.7218 17.1111 7.7218 17.318ZM17.6692 17.318C17.6692 17.4064 17.5945 17.4811 17.5061 17.4811H15.318C15.2296 17.4811 15.1549 17.4064 15.1549 17.318V11.7679C15.1549 11.6795 15.2296 11.6048 15.318 11.6048L17.5061 11.6048C17.5945 11.6048 17.6692 11.6795 17.6692 11.7679C17.6692 12.1027 17.6692 17.1383 17.6692 17.318Z" stroke="#87B1CA" stroke-width="0.2" mask="url(#path-1-outside-1_6263_12855)"/>
</svg>
