<svg width="20" height="20" viewBox="0 0 20 20" fill="none" xmlns="http://www.w3.org/2000/svg">
<g clip-path="url(#clip0_6263_12936)">
<path d="M4.97985 7.90605L2.40147 10.4844L2.40143 10.4845M4.97985 7.90605L2.33763 11.547C2.20614 11.4008 2.13288 11.2107 2.13286 11.0131C2.13285 10.8017 2.21672 10.5988 2.36608 10.4491L2.40143 10.4845M4.97985 7.90605C4.97987 7.90604 4.97988 7.90602 4.97989 7.90601C5.12021 7.76599 5.31034 7.68734 5.50857 7.68733C5.70682 7.68732 5.89697 7.76596 6.03731 7.90599L8.25387 10.1226C8.16825 10.1697 8.06751 10.2154 7.95741 10.2652C7.4735 10.4843 6.80871 10.7854 6.45137 11.6615C5.43905 12.0217 4.64551 12.6953 4.62508 13.7653M4.97985 7.90605L4.94453 7.87066L4.62508 13.7653M2.40143 10.4845C2.26145 10.6248 2.18285 10.8149 2.18286 11.0131C2.18288 11.1975 2.25089 11.3748 2.37304 11.5116M2.40143 10.4845L2.37304 11.5116M2.37304 11.5116L3.00337 10.8813C3.05679 10.8278 3.12925 10.7978 3.20479 10.7978C3.28034 10.7978 3.3528 10.8278 3.40622 10.8813C3.45964 10.9347 3.48965 11.0071 3.48965 11.0827C3.48965 11.1582 3.45964 11.2307 3.40622 11.2841L2.77504 11.9153L3.02262 12.1629L3.36822 11.8173C3.42164 11.7639 3.49409 11.7338 3.56964 11.7338C3.64519 11.7338 3.71764 11.7639 3.77106 11.8173C3.82448 11.8707 3.8545 11.9431 3.8545 12.0187C3.8545 12.0942 3.82448 12.1667 3.77106 12.2201L3.42546 12.5657L3.67305 12.8133L4.30423 12.1821C4.35765 12.1287 4.4301 12.0987 4.50565 12.0987C4.5812 12.0987 4.65365 12.1287 4.70707 12.1821C4.76049 12.2355 4.7905 12.308 4.7905 12.3835C4.7905 12.4591 4.76049 12.5315 4.70707 12.585L4.07589 13.2161L4.62508 13.7653M10.9514 12.0144L10.9513 12.0143L6.44011 7.50311L6.44007 7.50307C6.19284 7.2564 5.85785 7.11787 5.50861 7.11787C5.15936 7.11787 4.82438 7.2564 4.57714 7.50307L4.5771 7.50311L1.99859 10.0816L1.99854 10.0817C1.7519 10.3289 1.61339 10.6639 1.6134 11.0131C1.61341 11.3623 1.75194 11.6973 1.9986 11.9445L1.99864 11.9446L6.50987 16.4558L6.5099 16.4558C6.75712 16.7025 7.0921 16.8411 7.44135 16.8411C7.79061 16.8412 8.12561 16.7026 8.37286 16.456L8.3729 16.4559L10.9514 13.8775L10.9514 13.8774C11.1981 13.6302 11.3367 13.2952 11.3367 12.9459C11.3367 12.5966 11.1981 12.2616 10.9514 12.0144ZM8.66876 10.5375L8.80812 10.6768C8.34547 11.0558 7.83979 11.2359 7.26361 11.4089C7.46646 11.1615 7.67624 11.0293 7.89518 10.9228C7.9676 10.8876 8.04225 10.8547 8.11859 10.8211C8.2952 10.7434 8.48084 10.6617 8.66876 10.5375Z" fill="#87B1CA" stroke="#87B1CA" stroke-width="0.1"/>
<mask id="path-2-outside-1_6263_12936" maskUnits="userSpaceOnUse" x="-2.41421" y="-2.02082" width="24.0416" height="24.0416" fill="black">
<rect fill="white" x="-2.41421" y="-2.02082" width="24.0416" height="24.0416"/>
<path d="M15.1905 4.38046L14.8645 4.70651L12.7588 2.60079C12.2776 2.11965 11.6251 1.84934 10.9446 1.84934C10.2642 1.84934 9.61163 2.11965 9.13049 2.60079C8.64935 3.08192 8.37905 3.73449 8.37905 4.41492C8.37905 5.09536 8.64935 5.74792 9.13049 6.22906L15.2287 12.3273C15.6211 12.7207 15.8414 13.2537 15.8414 13.8094C15.8413 14.365 15.6209 14.898 15.2284 15.2913L14.1933 16.3265C13.8081 16.7108 13.2886 16.9304 12.7445 16.939C12.2004 16.9476 11.6743 16.7444 11.2772 16.3724L11.9528 15.6968C11.9968 15.6527 12.0216 15.593 12.0216 15.5307C12.0216 15.4684 11.9968 15.4087 11.9528 15.3647L11.354 14.7659L11.8148 14.305C12.1438 13.9754 12.3286 13.5286 12.3286 13.0629C12.3286 12.5971 12.1438 12.1504 11.8148 11.8207L6.63368 6.63952C6.304 6.31087 5.85741 6.12644 5.39191 6.1267C4.9264 6.12696 4.48001 6.31189 4.15071 6.64091L3.54705 7.24456C3.30696 7.0082 2.98319 6.87631 2.64628 6.87763C2.30937 6.87894 1.98663 7.01337 1.7484 7.2516C1.51017 7.48983 1.37575 7.81257 1.37443 8.14948C1.37311 8.48639 1.505 8.81016 1.74136 9.05025L1.13632 9.65529C0.807758 9.9846 0.623258 10.4308 0.62331 10.896C0.623362 11.3612 0.807961 11.8074 1.1366 12.1366L6.31787 17.3179C6.64713 17.6468 7.09344 17.8318 7.55888 17.8321C8.02432 17.8324 8.47087 17.6481 8.80057 17.3195L9.26279 16.8573L9.86146 17.456C9.9055 17.5 9.96524 17.5248 10.0275 17.5248C10.0898 17.5248 10.1495 17.5 10.1936 17.456L10.945 16.7045C11.4304 17.1645 12.076 17.417 12.7446 17.4084C13.4132 17.3998 14.052 17.1308 14.5254 16.6586L15.5606 15.6234C16.041 15.142 16.3109 14.4896 16.3109 13.8094C16.311 13.1292 16.0412 12.4767 15.5609 11.9952L9.46262 5.89693C9.06957 5.50388 8.84875 4.97078 8.84875 4.41492C8.84875 3.85906 9.06957 3.32597 9.46262 2.93292C9.85567 2.53987 10.3888 2.31905 10.9446 2.31905C11.5005 2.31905 12.0336 2.53987 12.4266 2.93292L14.5324 5.03864L14.2055 5.36552C14.1614 5.40956 14.1367 5.4693 14.1367 5.53158C14.1367 5.59387 14.1614 5.6536 14.2055 5.69765L14.852 6.3442C14.854 6.34614 14.8562 6.3478 14.8581 6.34974C14.8625 6.35361 14.867 6.35749 14.8711 6.36108C14.8733 6.36275 14.8758 6.36413 14.878 6.36579C14.8826 6.36945 14.8874 6.37278 14.8924 6.37575C14.8931 6.37656 14.894 6.37722 14.8949 6.37769L16.6688 7.46072C16.7547 7.51321 16.8557 7.53528 16.9557 7.52339C17.0557 7.51149 17.1487 7.46632 17.2199 7.39515C17.2911 7.32397 17.3362 7.23092 17.3481 7.13096C17.36 7.03101 17.3379 6.92995 17.2855 6.84406L16.2027 5.06992C16.2022 5.06936 16.2016 5.06826 16.2008 5.06743C16.1977 5.06272 16.1944 5.05774 16.1908 5.05303C16.1893 5.05071 16.1876 5.04849 16.1858 5.04639C16.1824 5.0419 16.1787 5.03764 16.1748 5.03366C16.173 5.03141 16.171 5.02929 16.1689 5.02729C16.1687 5.02702 16.1687 5.02646 16.1684 5.02619L15.5227 4.38046C15.4786 4.33642 15.4189 4.31168 15.3566 4.31168C15.2943 4.31168 15.2346 4.33642 15.1905 4.38046ZM8.46832 16.9873C8.22679 17.2279 7.89968 17.3628 7.55877 17.3625C7.21786 17.3622 6.89099 17.2267 6.6499 16.9856L1.46873 11.8045C1.22809 11.5634 1.09292 11.2366 1.09287 10.896C1.09282 10.5554 1.22789 10.2286 1.46846 9.98742L2.23956 9.21632C2.2836 9.17228 2.30835 9.11254 2.30835 9.05025C2.30835 8.98797 2.2836 8.92823 2.23956 8.88419L2.08013 8.72476C1.92873 8.57336 1.84368 8.36802 1.84368 8.15391C1.84368 7.9398 1.92873 7.73446 2.08013 7.58306C2.23153 7.43166 2.43688 7.3466 2.65099 7.3466C2.8651 7.3466 3.07044 7.43166 3.22184 7.58306L3.38127 7.74248C3.42531 7.78652 3.48504 7.81127 3.54733 7.81127C3.60962 7.81127 3.66935 7.78652 3.7134 7.74248L4.48284 6.97304C4.72403 6.73205 5.05096 6.59657 5.39191 6.59631C5.73286 6.59605 6.05999 6.73104 6.30154 6.97166L11.4828 12.1529C11.7238 12.3945 11.8592 12.7218 11.8592 13.063C11.8592 13.4042 11.7238 13.7315 11.4828 13.973L8.46832 16.9873ZM10.0274 16.9577L9.59481 16.5251L11.0219 15.098L11.4545 15.5306L10.0274 16.9577ZM16.8392 7.01444L15.3944 6.13208L15.9571 5.56939L16.8392 7.01444ZM15.6701 5.19214L15.0172 5.84506L14.7036 5.53147L15.3565 4.87855L15.6701 5.19214Z"/>
</mask>
<path d="M15.1905 4.38046L14.8645 4.70651L12.7588 2.60079C12.2776 2.11965 11.6251 1.84934 10.9446 1.84934C10.2642 1.84934 9.61163 2.11965 9.13049 2.60079C8.64935 3.08192 8.37905 3.73449 8.37905 4.41492C8.37905 5.09536 8.64935 5.74792 9.13049 6.22906L15.2287 12.3273C15.6211 12.7207 15.8414 13.2537 15.8414 13.8094C15.8413 14.365 15.6209 14.898 15.2284 15.2913L14.1933 16.3265C13.8081 16.7108 13.2886 16.9304 12.7445 16.939C12.2004 16.9476 11.6743 16.7444 11.2772 16.3724L11.9528 15.6968C11.9968 15.6527 12.0216 15.593 12.0216 15.5307C12.0216 15.4684 11.9968 15.4087 11.9528 15.3647L11.354 14.7659L11.8148 14.305C12.1438 13.9754 12.3286 13.5286 12.3286 13.0629C12.3286 12.5971 12.1438 12.1504 11.8148 11.8207L6.63368 6.63952C6.304 6.31087 5.85741 6.12644 5.39191 6.1267C4.9264 6.12696 4.48001 6.31189 4.15071 6.64091L3.54705 7.24456C3.30696 7.0082 2.98319 6.87631 2.64628 6.87763C2.30937 6.87894 1.98663 7.01337 1.7484 7.2516C1.51017 7.48983 1.37575 7.81257 1.37443 8.14948C1.37311 8.48639 1.505 8.81016 1.74136 9.05025L1.13632 9.65529C0.807758 9.9846 0.623258 10.4308 0.62331 10.896C0.623362 11.3612 0.807961 11.8074 1.1366 12.1366L6.31787 17.3179C6.64713 17.6468 7.09344 17.8318 7.55888 17.8321C8.02432 17.8324 8.47087 17.6481 8.80057 17.3195L9.26279 16.8573L9.86146 17.456C9.9055 17.5 9.96524 17.5248 10.0275 17.5248C10.0898 17.5248 10.1495 17.5 10.1936 17.456L10.945 16.7045C11.4304 17.1645 12.076 17.417 12.7446 17.4084C13.4132 17.3998 14.052 17.1308 14.5254 16.6586L15.5606 15.6234C16.041 15.142 16.3109 14.4896 16.3109 13.8094C16.311 13.1292 16.0412 12.4767 15.5609 11.9952L9.46262 5.89693C9.06957 5.50388 8.84875 4.97078 8.84875 4.41492C8.84875 3.85906 9.06957 3.32597 9.46262 2.93292C9.85567 2.53987 10.3888 2.31905 10.9446 2.31905C11.5005 2.31905 12.0336 2.53987 12.4266 2.93292L14.5324 5.03864L14.2055 5.36552C14.1614 5.40956 14.1367 5.4693 14.1367 5.53158C14.1367 5.59387 14.1614 5.6536 14.2055 5.69765L14.852 6.3442C14.854 6.34614 14.8562 6.3478 14.8581 6.34974C14.8625 6.35361 14.867 6.35749 14.8711 6.36108C14.8733 6.36275 14.8758 6.36413 14.878 6.36579C14.8826 6.36945 14.8874 6.37278 14.8924 6.37575C14.8931 6.37656 14.894 6.37722 14.8949 6.37769L16.6688 7.46072C16.7547 7.51321 16.8557 7.53528 16.9557 7.52339C17.0557 7.51149 17.1487 7.46632 17.2199 7.39515C17.2911 7.32397 17.3362 7.23092 17.3481 7.13096C17.36 7.03101 17.3379 6.92995 17.2855 6.84406L16.2027 5.06992C16.2022 5.06936 16.2016 5.06826 16.2008 5.06743C16.1977 5.06272 16.1944 5.05774 16.1908 5.05303C16.1893 5.05071 16.1876 5.04849 16.1858 5.04639C16.1824 5.0419 16.1787 5.03764 16.1748 5.03366C16.173 5.03141 16.171 5.02929 16.1689 5.02729C16.1687 5.02702 16.1687 5.02646 16.1684 5.02619L15.5227 4.38046C15.4786 4.33642 15.4189 4.31168 15.3566 4.31168C15.2943 4.31168 15.2346 4.33642 15.1905 4.38046ZM8.46832 16.9873C8.22679 17.2279 7.89968 17.3628 7.55877 17.3625C7.21786 17.3622 6.89099 17.2267 6.6499 16.9856L1.46873 11.8045C1.22809 11.5634 1.09292 11.2366 1.09287 10.896C1.09282 10.5554 1.22789 10.2286 1.46846 9.98742L2.23956 9.21632C2.2836 9.17228 2.30835 9.11254 2.30835 9.05025C2.30835 8.98797 2.2836 8.92823 2.23956 8.88419L2.08013 8.72476C1.92873 8.57336 1.84368 8.36802 1.84368 8.15391C1.84368 7.9398 1.92873 7.73446 2.08013 7.58306C2.23153 7.43166 2.43688 7.3466 2.65099 7.3466C2.8651 7.3466 3.07044 7.43166 3.22184 7.58306L3.38127 7.74248C3.42531 7.78652 3.48504 7.81127 3.54733 7.81127C3.60962 7.81127 3.66935 7.78652 3.7134 7.74248L4.48284 6.97304C4.72403 6.73205 5.05096 6.59657 5.39191 6.59631C5.73286 6.59605 6.05999 6.73104 6.30154 6.97166L11.4828 12.1529C11.7238 12.3945 11.8592 12.7218 11.8592 13.063C11.8592 13.4042 11.7238 13.7315 11.4828 13.973L8.46832 16.9873ZM10.0274 16.9577L9.59481 16.5251L11.0219 15.098L11.4545 15.5306L10.0274 16.9577ZM16.8392 7.01444L15.3944 6.13208L15.9571 5.56939L16.8392 7.01444ZM15.6701 5.19214L15.0172 5.84506L14.7036 5.53147L15.3565 4.87855L15.6701 5.19214Z" fill="#87B1CA"/>
<path d="M15.1905 4.38046L14.8645 4.70651L12.7588 2.60079C12.2776 2.11965 11.6251 1.84934 10.9446 1.84934C10.2642 1.84934 9.61163 2.11965 9.13049 2.60079C8.64935 3.08192 8.37905 3.73449 8.37905 4.41492C8.37905 5.09536 8.64935 5.74792 9.13049 6.22906L15.2287 12.3273C15.6211 12.7207 15.8414 13.2537 15.8414 13.8094C15.8413 14.365 15.6209 14.898 15.2284 15.2913L14.1933 16.3265C13.8081 16.7108 13.2886 16.9304 12.7445 16.939C12.2004 16.9476 11.6743 16.7444 11.2772 16.3724L11.9528 15.6968C11.9968 15.6527 12.0216 15.593 12.0216 15.5307C12.0216 15.4684 11.9968 15.4087 11.9528 15.3647L11.354 14.7659L11.8148 14.305C12.1438 13.9754 12.3286 13.5286 12.3286 13.0629C12.3286 12.5971 12.1438 12.1504 11.8148 11.8207L6.63368 6.63952C6.304 6.31087 5.85741 6.12644 5.39191 6.1267C4.9264 6.12696 4.48001 6.31189 4.15071 6.64091L3.54705 7.24456C3.30696 7.0082 2.98319 6.87631 2.64628 6.87763C2.30937 6.87894 1.98663 7.01337 1.7484 7.2516C1.51017 7.48983 1.37575 7.81257 1.37443 8.14948C1.37311 8.48639 1.505 8.81016 1.74136 9.05025L1.13632 9.65529C0.807758 9.9846 0.623258 10.4308 0.62331 10.896C0.623362 11.3612 0.807961 11.8074 1.1366 12.1366L6.31787 17.3179C6.64713 17.6468 7.09344 17.8318 7.55888 17.8321C8.02432 17.8324 8.47087 17.6481 8.80057 17.3195L9.26279 16.8573L9.86146 17.456C9.9055 17.5 9.96524 17.5248 10.0275 17.5248C10.0898 17.5248 10.1495 17.5 10.1936 17.456L10.945 16.7045C11.4304 17.1645 12.076 17.417 12.7446 17.4084C13.4132 17.3998 14.052 17.1308 14.5254 16.6586L15.5606 15.6234C16.041 15.142 16.3109 14.4896 16.3109 13.8094C16.311 13.1292 16.0412 12.4767 15.5609 11.9952L9.46262 5.89693C9.06957 5.50388 8.84875 4.97078 8.84875 4.41492C8.84875 3.85906 9.06957 3.32597 9.46262 2.93292C9.85567 2.53987 10.3888 2.31905 10.9446 2.31905C11.5005 2.31905 12.0336 2.53987 12.4266 2.93292L14.5324 5.03864L14.2055 5.36552C14.1614 5.40956 14.1367 5.4693 14.1367 5.53158C14.1367 5.59387 14.1614 5.6536 14.2055 5.69765L14.852 6.3442C14.854 6.34614 14.8562 6.3478 14.8581 6.34974C14.8625 6.35361 14.867 6.35749 14.8711 6.36108C14.8733 6.36275 14.8758 6.36413 14.878 6.36579C14.8826 6.36945 14.8874 6.37278 14.8924 6.37575C14.8931 6.37656 14.894 6.37722 14.8949 6.37769L16.6688 7.46072C16.7547 7.51321 16.8557 7.53528 16.9557 7.52339C17.0557 7.51149 17.1487 7.46632 17.2199 7.39515C17.2911 7.32397 17.3362 7.23092 17.3481 7.13096C17.36 7.03101 17.3379 6.92995 17.2855 6.84406L16.2027 5.06992C16.2022 5.06936 16.2016 5.06826 16.2008 5.06743C16.1977 5.06272 16.1944 5.05774 16.1908 5.05303C16.1893 5.05071 16.1876 5.04849 16.1858 5.04639C16.1824 5.0419 16.1787 5.03764 16.1748 5.03366C16.173 5.03141 16.171 5.02929 16.1689 5.02729C16.1687 5.02702 16.1687 5.02646 16.1684 5.02619L15.5227 4.38046C15.4786 4.33642 15.4189 4.31168 15.3566 4.31168C15.2943 4.31168 15.2346 4.33642 15.1905 4.38046ZM8.46832 16.9873C8.22679 17.2279 7.89968 17.3628 7.55877 17.3625C7.21786 17.3622 6.89099 17.2267 6.6499 16.9856L1.46873 11.8045C1.22809 11.5634 1.09292 11.2366 1.09287 10.896C1.09282 10.5554 1.22789 10.2286 1.46846 9.98742L2.23956 9.21632C2.2836 9.17228 2.30835 9.11254 2.30835 9.05025C2.30835 8.98797 2.2836 8.92823 2.23956 8.88419L2.08013 8.72476C1.92873 8.57336 1.84368 8.36802 1.84368 8.15391C1.84368 7.9398 1.92873 7.73446 2.08013 7.58306C2.23153 7.43166 2.43688 7.3466 2.65099 7.3466C2.8651 7.3466 3.07044 7.43166 3.22184 7.58306L3.38127 7.74248C3.42531 7.78652 3.48504 7.81127 3.54733 7.81127C3.60962 7.81127 3.66935 7.78652 3.7134 7.74248L4.48284 6.97304C4.72403 6.73205 5.05096 6.59657 5.39191 6.59631C5.73286 6.59605 6.05999 6.73104 6.30154 6.97166L11.4828 12.1529C11.7238 12.3945 11.8592 12.7218 11.8592 13.063C11.8592 13.4042 11.7238 13.7315 11.4828 13.973L8.46832 16.9873ZM10.0274 16.9577L9.59481 16.5251L11.0219 15.098L11.4545 15.5306L10.0274 16.9577ZM16.8392 7.01444L15.3944 6.13208L15.9571 5.56939L16.8392 7.01444ZM15.6701 5.19214L15.0172 5.84506L14.7036 5.53147L15.3565 4.87855L15.6701 5.19214Z" stroke="#87B1CA" stroke-width="0.2" mask="url(#path-2-outside-1_6263_12936)"/>
<path d="M2.76333 7.79062C2.81039 7.83775 2.84242 7.89777 2.85537 7.96309C2.86832 8.02842 2.8616 8.09612 2.83608 8.15763C2.81055 8.21913 2.76735 8.27169 2.71196 8.30865C2.65656 8.34562 2.59144 8.36532 2.52485 8.36527C2.45825 8.36523 2.39316 8.34544 2.33782 8.3084C2.28247 8.27136 2.23935 8.21874 2.2139 8.1572C2.18846 8.09566 2.18184 8.02795 2.19488 7.96264C2.20791 7.89734 2.24002 7.83737 2.28714 7.79031L2.76333 7.79062ZM2.76333 7.79062C2.7321 7.75933 2.695 7.73449 2.65416 7.71754C2.61331 7.70058 2.56953 7.69184 2.52531 7.69181C2.48108 7.69178 2.43729 7.70046 2.39642 7.71736C2.35556 7.73426 2.31843 7.75905 2.28715 7.7903L2.72796 7.82596L2.76334 7.79063C2.76334 7.79063 2.76334 7.79063 2.76333 7.79062Z" fill="#87B1CA" stroke="#87B1CA" stroke-width="0.1"/>
<path d="M17.5961 8.09743L17.5961 8.09742C17.589 8.05296 17.5925 8.00746 17.6064 7.96463C17.6203 7.92181 17.6441 7.88288 17.676 7.85105C17.7078 7.81922 17.7467 7.79539 17.7896 7.78151L17.5961 8.09743ZM17.5961 8.09743C17.6167 8.22628 17.6869 8.61497 17.837 9.00199C17.9121 9.19551 18.0079 9.39047 18.1288 9.55274C18.2495 9.71487 18.3976 9.84733 18.5779 9.91051L18.5779 9.91051M17.5961 8.09743L18.5779 9.91051M18.5779 9.91051C18.894 10.0212 19.2378 9.88135 19.4721 9.64702M18.5779 9.91051L19.4721 9.64702M18.2499 8.4252C18.306 8.63091 18.3789 8.83891 18.4631 9.00919C18.5109 9.10574 18.5616 9.18872 18.6138 9.25201C18.6665 9.31582 18.7179 9.35604 18.7662 9.37291L18.2499 8.4252ZM18.2499 8.4252C18.4557 8.48121 18.6637 8.55414 18.834 8.63835C18.9305 8.68609 19.0135 8.73676 19.0768 8.78903C19.1376 8.83921 19.177 8.88822 19.1952 8.93445L18.2499 8.4252ZM19.4721 9.64702C19.7063 9.41269 19.846 9.06885 19.7354 8.75302M19.4721 9.64702L19.7354 8.75302M19.7354 8.75302C19.6722 8.57267 19.5398 8.42462 19.3777 8.30386M19.7354 8.75302L19.3777 8.30386M19.3777 8.30386C19.2154 8.18299 19.0205 8.08722 18.8269 8.01214M19.3777 8.30386L18.8269 8.01214M18.8269 8.01214C18.4399 7.86199 18.0512 7.79182 17.9224 7.77122L18.8269 8.01214Z" fill="#87B1CA" stroke="#87B1CA" stroke-width="0.1"/>
</g>
<defs>
<clipPath id="clip0_6263_12936">
<rect width="20" height="20" fill="white"/>
</clipPath>
</defs>
</svg>
