<svg width="20" height="20" viewBox="0 0 20 20" fill="none" xmlns="http://www.w3.org/2000/svg">
<g clip-path="url(#clip0_6263_12779)">
<path d="M13.8644 7.46557C12.9652 7.27196 11.0571 6.94048 9.72836 6.94048C9.59022 6.94048 9.45834 6.94409 9.33489 6.95175L9.33479 6.95176C9.20678 6.95944 9.08099 6.9123 8.99 6.82131L7.63074 5.46201L5.46184 7.63091L6.8211 8.99017C6.912 9.08107 6.95959 9.20667 6.95154 9.33507C6.86983 10.6486 7.25137 12.8709 7.46536 13.8646C7.82337 15.5267 8.35878 16.6896 9.09719 17.428C11.394 19.7247 15.131 19.7248 17.4278 17.428C18.5405 16.3154 19.1532 14.8362 19.1532 13.2627C19.1532 11.6892 18.5405 10.2101 17.4278 9.0974C16.6894 8.35899 15.5265 7.82362 13.8644 7.46557ZM13.8644 7.46557L13.8749 7.41669L13.8644 7.46557C13.8644 7.46557 13.8644 7.46557 13.8644 7.46557ZM1.02886 0.0815717L1.02887 0.0815678C1.1978 -0.0873257 1.46938 -0.094206 1.64653 0.0659201C1.64653 0.0659231 1.64653 0.0659266 1.64654 0.0659296L6.95903 4.86539L7.31359 4.51083L7.3136 4.51082C7.48875 4.33576 7.77258 4.33576 7.94776 4.51082L7.94778 4.51083L9.48427 6.04736C10.9008 6.00477 12.9976 6.36155 14.0532 6.58895C15.8787 6.98212 17.1925 7.59377 18.062 8.46325L18.0272 8.49805L18.062 8.46325C19.3439 9.74521 20.05 11.4498 20.05 13.2627C20.05 15.0757 19.3439 16.7803 18.062 18.0622C16.7801 19.3441 15.0754 20.0502 13.2625 20.0502C11.4496 20.0502 9.74496 19.3441 8.46304 18.0622C7.59356 17.1927 6.98191 15.8789 6.58874 14.0534C6.36142 12.9979 6.00429 10.9013 6.04715 9.48444L4.51062 7.94795L4.51061 7.94794C4.42656 7.86384 4.3793 7.7498 4.3793 7.63087C4.3793 7.51193 4.42657 7.39794 4.5106 7.31382L4.51062 7.3138L4.86518 6.95924L0.0657101 1.64677C-0.0944099 1.46955 -0.0874996 1.19798 0.081316 1.02908L0.116573 1.06432L0.0813255 1.02907L1.02886 0.0815717ZM1.01685 1.36184L5.50016 6.32426L6.32409 5.50033L1.36159 1.0171L1.01685 1.36184Z" fill="#87B1CA" stroke="#87B1CA" stroke-width="0.1"/>
<path d="M12.0858 17.382L12.0858 17.3819C11.8541 17.2941 11.5953 17.4107 11.5075 17.6422C11.4196 17.8737 11.5361 18.1326 11.7677 18.2205L11.7677 18.2205C12.321 18.4304 12.8976 18.5366 13.4706 18.5366C13.7838 18.5366 14.096 18.5049 14.4027 18.4411L14.4027 18.4411C14.6451 18.3906 14.8008 18.1532 14.7503 17.9107L14.7503 17.9107C14.6999 17.6684 14.4627 17.5126 14.22 17.5631L12.0858 17.382ZM12.0858 17.382C12.7822 17.6463 13.5203 17.7086 14.22 17.5631L12.0858 17.382Z" fill="#87B1CA" stroke="#87B1CA" stroke-width="0.1"/>
<path d="M15.5691 16.9599L15.5691 16.9599C15.6989 16.8632 15.8229 16.7558 15.9379 16.6408L15.9379 16.6408C16.113 16.4657 16.3968 16.4656 16.572 16.6407L16.5721 16.6407C16.7472 16.8158 16.7472 17.0997 16.5722 17.2749L16.5721 17.2749C16.4267 17.4204 16.2696 17.5562 16.1052 17.6789L16.1052 17.6789C16.0248 17.7388 15.9307 17.7678 15.8375 17.7678C15.7008 17.7678 15.5657 17.7054 15.4777 17.5875L15.4777 17.5875C15.3296 17.3889 15.3705 17.1079 15.5691 16.9599Z" fill="#87B1CA" stroke="#87B1CA" stroke-width="0.1"/>
</g>
<defs>
<clipPath id="clip0_6263_12779">
<rect width="20" height="20" fill="white" transform="matrix(-1 0 0 1 20 0)"/>
</clipPath>
</defs>
</svg>
