<svg width="20" height="20" viewBox="0 0 20 20" fill="none" xmlns="http://www.w3.org/2000/svg">
<g clip-path="url(#clip0_6342_12106)">
<mask id="path-1-outside-1_6342_12106" maskUnits="userSpaceOnUse" x="-2.49615" y="-3.73361" width="26.8701" height="26.8701" fill="black">
<rect fill="white" x="-2.49615" y="-3.73361" width="26.8701" height="26.8701"/>
<path d="M15.5218 6.69277L14.3821 9.78592L13.4383 8.84215C13.0066 8.41153 12.6688 7.89625 12.4459 7.32872L10.2581 1.7755C10.1425 1.49563 9.9226 1.27167 9.6449 1.15096C9.3672 1.03024 9.05345 1.02224 8.76995 1.12864C8.48646 1.23503 8.25544 1.44749 8.12573 1.72111C7.99603 1.99472 7.97779 2.30805 8.07488 2.59486L9.27917 5.96467L6.38909 1.97416C6.21599 1.73584 5.95738 1.57376 5.66743 1.52185C5.37749 1.46995 5.07871 1.53225 4.83368 1.69571C4.58865 1.85917 4.41637 2.1111 4.35294 2.39874C4.2895 2.68638 4.33983 2.98741 4.49339 3.23877L7.11079 7.51301L3.9193 4.58758C3.73603 4.41898 3.49541 4.32653 3.2464 4.32904C2.99739 4.33154 2.75868 4.42881 2.57883 4.60106C2.39898 4.7733 2.2915 5.00759 2.27826 5.25626C2.26501 5.50494 2.34699 5.74932 2.50752 5.9397L5.82407 9.89L2.61999 8.35602C2.39086 8.24688 2.12908 8.2278 1.88654 8.30257C1.64401 8.37734 1.43841 8.5405 1.3105 8.75971C1.18259 8.97892 1.14169 9.23819 1.19593 9.48612C1.25016 9.73406 1.39556 9.95258 1.60331 10.0984L5.07498 12.5288C5.30664 12.6912 5.49723 12.9054 5.63161 13.1544C6.51268 14.7951 7.72247 16.2366 9.18548 17.3889L10.626 18.5262C10.9912 18.8144 11.3053 19.1619 11.5552 19.5544L12.696 21.3476C12.7212 21.387 12.7548 21.4204 12.7946 21.4451C12.8343 21.4698 12.8791 21.4853 12.9256 21.4904C12.9721 21.4955 13.0191 21.4901 13.0633 21.4746C13.1074 21.4591 13.1475 21.4339 13.1806 21.4008L16.7162 17.8653C16.7671 17.8143 16.7989 17.7474 16.8062 17.6757C16.8134 17.604 16.7957 17.532 16.7559 17.4719L16.4552 17.0214C16.3105 16.8052 16.2284 16.5532 16.2181 16.2933C16.2077 16.0333 16.2695 15.7756 16.3966 15.5486L16.9992 14.4634C17.7417 13.1252 17.9845 11.5667 17.6842 10.0661C17.5455 9.37417 17.534 8.66272 17.6504 7.96666L17.7645 7.28519C17.79 7.13199 17.7847 6.97522 17.7488 6.82411C17.7128 6.673 17.6471 6.53059 17.5554 6.40526C17.4636 6.27992 17.3478 6.17419 17.2146 6.09428C17.0814 6.01437 16.9336 5.96189 16.7798 5.93992C16.5158 5.90353 16.2472 5.9583 16.0185 6.09518C15.7897 6.23206 15.6145 6.44286 15.5218 6.69277V6.69277ZM5.0257 2.91417C4.95701 2.80055 4.93478 2.66482 4.96366 2.53523C4.99253 2.40564 5.07028 2.29218 5.18072 2.21848C5.29115 2.14478 5.42576 2.11652 5.55651 2.13958C5.68726 2.16265 5.80408 2.23526 5.88263 2.34229L9.91049 7.90457C9.73547 7.9876 9.56902 8.08759 9.41352 8.2031L8.9844 8.52528C8.86485 8.61477 8.75216 8.71333 8.63504 8.80702L5.0257 2.91417ZM2.9857 5.53709C2.92757 5.4682 2.89787 5.37976 2.90265 5.28975C2.90743 5.19974 2.94632 5.11493 3.01143 5.05259C3.07653 4.99025 3.16294 4.95506 3.25307 4.95418C3.3432 4.9533 3.43028 4.9868 3.49659 5.04786L8.10074 9.2684C7.98583 9.37447 7.86982 9.4759 7.76066 9.58506C7.50868 9.83785 7.27898 10.1119 7.0741 10.4042L2.9857 5.53709ZM17.0512 6.77652C17.0939 6.83437 17.1246 6.90024 17.1415 6.9702C17.1583 7.04016 17.1609 7.11279 17.1491 7.18377L17.035 7.86524C16.906 8.63615 16.9186 9.42414 17.0724 10.1905C17.343 11.5455 17.1234 12.9527 16.4526 14.1607L15.85 15.2459C15.667 15.5733 15.5782 15.9449 15.5935 16.3197C15.6088 16.6944 15.7276 17.0576 15.9366 17.369L16.093 17.6045L13.0142 20.6833L12.0824 19.2189C11.7949 18.7669 11.4332 18.3666 11.0125 18.035L9.57218 16.8979C8.17627 15.7984 7.02199 14.4229 6.18138 12.8574C6.00052 12.5224 5.74404 12.2341 5.43229 12.0155L1.9615 9.58594C1.88177 9.53032 1.82589 9.44672 1.805 9.35177C1.7841 9.25683 1.79972 9.1575 1.84875 9.07354C1.89777 8.98959 1.9766 8.92717 2.06956 8.89871C2.16252 8.87025 2.26279 8.87782 2.35041 8.91993L6.70177 11.001C6.52277 11.3272 6.37345 11.6688 6.25563 12.0217C6.22937 12.1003 6.23544 12.1862 6.27248 12.2604C6.30953 12.3346 6.37453 12.391 6.45318 12.4172C6.53182 12.4435 6.61768 12.4374 6.69186 12.4004C6.76604 12.3633 6.82246 12.2983 6.84871 12.2197C7.12449 11.394 7.58791 10.6434 8.2026 10.027C8.5642 9.66567 8.95083 9.33029 9.35961 9.02335L9.78895 8.70139C10.1943 8.39869 10.6864 8.23466 11.1923 8.2336C11.2743 8.23217 11.3524 8.19863 11.4098 8.14019C11.4672 8.08175 11.4994 8.00308 11.4994 7.92114C11.4994 7.83921 11.4672 7.76054 11.4098 7.7021C11.3524 7.64366 11.2743 7.61012 11.1923 7.60869C10.9777 7.6095 10.7638 7.63373 10.5544 7.68095L8.66178 2.38627C8.61129 2.2518 8.61629 2.10278 8.67567 1.97199C8.73506 1.84121 8.84396 1.73937 8.97843 1.68888C9.1129 1.63839 9.26192 1.64339 9.3927 1.70277C9.52349 1.76216 9.62533 1.87106 9.67582 2.00553L11.8648 7.55809C12.1189 8.20528 12.5042 8.79292 12.9963 9.28409L14.2855 10.5732C14.3226 10.6103 14.3684 10.6375 14.4187 10.6522C14.469 10.6669 14.5223 10.6687 14.5735 10.6575C14.6247 10.6462 14.6723 10.6223 14.7118 10.5878C14.7513 10.5534 14.7816 10.5095 14.7997 10.4603L16.1089 6.90821C16.1521 6.79249 16.2334 6.69492 16.3394 6.63161C16.4455 6.5683 16.57 6.54303 16.6923 6.55996C16.7636 6.57008 16.8321 6.59447 16.8938 6.63168C16.9555 6.66889 17.009 6.71815 17.0512 6.77652V6.77652Z"/>
</mask>
<path d="M15.5218 6.69277L14.3821 9.78592L13.4383 8.84215C13.0066 8.41153 12.6688 7.89625 12.4459 7.32872L10.2581 1.7755C10.1425 1.49563 9.9226 1.27167 9.6449 1.15096C9.3672 1.03024 9.05345 1.02224 8.76995 1.12864C8.48646 1.23503 8.25544 1.44749 8.12573 1.72111C7.99603 1.99472 7.97779 2.30805 8.07488 2.59486L9.27917 5.96467L6.38909 1.97416C6.21599 1.73584 5.95738 1.57376 5.66743 1.52185C5.37749 1.46995 5.07871 1.53225 4.83368 1.69571C4.58865 1.85917 4.41637 2.1111 4.35294 2.39874C4.2895 2.68638 4.33983 2.98741 4.49339 3.23877L7.11079 7.51301L3.9193 4.58758C3.73603 4.41898 3.49541 4.32653 3.2464 4.32904C2.99739 4.33154 2.75868 4.42881 2.57883 4.60106C2.39898 4.7733 2.2915 5.00759 2.27826 5.25626C2.26501 5.50494 2.34699 5.74932 2.50752 5.9397L5.82407 9.89L2.61999 8.35602C2.39086 8.24688 2.12908 8.2278 1.88654 8.30257C1.64401 8.37734 1.43841 8.5405 1.3105 8.75971C1.18259 8.97892 1.14169 9.23819 1.19593 9.48612C1.25016 9.73406 1.39556 9.95258 1.60331 10.0984L5.07498 12.5288C5.30664 12.6912 5.49723 12.9054 5.63161 13.1544C6.51268 14.7951 7.72247 16.2366 9.18548 17.3889L10.626 18.5262C10.9912 18.8144 11.3053 19.1619 11.5552 19.5544L12.696 21.3476C12.7212 21.387 12.7548 21.4204 12.7946 21.4451C12.8343 21.4698 12.8791 21.4853 12.9256 21.4904C12.9721 21.4955 13.0191 21.4901 13.0633 21.4746C13.1074 21.4591 13.1475 21.4339 13.1806 21.4008L16.7162 17.8653C16.7671 17.8143 16.7989 17.7474 16.8062 17.6757C16.8134 17.604 16.7957 17.532 16.7559 17.4719L16.4552 17.0214C16.3105 16.8052 16.2284 16.5532 16.2181 16.2933C16.2077 16.0333 16.2695 15.7756 16.3966 15.5486L16.9992 14.4634C17.7417 13.1252 17.9845 11.5667 17.6842 10.0661C17.5455 9.37417 17.534 8.66272 17.6504 7.96666L17.7645 7.28519C17.79 7.13199 17.7847 6.97522 17.7488 6.82411C17.7128 6.673 17.6471 6.53059 17.5554 6.40526C17.4636 6.27992 17.3478 6.17419 17.2146 6.09428C17.0814 6.01437 16.9336 5.96189 16.7798 5.93992C16.5158 5.90353 16.2472 5.9583 16.0185 6.09518C15.7897 6.23206 15.6145 6.44286 15.5218 6.69277V6.69277ZM5.0257 2.91417C4.95701 2.80055 4.93478 2.66482 4.96366 2.53523C4.99253 2.40564 5.07028 2.29218 5.18072 2.21848C5.29115 2.14478 5.42576 2.11652 5.55651 2.13958C5.68726 2.16265 5.80408 2.23526 5.88263 2.34229L9.91049 7.90457C9.73547 7.9876 9.56902 8.08759 9.41352 8.2031L8.9844 8.52528C8.86485 8.61477 8.75216 8.71333 8.63504 8.80702L5.0257 2.91417ZM2.9857 5.53709C2.92757 5.4682 2.89787 5.37976 2.90265 5.28975C2.90743 5.19974 2.94632 5.11493 3.01143 5.05259C3.07653 4.99025 3.16294 4.95506 3.25307 4.95418C3.3432 4.9533 3.43028 4.9868 3.49659 5.04786L8.10074 9.2684C7.98583 9.37447 7.86982 9.4759 7.76066 9.58506C7.50868 9.83785 7.27898 10.1119 7.0741 10.4042L2.9857 5.53709ZM17.0512 6.77652C17.0939 6.83437 17.1246 6.90024 17.1415 6.9702C17.1583 7.04016 17.1609 7.11279 17.1491 7.18377L17.035 7.86524C16.906 8.63615 16.9186 9.42414 17.0724 10.1905C17.343 11.5455 17.1234 12.9527 16.4526 14.1607L15.85 15.2459C15.667 15.5733 15.5782 15.9449 15.5935 16.3197C15.6088 16.6944 15.7276 17.0576 15.9366 17.369L16.093 17.6045L13.0142 20.6833L12.0824 19.2189C11.7949 18.7669 11.4332 18.3666 11.0125 18.035L9.57218 16.8979C8.17627 15.7984 7.02199 14.4229 6.18138 12.8574C6.00052 12.5224 5.74404 12.2341 5.43229 12.0155L1.9615 9.58594C1.88177 9.53032 1.82589 9.44672 1.805 9.35177C1.7841 9.25683 1.79972 9.1575 1.84875 9.07354C1.89777 8.98959 1.9766 8.92717 2.06956 8.89871C2.16252 8.87025 2.26279 8.87782 2.35041 8.91993L6.70177 11.001C6.52277 11.3272 6.37345 11.6688 6.25563 12.0217C6.22937 12.1003 6.23544 12.1862 6.27248 12.2604C6.30953 12.3346 6.37453 12.391 6.45318 12.4172C6.53182 12.4435 6.61768 12.4374 6.69186 12.4004C6.76604 12.3633 6.82246 12.2983 6.84871 12.2197C7.12449 11.394 7.58791 10.6434 8.2026 10.027C8.5642 9.66567 8.95083 9.33029 9.35961 9.02335L9.78895 8.70139C10.1943 8.39869 10.6864 8.23466 11.1923 8.2336C11.2743 8.23217 11.3524 8.19863 11.4098 8.14019C11.4672 8.08175 11.4994 8.00308 11.4994 7.92114C11.4994 7.83921 11.4672 7.76054 11.4098 7.7021C11.3524 7.64366 11.2743 7.61012 11.1923 7.60869C10.9777 7.6095 10.7638 7.63373 10.5544 7.68095L8.66178 2.38627C8.61129 2.2518 8.61629 2.10278 8.67567 1.97199C8.73506 1.84121 8.84396 1.73937 8.97843 1.68888C9.1129 1.63839 9.26192 1.64339 9.3927 1.70277C9.52349 1.76216 9.62533 1.87106 9.67582 2.00553L11.8648 7.55809C12.1189 8.20528 12.5042 8.79292 12.9963 9.28409L14.2855 10.5732C14.3226 10.6103 14.3684 10.6375 14.4187 10.6522C14.469 10.6669 14.5223 10.6687 14.5735 10.6575C14.6247 10.6462 14.6723 10.6223 14.7118 10.5878C14.7513 10.5534 14.7816 10.5095 14.7997 10.4603L16.1089 6.90821C16.1521 6.79249 16.2334 6.69492 16.3394 6.63161C16.4455 6.5683 16.57 6.54303 16.6923 6.55996C16.7636 6.57008 16.8321 6.59447 16.8938 6.63168C16.9555 6.66889 17.009 6.71815 17.0512 6.77652V6.77652Z" fill="#87B1CA"/>
<path d="M15.5218 6.69277L14.3821 9.78592L13.4383 8.84215C13.0066 8.41153 12.6688 7.89625 12.4459 7.32872L10.2581 1.7755C10.1425 1.49563 9.9226 1.27167 9.6449 1.15096C9.3672 1.03024 9.05345 1.02224 8.76995 1.12864C8.48646 1.23503 8.25544 1.44749 8.12573 1.72111C7.99603 1.99472 7.97779 2.30805 8.07488 2.59486L9.27917 5.96467L6.38909 1.97416C6.21599 1.73584 5.95738 1.57376 5.66743 1.52185C5.37749 1.46995 5.07871 1.53225 4.83368 1.69571C4.58865 1.85917 4.41637 2.1111 4.35294 2.39874C4.2895 2.68638 4.33983 2.98741 4.49339 3.23877L7.11079 7.51301L3.9193 4.58758C3.73603 4.41898 3.49541 4.32653 3.2464 4.32904C2.99739 4.33154 2.75868 4.42881 2.57883 4.60106C2.39898 4.7733 2.2915 5.00759 2.27826 5.25626C2.26501 5.50494 2.34699 5.74932 2.50752 5.9397L5.82407 9.89L2.61999 8.35602C2.39086 8.24688 2.12908 8.2278 1.88654 8.30257C1.64401 8.37734 1.43841 8.5405 1.3105 8.75971C1.18259 8.97892 1.14169 9.23819 1.19593 9.48612C1.25016 9.73406 1.39556 9.95258 1.60331 10.0984L5.07498 12.5288C5.30664 12.6912 5.49723 12.9054 5.63161 13.1544C6.51268 14.7951 7.72247 16.2366 9.18548 17.3889L10.626 18.5262C10.9912 18.8144 11.3053 19.1619 11.5552 19.5544L12.696 21.3476C12.7212 21.387 12.7548 21.4204 12.7946 21.4451C12.8343 21.4698 12.8791 21.4853 12.9256 21.4904C12.9721 21.4955 13.0191 21.4901 13.0633 21.4746C13.1074 21.4591 13.1475 21.4339 13.1806 21.4008L16.7162 17.8653C16.7671 17.8143 16.7989 17.7474 16.8062 17.6757C16.8134 17.604 16.7957 17.532 16.7559 17.4719L16.4552 17.0214C16.3105 16.8052 16.2284 16.5532 16.2181 16.2933C16.2077 16.0333 16.2695 15.7756 16.3966 15.5486L16.9992 14.4634C17.7417 13.1252 17.9845 11.5667 17.6842 10.0661C17.5455 9.37417 17.534 8.66272 17.6504 7.96666L17.7645 7.28519C17.79 7.13199 17.7847 6.97522 17.7488 6.82411C17.7128 6.673 17.6471 6.53059 17.5554 6.40526C17.4636 6.27992 17.3478 6.17419 17.2146 6.09428C17.0814 6.01437 16.9336 5.96189 16.7798 5.93992C16.5158 5.90353 16.2472 5.9583 16.0185 6.09518C15.7897 6.23206 15.6145 6.44286 15.5218 6.69277V6.69277ZM5.0257 2.91417C4.95701 2.80055 4.93478 2.66482 4.96366 2.53523C4.99253 2.40564 5.07028 2.29218 5.18072 2.21848C5.29115 2.14478 5.42576 2.11652 5.55651 2.13958C5.68726 2.16265 5.80408 2.23526 5.88263 2.34229L9.91049 7.90457C9.73547 7.9876 9.56902 8.08759 9.41352 8.2031L8.9844 8.52528C8.86485 8.61477 8.75216 8.71333 8.63504 8.80702L5.0257 2.91417ZM2.9857 5.53709C2.92757 5.4682 2.89787 5.37976 2.90265 5.28975C2.90743 5.19974 2.94632 5.11493 3.01143 5.05259C3.07653 4.99025 3.16294 4.95506 3.25307 4.95418C3.3432 4.9533 3.43028 4.9868 3.49659 5.04786L8.10074 9.2684C7.98583 9.37447 7.86982 9.4759 7.76066 9.58506C7.50868 9.83785 7.27898 10.1119 7.0741 10.4042L2.9857 5.53709ZM17.0512 6.77652C17.0939 6.83437 17.1246 6.90024 17.1415 6.9702C17.1583 7.04016 17.1609 7.11279 17.1491 7.18377L17.035 7.86524C16.906 8.63615 16.9186 9.42414 17.0724 10.1905C17.343 11.5455 17.1234 12.9527 16.4526 14.1607L15.85 15.2459C15.667 15.5733 15.5782 15.9449 15.5935 16.3197C15.6088 16.6944 15.7276 17.0576 15.9366 17.369L16.093 17.6045L13.0142 20.6833L12.0824 19.2189C11.7949 18.7669 11.4332 18.3666 11.0125 18.035L9.57218 16.8979C8.17627 15.7984 7.02199 14.4229 6.18138 12.8574C6.00052 12.5224 5.74404 12.2341 5.43229 12.0155L1.9615 9.58594C1.88177 9.53032 1.82589 9.44672 1.805 9.35177C1.7841 9.25683 1.79972 9.1575 1.84875 9.07354C1.89777 8.98959 1.9766 8.92717 2.06956 8.89871C2.16252 8.87025 2.26279 8.87782 2.35041 8.91993L6.70177 11.001C6.52277 11.3272 6.37345 11.6688 6.25563 12.0217C6.22937 12.1003 6.23544 12.1862 6.27248 12.2604C6.30953 12.3346 6.37453 12.391 6.45318 12.4172C6.53182 12.4435 6.61768 12.4374 6.69186 12.4004C6.76604 12.3633 6.82246 12.2983 6.84871 12.2197C7.12449 11.394 7.58791 10.6434 8.2026 10.027C8.5642 9.66567 8.95083 9.33029 9.35961 9.02335L9.78895 8.70139C10.1943 8.39869 10.6864 8.23466 11.1923 8.2336C11.2743 8.23217 11.3524 8.19863 11.4098 8.14019C11.4672 8.08175 11.4994 8.00308 11.4994 7.92114C11.4994 7.83921 11.4672 7.76054 11.4098 7.7021C11.3524 7.64366 11.2743 7.61012 11.1923 7.60869C10.9777 7.6095 10.7638 7.63373 10.5544 7.68095L8.66178 2.38627C8.61129 2.2518 8.61629 2.10278 8.67567 1.97199C8.73506 1.84121 8.84396 1.73937 8.97843 1.68888C9.1129 1.63839 9.26192 1.64339 9.3927 1.70277C9.52349 1.76216 9.62533 1.87106 9.67582 2.00553L11.8648 7.55809C12.1189 8.20528 12.5042 8.79292 12.9963 9.28409L14.2855 10.5732C14.3226 10.6103 14.3684 10.6375 14.4187 10.6522C14.469 10.6669 14.5223 10.6687 14.5735 10.6575C14.6247 10.6462 14.6723 10.6223 14.7118 10.5878C14.7513 10.5534 14.7816 10.5095 14.7997 10.4603L16.1089 6.90821C16.1521 6.79249 16.2334 6.69492 16.3394 6.63161C16.4455 6.5683 16.57 6.54303 16.6923 6.55996C16.7636 6.57008 16.8321 6.59447 16.8938 6.63168C16.9555 6.66889 17.009 6.71815 17.0512 6.77652V6.77652Z" stroke="#87B1CA" stroke-width="0.3" mask="url(#path-1-outside-1_6342_12106)"/>
<path d="M11.9304 9.49851L11.9303 9.49859L11.5174 9.98482C10.9183 10.6934 10.4759 11.5208 10.2193 12.4125C9.96276 13.3043 9.89779 14.2402 10.0287 15.1588L11.9304 9.49851ZM11.9304 9.49851C11.9634 9.45956 11.9883 9.41451 12.0039 9.36591C12.0195 9.31731 12.0253 9.26613 12.0211 9.21527C12.0169 9.16442 12.0027 9.11489 11.9793 9.06953C11.9559 9.02416 11.9239 8.98384 11.8849 8.95086C11.846 8.91789 11.8009 8.89291 11.7523 8.87735C11.7037 8.86179 11.6525 8.85595 11.6017 8.86017C11.5508 8.86439 11.5013 8.87859 11.4559 8.90195C11.4106 8.92531 11.3703 8.95737 11.3373 8.99632L11.3373 8.99635M11.9304 9.49851L11.3373 8.99635M11.3373 8.99635L10.9251 9.48359L10.9251 9.48361M11.3373 8.99635L10.9251 9.48361M10.9251 9.48361C10.2554 10.2759 9.76093 11.2009 9.4742 12.198C9.18747 13.195 9.11498 14.2414 9.26149 15.2684L9.26149 15.2684M10.9251 9.48361L9.26149 15.2684M9.26149 15.2684C9.26868 15.3188 9.28573 15.3673 9.31166 15.4111M9.26149 15.2684L9.31166 15.4111M9.31166 15.4111C9.33759 15.4548 9.37188 15.4931 9.41259 15.5236M9.31166 15.4111L9.41259 15.5236M9.41259 15.5236C9.4533 15.5542 9.49963 15.5764 9.54892 15.589M9.41259 15.5236L9.54892 15.589M9.54892 15.589C9.59822 15.6016 9.64952 15.6044 9.69989 15.5972M9.54892 15.589L9.69989 15.5972M9.69989 15.5972C9.75027 15.59 9.79873 15.573 9.84252 15.5471M9.69989 15.5972L9.84252 15.5471M9.84252 15.5471C9.88631 15.5211 9.92456 15.4868 9.95509 15.4461M9.84252 15.5471L9.95509 15.4461M9.95509 15.4461C10.0168 15.3639 10.0432 15.2606 10.0287 15.1589L9.95509 15.4461Z" fill="#87B1CA" stroke="#87B1CA" stroke-width="0.15"/>
<path d="M13.1359 14.7966L13.5171 15.4632L13.5171 15.4632C13.5424 15.5074 13.5587 15.5561 13.5651 15.6066C13.5715 15.6571 13.5679 15.7084 13.5546 15.7575C13.5412 15.8066 13.5182 15.8526 13.4871 15.8928C13.4559 15.9331 13.4172 15.9668 13.373 15.992C13.3288 16.0173 13.2801 16.0336 13.2296 16.04C13.1791 16.0465 13.1278 16.0429 13.0787 16.0295C13.0296 16.0161 12.9836 15.9932 12.9434 15.962C12.9031 15.9309 12.8694 15.8921 12.8442 15.8479L12.8442 15.8479L12.4632 15.181L12.4632 15.181C11.9999 14.3699 11.7128 13.4703 11.6206 12.5408C11.5284 11.6113 11.6331 10.6728 11.9279 9.78655L11.9663 9.67132L11.9801 9.68515C11.9873 9.67493 11.9951 9.66506 12.0034 9.65556C12.0367 9.61712 12.0773 9.58562 12.1229 9.56288C12.1684 9.54013 12.218 9.52658 12.2688 9.523C12.3196 9.51941 12.3705 9.52586 12.4188 9.54198C12.4671 9.5581 12.5117 9.58357 12.5502 9.61694C12.5886 9.65031 12.6201 9.69093 12.6429 9.73647C12.6656 9.78201 12.6792 9.83158 12.6827 9.88236C12.6863 9.93312 12.6799 9.9841 12.6638 10.0324M13.1359 14.7966L13.1359 14.7966M13.1359 14.7966L13.1359 14.7966M13.1359 14.7966L13.1359 14.7966M12.6638 10.0324C12.6638 10.0324 12.6638 10.0324 12.6638 10.0324L12.5926 10.0087L12.6638 10.0323C12.6638 10.0323 12.6638 10.0324 12.6638 10.0324ZM12.6638 10.0324C12.4034 10.8151 12.3108 11.6439 12.3922 12.4648C12.4735 13.2856 12.727 14.0802 13.1359 14.7966" fill="#87B1CA" stroke="#87B1CA" stroke-width="0.15"/>
<path d="M3.51095 13.9408C3.58362 13.8682 3.62445 13.7696 3.62445 13.6668C3.62445 13.5641 3.58362 13.4655 3.51095 13.3928L3.28998 13.1719C3.21731 13.0992 3.11875 13.0584 3.01598 13.0584C2.91321 13.0584 2.81464 13.0992 2.74197 13.1719C2.6693 13.2445 2.62848 13.3431 2.62848 13.4459C2.62848 13.5486 2.6693 13.6472 2.74197 13.7199L2.96294 13.9408C3.03561 14.0135 3.13418 14.0543 3.23695 14.0543C3.33972 14.0543 3.43828 14.0135 3.51095 13.9408Z" fill="#87B1CA" stroke="#87B1CA" stroke-width="0.15"/>
<path d="M3.84682 14.2767C3.77415 14.3494 3.73332 14.4479 3.73332 14.5507C3.73332 14.6535 3.77415 14.752 3.84682 14.8247L4.06779 15.0457C4.14046 15.1184 4.23902 15.1592 4.34179 15.1592C4.44456 15.1592 4.54313 15.1184 4.6158 15.0457C4.68847 14.973 4.72929 14.8745 4.72929 14.7717C4.72929 14.6689 4.68847 14.5703 4.6158 14.4977L4.39482 14.2767C4.32215 14.204 4.22359 14.1632 4.12082 14.1632C4.01805 14.1632 3.91949 14.204 3.84682 14.2767Z" fill="#87B1CA" stroke="#87B1CA" stroke-width="0.15"/>
<path d="M4.06779 13.1719L3.84682 13.3928C3.77415 13.4655 3.73332 13.5641 3.73332 13.6668C3.73332 13.7696 3.77415 13.8682 3.84682 13.9408C3.91949 14.0135 4.01805 14.0543 4.12082 14.0543C4.22359 14.0543 4.32215 14.0135 4.39482 13.9408L4.6158 13.7199C4.68847 13.6472 4.72929 13.5486 4.72929 13.4459C4.72929 13.3431 4.68847 13.2445 4.6158 13.1719C4.54312 13.0992 4.44456 13.0584 4.34179 13.0584C4.23902 13.0584 4.14046 13.0992 4.06779 13.1719Z" fill="#87B1CA" stroke="#87B1CA" stroke-width="0.15"/>
<path d="M2.96294 14.2767L2.74197 14.4977C2.6693 14.5703 2.62848 14.6689 2.62848 14.7717C2.62848 14.8745 2.6693 14.973 2.74197 15.0457C2.81464 15.1184 2.91321 15.1592 3.01598 15.1592C3.11875 15.1592 3.21731 15.1184 3.28998 15.0457L3.51095 14.8247C3.58362 14.752 3.62445 14.6535 3.62445 14.5507C3.62445 14.4479 3.58362 14.3494 3.51095 14.2767C3.43828 14.204 3.33972 14.1632 3.23695 14.1632C3.13418 14.1632 3.03561 14.204 2.96294 14.2767Z" fill="#87B1CA" stroke="#87B1CA" stroke-width="0.15"/>
<path d="M11.9078 0.682582C11.9805 0.609911 12.0213 0.511349 12.0213 0.408577C12.0213 0.305806 11.9805 0.207244 11.9078 0.134574L11.6869 -0.0863971C11.6142 -0.159067 11.5156 -0.199893 11.4129 -0.199893C11.3101 -0.199893 11.2115 -0.159067 11.1389 -0.0863971C11.0662 -0.0137267 11.0254 0.0848356 11.0254 0.187607C11.0254 0.290379 11.0662 0.38894 11.1389 0.461611L11.3598 0.682582C11.4325 0.755252 11.5311 0.796078 11.6338 0.796078C11.7366 0.796078 11.8352 0.755252 11.9078 0.682582Z" fill="#87B1CA" stroke="#87B1CA" stroke-width="0.15"/>
<path d="M12.2437 1.01846C12.171 1.09113 12.1302 1.18969 12.1302 1.29247C12.1302 1.39524 12.171 1.4938 12.2437 1.56647L12.4647 1.78744C12.5374 1.86011 12.6359 1.90094 12.7387 1.90094C12.8415 1.90094 12.94 1.86011 13.0127 1.78744C13.0854 1.71477 13.1262 1.61621 13.1262 1.51344C13.1262 1.41066 13.0854 1.3121 13.0127 1.23943L12.7917 1.01846C12.7191 0.945791 12.6205 0.904965 12.5177 0.904965C12.4149 0.904965 12.3164 0.945791 12.2437 1.01846Z" fill="#87B1CA" stroke="#87B1CA" stroke-width="0.15"/>
<path d="M12.4647 -0.0863978L12.2437 0.134573C12.171 0.207243 12.1302 0.305806 12.1302 0.408577C12.1302 0.511349 12.171 0.609911 12.2437 0.682581C12.3164 0.755251 12.4149 0.796077 12.5177 0.796077C12.6205 0.796077 12.7191 0.755251 12.7917 0.682581L13.0127 0.46161C13.0854 0.38894 13.1262 0.290377 13.1262 0.187606C13.1262 0.0848344 13.0854 -0.0137276 13.0127 -0.0863978C12.94 -0.159068 12.8415 -0.199894 12.7387 -0.199894C12.6359 -0.199894 12.5374 -0.159068 12.4647 -0.0863978Z" fill="#87B1CA" stroke="#87B1CA" stroke-width="0.15"/>
<path d="M11.6869 1.78744L11.9078 1.56647C11.9805 1.4938 12.0213 1.39524 12.0213 1.29246C12.0213 1.18969 11.9805 1.09113 11.9078 1.01846C11.8352 0.94579 11.7366 0.904964 11.6338 0.904964C11.5311 0.904964 11.4325 0.94579 11.3598 1.01846L11.1389 1.23943C11.0662 1.3121 11.0254 1.41066 11.0254 1.51344C11.0254 1.61621 11.0662 1.71477 11.1389 1.78744C11.2115 1.86011 11.3101 1.90094 11.4129 1.90094C11.5156 1.90094 11.6142 1.86011 11.6869 1.78744Z" fill="#87B1CA" stroke="#87B1CA" stroke-width="0.15"/>
<path d="M19.4208 11.7311C19.4935 11.6585 19.5343 11.5599 19.5343 11.4571C19.5343 11.3544 19.4935 11.2558 19.4208 11.1831L19.1999 10.9621C19.1272 10.8895 19.0286 10.8487 18.9259 10.8487C18.8231 10.8487 18.7245 10.8895 18.6519 10.9621C18.5792 11.0348 18.5384 11.1334 18.5384 11.2362C18.5384 11.3389 18.5792 11.4375 18.6519 11.5102L18.8728 11.7311C18.9455 11.8038 19.0441 11.8446 19.1468 11.8446C19.2496 11.8446 19.3482 11.8038 19.4208 11.7311Z" fill="#87B1CA" stroke="#87B1CA" stroke-width="0.15"/>
<path d="M19.7567 12.067C19.6841 12.1397 19.6432 12.2382 19.6432 12.341C19.6432 12.4438 19.6841 12.5423 19.7567 12.615L19.9777 12.836C20.0504 12.9086 20.1489 12.9495 20.2517 12.9495C20.3545 12.9495 20.453 12.9086 20.5257 12.836C20.5984 12.7633 20.6392 12.6647 20.6392 12.562C20.6392 12.4592 20.5984 12.3606 20.5257 12.288L20.3047 12.067C20.2321 11.9943 20.1335 11.9535 20.0307 11.9535C19.928 11.9535 19.8294 11.9943 19.7567 12.067Z" fill="#87B1CA" stroke="#87B1CA" stroke-width="0.15"/>
<path d="M19.9777 10.9621L19.7567 11.1831C19.6841 11.2558 19.6432 11.3544 19.6432 11.4571C19.6432 11.5599 19.6841 11.6585 19.7567 11.7311C19.8294 11.8038 19.928 11.8446 20.0307 11.8446C20.1335 11.8446 20.2321 11.8038 20.3047 11.7311L20.5257 11.5102C20.5984 11.4375 20.6392 11.3389 20.6392 11.2362C20.6392 11.1334 20.5984 11.0348 20.5257 10.9621C20.453 10.8895 20.3545 10.8487 20.2517 10.8487C20.1489 10.8487 20.0504 10.8895 19.9777 10.9621Z" fill="#87B1CA" stroke="#87B1CA" stroke-width="0.15"/>
<path d="M18.8728 12.067L18.6519 12.288C18.5792 12.3606 18.5384 12.4592 18.5384 12.562C18.5384 12.6647 18.5792 12.7633 18.6519 12.836C18.7245 12.9086 18.8231 12.9495 18.9259 12.9495C19.0286 12.9495 19.1272 12.9086 19.1999 12.836L19.4208 12.615C19.4935 12.5423 19.5343 12.4438 19.5343 12.341C19.5343 12.2382 19.4935 12.1397 19.4208 12.067C19.3482 11.9943 19.2496 11.9535 19.1468 11.9535C19.0441 11.9535 18.9455 11.9943 18.8728 12.067Z" fill="#87B1CA" stroke="#87B1CA" stroke-width="0.15"/>
</g>
<defs>
<clipPath id="clip0_6342_12106">
<rect width="20" height="20" fill="white"/>
</clipPath>
</defs>
</svg>
