<svg width="20" height="20" viewBox="0 0 20 20" fill="none" xmlns="http://www.w3.org/2000/svg">
<g clip-path="url(#clip0_6263_12790)">
<mask id="path-1-outside-1_6263_12790" maskUnits="userSpaceOnUse" x="-5.44633" y="-4.95903" width="30.4056" height="30.4056" fill="black">
<rect fill="white" x="-5.44633" y="-4.95903" width="30.4056" height="30.4056"/>
<path d="M10.8128 -2.9934C10.683 -3.01945 10.5462 -2.991 10.4378 -2.91543L8.4033 -1.49953C8.29605 -1.42503 8.22437 -1.31336 8.20133 -1.18476C8.17838 -1.05651 8.20669 -0.926883 8.28118 -0.819629L10.0703 1.75087C8.82149 1.13571 7.38623 0.953468 6.01692 1.2483C3.80374 1.72084 2.04224 3.36473 1.38775 5.47945C1.33991 5.63402 1.42645 5.79812 1.58099 5.84593C1.73559 5.8938 1.89968 5.80726 1.94747 5.65269C2.49722 3.87644 3.90458 2.47361 5.70732 1.9324C5.10959 3.19563 4.52402 4.73983 4.13074 6.10494C3.7246 7.51478 3.32961 9.40873 3.74556 10.4458C3.74637 10.448 3.74711 10.4501 3.74794 10.4523L2.52097 10.2563C1.91902 9.27247 1.63087 8.1016 1.70841 6.94413C1.71921 6.78268 1.59712 6.64303 1.43567 6.63223C1.27423 6.62143 1.13457 6.74351 1.12377 6.90496C1.05077 7.99515 1.27188 9.09627 1.75119 10.0709L-0.820136 8.2813C-0.927169 8.20692 -1.05677 8.17864 -1.18504 8.20162C-1.31362 8.22463 -1.4254 8.29636 -1.49954 8.4032L-2.9156 10.4379C-2.99126 10.5464 -3.01974 10.6832 -2.99369 10.8131C-2.96759 10.9431 -2.88845 11.0584 -2.77606 11.1297L3.3945 15.032C4.13867 15.503 5.02847 15.6889 5.9 15.5555L10.2788 14.8843C10.4228 14.8621 10.5499 14.7939 10.6468 14.6969C10.6766 14.6671 10.7029 14.6341 10.7266 14.5994L11.5188 15.3916C11.5781 15.4508 11.5913 15.5401 11.5517 15.6141C11.4526 15.7992 11.344 15.9935 11.2289 16.1992C10.7425 17.0689 10.1911 18.0546 9.95725 19.0629C9.67606 20.2753 9.93289 21.2894 10.7206 22.0771L10.917 22.2735C11.1794 22.5359 11.6064 22.5359 11.8688 22.2735L22.2733 11.869C22.5357 11.6066 22.5357 11.1796 22.2733 10.9172L22.0769 10.7208C21.1773 9.82125 20.0306 9.6168 18.5712 10.0958C18.4175 10.1462 18.3338 10.3118 18.3842 10.4655C18.4347 10.6193 18.6002 10.703 18.754 10.6525C20 10.2435 20.9243 10.3969 21.6625 11.1351L21.8589 11.3315C21.8929 11.3655 21.8929 11.4207 21.8589 11.4547L11.4545 21.8592C11.4205 21.8931 11.3653 21.8931 11.3313 21.8592L11.1349 21.6628C9.66595 20.1938 10.8161 18.1375 11.7403 16.4852C11.8567 16.2771 11.9667 16.0805 12.0682 15.8907C12.2307 15.5877 12.1764 15.2205 11.9331 14.9773L10.7441 13.7883C10.7274 13.7469 10.7088 13.7064 10.6884 13.6671C11.4897 13.4059 12.1881 13.0219 12.6049 12.6052C13.0215 12.1885 13.4056 11.4901 13.667 10.6888C13.7064 10.7091 13.7467 10.7277 13.7881 10.7444L14.977 11.9334C15.2203 12.1767 15.5874 12.2309 15.8903 12.0686C16.0808 11.9666 16.2781 11.8563 16.487 11.7395C16.8209 11.5528 17.1662 11.3596 17.5249 11.178C17.5533 11.1636 17.5784 11.1452 17.5998 11.1238C17.6869 11.0367 17.7126 10.9002 17.6539 10.7843C17.5808 10.6399 17.4046 10.5822 17.2602 10.6553C16.8907 10.8424 16.5401 11.0384 16.201 11.2281C15.9946 11.3435 15.7996 11.4525 15.6137 11.552C15.5399 11.5916 15.4506 11.5783 15.3914 11.5191L14.5991 10.7268C14.6338 10.7031 14.6669 10.6768 14.6967 10.647C14.7936 10.55 14.8619 10.4229 14.8841 10.2788L15.5553 5.90018C15.6887 5.0287 15.5028 4.13887 15.0319 3.39478L11.1292 -2.7763C11.0581 -2.88819 10.9428 -2.96733 10.8128 -2.9934V-2.9934ZM10.2561 2.52112L10.4519 3.74684C8.85847 2.9603 6.91371 3.25657 5.62114 4.54913L5.05705 5.11322C5.50946 3.78377 6.03283 2.57865 6.44069 1.76509C7.79994 1.54965 9.15722 1.84815 10.2561 2.52112V2.52112ZM10.1898 14.3052L5.81131 14.9763C5.07962 15.0884 4.33257 14.9323 3.70781 14.5369L-2.37657 10.6891L-1.07447 8.81815L1.58762 10.671C1.6238 10.6962 1.66521 10.7129 1.70877 10.7198L4.8025 11.2142L6.40973 12.3331C6.56037 12.4377 6.62084 12.6311 6.55695 12.803C6.5451 12.8349 6.52933 12.8652 6.51021 12.8926C6.38351 13.0744 6.13211 13.1196 5.95005 12.9931L4.2878 11.8363C4.15497 11.7439 3.9722 11.7768 3.87997 11.9094C3.78755 12.0422 3.82028 12.2248 3.95308 12.3173L5.6155 13.4741C6.03156 13.7633 6.59435 13.6878 6.92172 13.3159C7.01596 13.37 7.07747 13.4451 7.20431 13.4464L9.41457 13.4696C9.84179 13.4741 10.2038 13.7972 10.2567 14.2213C10.2617 14.2611 10.2316 14.2987 10.1898 14.3052V14.3052ZM10.279 13.1801C10.0387 12.9968 9.7407 12.8871 9.42081 12.8837L7.29687 12.8615L7.16213 12.7725C7.20177 12.4185 7.04701 12.0624 6.74425 11.8521L5.08227 10.6951C5.04609 10.6699 5.00466 10.6532 4.9611 10.6462L4.48626 10.5703C4.41464 10.4604 4.34843 10.3451 4.28855 10.2261C4.01827 9.55092 4.15107 8.18781 4.66248 6.37742C4.89842 6.07303 5.00499 5.99967 6.03543 4.96348C7.249 3.74317 9.14079 3.55507 10.5703 4.48746L10.646 4.9613C10.6529 5.00483 10.6696 5.04624 10.6948 5.08242L11.8516 6.74459C12.0654 7.05182 12.4236 7.2002 12.7719 7.16206L12.8611 7.29716L12.8834 9.4211C12.8868 9.74112 12.9965 10.0392 13.18 10.2796C12.9494 11.0816 12.5767 11.8049 12.1906 12.1909C11.8044 12.5771 11.081 12.9498 10.279 13.1801V13.1801ZM14.5367 3.70812C14.9321 4.3328 15.0881 5.07985 14.9761 5.81148L14.3049 10.1898C14.2985 10.2318 14.2608 10.2619 14.2208 10.2569C13.7969 10.2041 13.4739 9.84208 13.4694 9.41486L13.4462 7.2046C13.4448 7.07757 13.3697 7.01625 13.3155 6.92189C13.6873 6.59521 13.7633 6.03174 13.4737 5.61565L12.3169 3.95351C12.2245 3.8207 12.0419 3.78794 11.9091 3.88039C11.7763 3.97284 11.7435 4.15539 11.836 4.28822L12.9928 5.95037C13.1195 6.13239 13.0745 6.38339 12.8924 6.51022C12.8652 6.52914 12.8364 6.54422 12.8068 6.5556C12.8042 6.55652 12.8016 6.55748 12.7991 6.55848C12.6321 6.61864 12.4386 6.56229 12.3325 6.40982L11.214 4.80264L10.7196 1.70897C10.7126 1.66544 10.6959 1.62403 10.6707 1.58782L8.8179 -1.07427L10.6888 -2.37637L14.5367 3.70812Z"/>
</mask>
<path d="M10.8128 -2.9934C10.683 -3.01945 10.5462 -2.991 10.4378 -2.91543L8.4033 -1.49953C8.29605 -1.42503 8.22437 -1.31336 8.20133 -1.18476C8.17838 -1.05651 8.20669 -0.926883 8.28118 -0.819629L10.0703 1.75087C8.82149 1.13571 7.38623 0.953468 6.01692 1.2483C3.80374 1.72084 2.04224 3.36473 1.38775 5.47945C1.33991 5.63402 1.42645 5.79812 1.58099 5.84593C1.73559 5.8938 1.89968 5.80726 1.94747 5.65269C2.49722 3.87644 3.90458 2.47361 5.70732 1.9324C5.10959 3.19563 4.52402 4.73983 4.13074 6.10494C3.7246 7.51478 3.32961 9.40873 3.74556 10.4458C3.74637 10.448 3.74711 10.4501 3.74794 10.4523L2.52097 10.2563C1.91902 9.27247 1.63087 8.1016 1.70841 6.94413C1.71921 6.78268 1.59712 6.64303 1.43567 6.63223C1.27423 6.62143 1.13457 6.74351 1.12377 6.90496C1.05077 7.99515 1.27188 9.09627 1.75119 10.0709L-0.820136 8.2813C-0.927169 8.20692 -1.05677 8.17864 -1.18504 8.20162C-1.31362 8.22463 -1.4254 8.29636 -1.49954 8.4032L-2.9156 10.4379C-2.99126 10.5464 -3.01974 10.6832 -2.99369 10.8131C-2.96759 10.9431 -2.88845 11.0584 -2.77606 11.1297L3.3945 15.032C4.13867 15.503 5.02847 15.6889 5.9 15.5555L10.2788 14.8843C10.4228 14.8621 10.5499 14.7939 10.6468 14.6969C10.6766 14.6671 10.7029 14.6341 10.7266 14.5994L11.5188 15.3916C11.5781 15.4508 11.5913 15.5401 11.5517 15.6141C11.4526 15.7992 11.344 15.9935 11.2289 16.1992C10.7425 17.0689 10.1911 18.0546 9.95725 19.0629C9.67606 20.2753 9.93289 21.2894 10.7206 22.0771L10.917 22.2735C11.1794 22.5359 11.6064 22.5359 11.8688 22.2735L22.2733 11.869C22.5357 11.6066 22.5357 11.1796 22.2733 10.9172L22.0769 10.7208C21.1773 9.82125 20.0306 9.6168 18.5712 10.0958C18.4175 10.1462 18.3338 10.3118 18.3842 10.4655C18.4347 10.6193 18.6002 10.703 18.754 10.6525C20 10.2435 20.9243 10.3969 21.6625 11.1351L21.8589 11.3315C21.8929 11.3655 21.8929 11.4207 21.8589 11.4547L11.4545 21.8592C11.4205 21.8931 11.3653 21.8931 11.3313 21.8592L11.1349 21.6628C9.66595 20.1938 10.8161 18.1375 11.7403 16.4852C11.8567 16.2771 11.9667 16.0805 12.0682 15.8907C12.2307 15.5877 12.1764 15.2205 11.9331 14.9773L10.7441 13.7883C10.7274 13.7469 10.7088 13.7064 10.6884 13.6671C11.4897 13.4059 12.1881 13.0219 12.6049 12.6052C13.0215 12.1885 13.4056 11.4901 13.667 10.6888C13.7064 10.7091 13.7467 10.7277 13.7881 10.7444L14.977 11.9334C15.2203 12.1767 15.5874 12.2309 15.8903 12.0686C16.0808 11.9666 16.2781 11.8563 16.487 11.7395C16.8209 11.5528 17.1662 11.3596 17.5249 11.178C17.5533 11.1636 17.5784 11.1452 17.5998 11.1238C17.6869 11.0367 17.7126 10.9002 17.6539 10.7843C17.5808 10.6399 17.4046 10.5822 17.2602 10.6553C16.8907 10.8424 16.5401 11.0384 16.201 11.2281C15.9946 11.3435 15.7996 11.4525 15.6137 11.552C15.5399 11.5916 15.4506 11.5783 15.3914 11.5191L14.5991 10.7268C14.6338 10.7031 14.6669 10.6768 14.6967 10.647C14.7936 10.55 14.8619 10.4229 14.8841 10.2788L15.5553 5.90018C15.6887 5.0287 15.5028 4.13887 15.0319 3.39478L11.1292 -2.7763C11.0581 -2.88819 10.9428 -2.96733 10.8128 -2.9934V-2.9934ZM10.2561 2.52112L10.4519 3.74684C8.85847 2.9603 6.91371 3.25657 5.62114 4.54913L5.05705 5.11322C5.50946 3.78377 6.03283 2.57865 6.44069 1.76509C7.79994 1.54965 9.15722 1.84815 10.2561 2.52112V2.52112ZM10.1898 14.3052L5.81131 14.9763C5.07962 15.0884 4.33257 14.9323 3.70781 14.5369L-2.37657 10.6891L-1.07447 8.81815L1.58762 10.671C1.6238 10.6962 1.66521 10.7129 1.70877 10.7198L4.8025 11.2142L6.40973 12.3331C6.56037 12.4377 6.62084 12.6311 6.55695 12.803C6.5451 12.8349 6.52933 12.8652 6.51021 12.8926C6.38351 13.0744 6.13211 13.1196 5.95005 12.9931L4.2878 11.8363C4.15497 11.7439 3.9722 11.7768 3.87997 11.9094C3.78755 12.0422 3.82028 12.2248 3.95308 12.3173L5.6155 13.4741C6.03156 13.7633 6.59435 13.6878 6.92172 13.3159C7.01596 13.37 7.07747 13.4451 7.20431 13.4464L9.41457 13.4696C9.84179 13.4741 10.2038 13.7972 10.2567 14.2213C10.2617 14.2611 10.2316 14.2987 10.1898 14.3052V14.3052ZM10.279 13.1801C10.0387 12.9968 9.7407 12.8871 9.42081 12.8837L7.29687 12.8615L7.16213 12.7725C7.20177 12.4185 7.04701 12.0624 6.74425 11.8521L5.08227 10.6951C5.04609 10.6699 5.00466 10.6532 4.9611 10.6462L4.48626 10.5703C4.41464 10.4604 4.34843 10.3451 4.28855 10.2261C4.01827 9.55092 4.15107 8.18781 4.66248 6.37742C4.89842 6.07303 5.00499 5.99967 6.03543 4.96348C7.249 3.74317 9.14079 3.55507 10.5703 4.48746L10.646 4.9613C10.6529 5.00483 10.6696 5.04624 10.6948 5.08242L11.8516 6.74459C12.0654 7.05182 12.4236 7.2002 12.7719 7.16206L12.8611 7.29716L12.8834 9.4211C12.8868 9.74112 12.9965 10.0392 13.18 10.2796C12.9494 11.0816 12.5767 11.8049 12.1906 12.1909C11.8044 12.5771 11.081 12.9498 10.279 13.1801V13.1801ZM14.5367 3.70812C14.9321 4.3328 15.0881 5.07985 14.9761 5.81148L14.3049 10.1898C14.2985 10.2318 14.2608 10.2619 14.2208 10.2569C13.7969 10.2041 13.4739 9.84208 13.4694 9.41486L13.4462 7.2046C13.4448 7.07757 13.3697 7.01625 13.3155 6.92189C13.6873 6.59521 13.7633 6.03174 13.4737 5.61565L12.3169 3.95351C12.2245 3.8207 12.0419 3.78794 11.9091 3.88039C11.7763 3.97284 11.7435 4.15539 11.836 4.28822L12.9928 5.95037C13.1195 6.13239 13.0745 6.38339 12.8924 6.51022C12.8652 6.52914 12.8364 6.54422 12.8068 6.5556C12.8042 6.55652 12.8016 6.55748 12.7991 6.55848C12.6321 6.61864 12.4386 6.56229 12.3325 6.40982L11.214 4.80264L10.7196 1.70897C10.7126 1.66544 10.6959 1.62403 10.6707 1.58782L8.8179 -1.07427L10.6888 -2.37637L14.5367 3.70812Z" fill="#87B1CA"/>
<path d="M10.8128 -2.9934C10.683 -3.01945 10.5462 -2.991 10.4378 -2.91543L8.4033 -1.49953C8.29605 -1.42503 8.22437 -1.31336 8.20133 -1.18476C8.17838 -1.05651 8.20669 -0.926883 8.28118 -0.819629L10.0703 1.75087C8.82149 1.13571 7.38623 0.953468 6.01692 1.2483C3.80374 1.72084 2.04224 3.36473 1.38775 5.47945C1.33991 5.63402 1.42645 5.79812 1.58099 5.84593C1.73559 5.8938 1.89968 5.80726 1.94747 5.65269C2.49722 3.87644 3.90458 2.47361 5.70732 1.9324C5.10959 3.19563 4.52402 4.73983 4.13074 6.10494C3.7246 7.51478 3.32961 9.40873 3.74556 10.4458C3.74637 10.448 3.74711 10.4501 3.74794 10.4523L2.52097 10.2563C1.91902 9.27247 1.63087 8.1016 1.70841 6.94413C1.71921 6.78268 1.59712 6.64303 1.43567 6.63223C1.27423 6.62143 1.13457 6.74351 1.12377 6.90496C1.05077 7.99515 1.27188 9.09627 1.75119 10.0709L-0.820136 8.2813C-0.927169 8.20692 -1.05677 8.17864 -1.18504 8.20162C-1.31362 8.22463 -1.4254 8.29636 -1.49954 8.4032L-2.9156 10.4379C-2.99126 10.5464 -3.01974 10.6832 -2.99369 10.8131C-2.96759 10.9431 -2.88845 11.0584 -2.77606 11.1297L3.3945 15.032C4.13867 15.503 5.02847 15.6889 5.9 15.5555L10.2788 14.8843C10.4228 14.8621 10.5499 14.7939 10.6468 14.6969C10.6766 14.6671 10.7029 14.6341 10.7266 14.5994L11.5188 15.3916C11.5781 15.4508 11.5913 15.5401 11.5517 15.6141C11.4526 15.7992 11.344 15.9935 11.2289 16.1992C10.7425 17.0689 10.1911 18.0546 9.95725 19.0629C9.67606 20.2753 9.93289 21.2894 10.7206 22.0771L10.917 22.2735C11.1794 22.5359 11.6064 22.5359 11.8688 22.2735L22.2733 11.869C22.5357 11.6066 22.5357 11.1796 22.2733 10.9172L22.0769 10.7208C21.1773 9.82125 20.0306 9.6168 18.5712 10.0958C18.4175 10.1462 18.3338 10.3118 18.3842 10.4655C18.4347 10.6193 18.6002 10.703 18.754 10.6525C20 10.2435 20.9243 10.3969 21.6625 11.1351L21.8589 11.3315C21.8929 11.3655 21.8929 11.4207 21.8589 11.4547L11.4545 21.8592C11.4205 21.8931 11.3653 21.8931 11.3313 21.8592L11.1349 21.6628C9.66595 20.1938 10.8161 18.1375 11.7403 16.4852C11.8567 16.2771 11.9667 16.0805 12.0682 15.8907C12.2307 15.5877 12.1764 15.2205 11.9331 14.9773L10.7441 13.7883C10.7274 13.7469 10.7088 13.7064 10.6884 13.6671C11.4897 13.4059 12.1881 13.0219 12.6049 12.6052C13.0215 12.1885 13.4056 11.4901 13.667 10.6888C13.7064 10.7091 13.7467 10.7277 13.7881 10.7444L14.977 11.9334C15.2203 12.1767 15.5874 12.2309 15.8903 12.0686C16.0808 11.9666 16.2781 11.8563 16.487 11.7395C16.8209 11.5528 17.1662 11.3596 17.5249 11.178C17.5533 11.1636 17.5784 11.1452 17.5998 11.1238C17.6869 11.0367 17.7126 10.9002 17.6539 10.7843C17.5808 10.6399 17.4046 10.5822 17.2602 10.6553C16.8907 10.8424 16.5401 11.0384 16.201 11.2281C15.9946 11.3435 15.7996 11.4525 15.6137 11.552C15.5399 11.5916 15.4506 11.5783 15.3914 11.5191L14.5991 10.7268C14.6338 10.7031 14.6669 10.6768 14.6967 10.647C14.7936 10.55 14.8619 10.4229 14.8841 10.2788L15.5553 5.90018C15.6887 5.0287 15.5028 4.13887 15.0319 3.39478L11.1292 -2.7763C11.0581 -2.88819 10.9428 -2.96733 10.8128 -2.9934V-2.9934ZM10.2561 2.52112L10.4519 3.74684C8.85847 2.9603 6.91371 3.25657 5.62114 4.54913L5.05705 5.11322C5.50946 3.78377 6.03283 2.57865 6.44069 1.76509C7.79994 1.54965 9.15722 1.84815 10.2561 2.52112V2.52112ZM10.1898 14.3052L5.81131 14.9763C5.07962 15.0884 4.33257 14.9323 3.70781 14.5369L-2.37657 10.6891L-1.07447 8.81815L1.58762 10.671C1.6238 10.6962 1.66521 10.7129 1.70877 10.7198L4.8025 11.2142L6.40973 12.3331C6.56037 12.4377 6.62084 12.6311 6.55695 12.803C6.5451 12.8349 6.52933 12.8652 6.51021 12.8926C6.38351 13.0744 6.13211 13.1196 5.95005 12.9931L4.2878 11.8363C4.15497 11.7439 3.9722 11.7768 3.87997 11.9094C3.78755 12.0422 3.82028 12.2248 3.95308 12.3173L5.6155 13.4741C6.03156 13.7633 6.59435 13.6878 6.92172 13.3159C7.01596 13.37 7.07747 13.4451 7.20431 13.4464L9.41457 13.4696C9.84179 13.4741 10.2038 13.7972 10.2567 14.2213C10.2617 14.2611 10.2316 14.2987 10.1898 14.3052V14.3052ZM10.279 13.1801C10.0387 12.9968 9.7407 12.8871 9.42081 12.8837L7.29687 12.8615L7.16213 12.7725C7.20177 12.4185 7.04701 12.0624 6.74425 11.8521L5.08227 10.6951C5.04609 10.6699 5.00466 10.6532 4.9611 10.6462L4.48626 10.5703C4.41464 10.4604 4.34843 10.3451 4.28855 10.2261C4.01827 9.55092 4.15107 8.18781 4.66248 6.37742C4.89842 6.07303 5.00499 5.99967 6.03543 4.96348C7.249 3.74317 9.14079 3.55507 10.5703 4.48746L10.646 4.9613C10.6529 5.00483 10.6696 5.04624 10.6948 5.08242L11.8516 6.74459C12.0654 7.05182 12.4236 7.2002 12.7719 7.16206L12.8611 7.29716L12.8834 9.4211C12.8868 9.74112 12.9965 10.0392 13.18 10.2796C12.9494 11.0816 12.5767 11.8049 12.1906 12.1909C11.8044 12.5771 11.081 12.9498 10.279 13.1801V13.1801ZM14.5367 3.70812C14.9321 4.3328 15.0881 5.07985 14.9761 5.81148L14.3049 10.1898C14.2985 10.2318 14.2608 10.2619 14.2208 10.2569C13.7969 10.2041 13.4739 9.84208 13.4694 9.41486L13.4462 7.2046C13.4448 7.07757 13.3697 7.01625 13.3155 6.92189C13.6873 6.59521 13.7633 6.03174 13.4737 5.61565L12.3169 3.95351C12.2245 3.8207 12.0419 3.78794 11.9091 3.88039C11.7763 3.97284 11.7435 4.15539 11.836 4.28822L12.9928 5.95037C13.1195 6.13239 13.0745 6.38339 12.8924 6.51022C12.8652 6.52914 12.8364 6.54422 12.8068 6.5556C12.8042 6.55652 12.8016 6.55748 12.7991 6.55848C12.6321 6.61864 12.4386 6.56229 12.3325 6.40982L11.214 4.80264L10.7196 1.70897C10.7126 1.66544 10.6959 1.62403 10.6707 1.58782L8.8179 -1.07427L10.6888 -2.37637L14.5367 3.70812Z" stroke="#87B1CA" stroke-width="0.3" mask="url(#path-1-outside-1_6263_12790)"/>
<path d="M7.0925 9.14292L7.0925 9.14292C7.29011 9.0956 7.48868 9.21743 7.53604 9.41501L7.53604 9.41502C7.56701 9.54429 7.52555 9.67383 7.43822 9.76116C7.39179 9.80758 7.33233 9.84221 7.26391 9.85859C7.11283 9.89478 6.99895 9.95513 6.91422 10.0399C6.82948 10.1246 6.76913 10.2385 6.73292 10.3896L7.0925 9.14292ZM7.0925 9.14292C6.52678 9.2784 6.15271 9.65248 6.01722 10.2182L6.01722 10.2182M7.0925 9.14292L6.01722 10.2182M6.01722 10.2182C5.9699 10.4158 6.0917 10.6144 6.28938 10.6617L6.01722 10.2182ZM6.28939 10.6617C6.48699 10.7091 6.68557 10.5873 6.73292 10.3896L6.28939 10.6617Z" fill="#87B1CA" stroke="#87B1CA" stroke-width="0.15"/>
<path d="M10.218 6.01739L10.218 6.01739C10.4156 5.97007 10.6142 6.09187 10.6615 6.28955L10.218 6.01739ZM10.218 6.01739C9.65225 6.15288 9.2782 6.52699 9.14269 7.09267L9.14269 7.09267M10.218 6.01739L9.14269 7.09267M9.14269 7.09267C9.09537 7.29027 9.21717 7.48889 9.41485 7.53621L9.14269 7.09267ZM10.3894 6.73312C10.2383 6.76933 10.1244 6.82969 10.0397 6.91443C9.95492 6.99917 9.89458 7.11303 9.85839 7.26406L9.85839 7.26407C9.81101 7.46178 9.61246 7.58353 9.41485 7.53622L10.3894 6.73312ZM10.3894 6.73312C10.4578 6.71674 10.5173 6.68211 10.5637 6.63569M10.3894 6.73312L10.5637 6.63569M10.5637 6.63569C10.651 6.54836 10.6925 6.41883 10.6615 6.28956L10.5637 6.63569Z" fill="#87B1CA" stroke="#87B1CA" stroke-width="0.15"/>
<path d="M9.59603 10.8727L9.59602 10.8727L9.59603 10.8727ZM11.3501 9.38958C11.1612 9.31478 10.9473 9.40729 10.8725 9.59624L11.5568 9.86718C11.6316 9.67821 11.539 9.46437 11.3501 9.38958Z" fill="#87B1CA" stroke="#87B1CA" stroke-width="0.15"/>
</g>
<defs>
<clipPath id="clip0_6263_12790">
<rect width="20" height="20" fill="white"/>
</clipPath>
</defs>
</svg>
