<svg width="20" height="20" viewBox="0 0 20 20" fill="none" xmlns="http://www.w3.org/2000/svg">
<g clip-path="url(#clip0_6263_12805)">
<mask id="path-1-outside-1_6263_12805" maskUnits="userSpaceOnUse" x="-5.05252" y="-2.93115" width="26.163" height="26.163" fill="black">
<rect fill="white" x="-5.05252" y="-2.93115" width="26.163" height="26.163"/>
<path d="M17.5328 11.7546C17.4964 11.791 17.4563 11.8247 17.4126 11.8551C17.2188 11.9902 16.984 12.0416 16.7514 12C16.7473 11.9993 16.743 11.9985 16.7389 11.9977C16.7382 12.0019 16.7375 12.0061 16.7367 12.0103C16.6952 12.2429 16.5655 12.4453 16.3717 12.5803C16.1678 12.7223 15.9245 12.7663 15.698 12.7224C15.6973 12.7268 15.6965 12.7311 15.6958 12.7355C15.6543 12.968 15.5247 13.1704 15.3307 13.3054C15.1369 13.4404 14.9021 13.4919 14.6696 13.4503C14.6652 13.4495 14.6609 13.4487 14.6566 13.4479C14.6192 13.6756 14.4935 13.8886 14.2898 14.0305C13.9407 14.2737 13.4759 14.2296 13.1779 13.9487L9.56539 14.9012C9.43183 14.9364 9.29501 14.8567 9.25981 14.7231C9.22464 14.5896 9.30437 14.4529 9.43786 14.4176L13.2001 13.4256C13.3016 13.3989 13.409 13.4383 13.469 13.5245C13.5901 13.6983 13.8301 13.7412 14.0039 13.6202C14.1777 13.4993 14.2207 13.2591 14.0996 13.0853C13.9245 12.834 13.6621 12.6659 13.3606 12.612C13.2247 12.5877 13.1342 12.4578 13.1585 12.3218C13.1828 12.1859 13.3127 12.0954 13.4486 12.1197C13.8816 12.1971 14.2585 12.4385 14.51 12.7994C14.5101 12.7996 14.5102 12.7998 14.5103 12.8C14.569 12.8839 14.6568 12.9401 14.7576 12.9581C14.8587 12.9761 14.9607 12.9538 15.0449 12.8951C15.1291 12.8363 15.1854 12.7485 15.2035 12.6475C15.2216 12.5465 15.1992 12.4445 15.1406 12.3602C14.9188 12.0419 14.6066 11.8123 14.2375 11.6962C14.1058 11.6547 14.0326 11.5144 14.074 11.3826C14.1154 11.251 14.2558 11.1776 14.3876 11.2191C14.8629 11.3686 15.265 11.6641 15.5505 12.0737C15.5507 12.0739 15.5508 12.0741 15.551 12.0744C15.6721 12.2482 15.912 12.2911 16.0859 12.17C16.1701 12.1114 16.2264 12.0235 16.2445 11.9224C16.2625 11.8214 16.2402 11.7194 16.1815 11.6351C15.9157 11.2536 15.5456 10.9672 15.1111 10.807C14.9816 10.7592 14.9152 10.6155 14.963 10.4859C15.0108 10.3564 15.1546 10.29 15.2842 10.3378C15.8151 10.5336 16.2674 10.8834 16.5919 11.3493C16.592 11.3495 16.5921 11.3496 16.5923 11.3498C16.6509 11.4337 16.7387 11.4899 16.8395 11.5079C16.9406 11.526 17.0426 11.5036 17.1268 11.445C17.3006 11.324 17.3436 11.0839 17.2225 10.91C16.9131 10.4659 16.4862 10.123 15.988 9.91847C15.8603 9.86606 15.7992 9.71993 15.8517 9.59217C15.9039 9.46444 16.0502 9.40335 16.1779 9.45581C16.5904 9.62516 16.9614 9.87481 17.2719 10.1897L17.5512 10.1149C17.7948 10.0496 17.9962 9.89218 18.1183 9.6716C18.2392 9.45343 18.2664 9.20182 18.1951 8.96236C18.1105 8.7459 17.8662 8.59787 17.6551 8.63484L17.4305 8.69503C15.7608 9.14239 13.9798 9.21302 12.28 8.89927C12.1442 8.87421 12.0544 8.74376 12.0794 8.60796C12.1045 8.47209 12.235 8.38236 12.3708 8.40742C13.9979 8.70778 15.7028 8.64019 17.301 8.21197L17.535 8.14928C17.5405 8.1478 17.546 8.1465 17.5516 8.14542C18.0074 8.05601 18.497 8.34096 18.6663 8.79407C18.668 8.79878 18.6696 8.8035 18.6711 8.80831C18.7853 9.18098 18.7444 9.57367 18.5559 9.91397C18.3674 10.2544 18.0565 10.4974 17.6807 10.598L17.6251 10.6129C17.6277 10.6167 17.6303 10.6204 17.633 10.6242C17.8811 10.9804 17.8298 11.4576 17.5328 11.7546ZM7.15942 20.0049C7.06177 20.1025 6.90346 20.1025 6.80578 20.0049L6.27531 19.4744L5.98061 19.7691C5.88296 19.8668 5.72464 19.8668 5.62696 19.7691C5.52929 19.6714 5.52931 19.5131 5.62696 19.4155L5.92167 19.1207L5.3912 18.5903C5.29353 18.4926 5.29355 18.3343 5.3912 18.2366C5.48885 18.139 5.64717 18.139 5.74485 18.2366L6.27531 18.7671L6.57002 18.4724C6.66767 18.3747 6.82598 18.3747 6.92366 18.4724C7.02134 18.5701 7.02131 18.7284 6.92366 18.826L6.62896 19.1207L7.15942 19.6512C7.2571 19.7489 7.25708 19.9072 7.15942 20.0049ZM8.67717 17.1229C8.38466 17.4155 7.90873 17.4154 7.61624 17.1229C7.32375 16.8305 7.32373 16.3545 7.61624 16.062C7.90875 15.7695 8.38468 15.7695 8.67717 16.062C8.96966 16.3545 8.96968 16.8304 8.67717 17.1229ZM7.96988 16.4157C7.87237 16.5132 7.87237 16.6718 7.96988 16.7693C8.0674 16.8668 8.22602 16.8668 8.32353 16.7693C8.42104 16.6718 8.42104 16.5132 8.32353 16.4157C8.22602 16.3181 8.06739 16.3181 7.96988 16.4157ZM8.76615 15.0768C8.73592 15.107 8.69754 15.1299 8.65322 15.1416L5.32575 16.0189C4.6307 16.2022 3.88791 16.0803 3.28782 15.6846C2.68773 15.2889 2.28316 14.6541 2.17787 13.943L1.91313 12.1555L-3.34933 10.7454C-3.48273 10.7097 -3.5619 10.5725 -3.52616 10.4392C-3.49039 10.3058 -3.35332 10.2266 -3.2199 10.2623L2.20119 11.7149C2.29747 11.7407 2.36922 11.8212 2.38383 11.9198L2.67262 13.8697C2.75714 14.4403 3.08171 14.9495 3.56319 15.2671C4.04464 15.5845 4.6406 15.6823 5.19825 15.5353L8.52572 14.6579C8.65928 14.6227 8.79609 14.7025 8.83129 14.836C8.8548 14.9253 8.827 15.016 8.76615 15.0768ZM11.5466 11.2429C11.449 11.3405 11.2907 11.3405 11.193 11.2429L10.6625 10.7124L10.3678 11.0071C10.2702 11.1048 10.1119 11.1048 10.0142 11.0071C9.91651 10.9094 9.91651 10.7511 10.0142 10.6535L10.3089 10.3588L9.77842 9.82829C9.68074 9.73062 9.68074 9.57232 9.77842 9.47465C9.8761 9.37697 10.0344 9.37697 10.1321 9.47465L10.6625 10.0051L10.9572 9.71041C11.0549 9.61273 11.2132 9.61273 11.3109 9.71041C11.4086 9.80809 11.4086 9.96638 11.3109 10.0641L11.0162 10.3588L11.5466 10.8892C11.6443 10.9869 11.6443 11.1452 11.5466 11.2429ZM11.6177 8.63003C11.5566 8.69114 11.4655 8.71884 11.376 8.69488L1.37965 6.01643C1.24625 5.98069 1.16708 5.84357 1.20282 5.71017C1.23859 5.5768 1.37564 5.49761 1.50908 5.53335L11.5055 8.21178C11.6389 8.24752 11.718 8.38464 11.6823 8.51804C11.6705 8.56194 11.6477 8.60001 11.6177 8.63003ZM14.0891 5.38581C13.9914 5.48349 13.8331 5.48349 13.7355 5.38581L13.205 4.85534L12.9103 5.15005C12.8126 5.24772 12.6543 5.24772 12.5567 5.15005C12.459 5.05237 12.459 4.89408 12.5567 4.7964L12.8514 4.5017L12.3209 3.97123C12.2232 3.87355 12.2232 3.71526 12.3209 3.61759C12.4186 3.51991 12.5769 3.51991 12.6745 3.61759L13.205 4.14805L13.4997 3.85335C13.5974 3.75567 13.7557 3.75567 13.8533 3.85335C13.951 3.95103 13.951 4.10932 13.8533 4.20699L13.5586 4.5017L14.0891 5.03216C14.1868 5.12984 14.1868 5.28813 14.0891 5.38581ZM5.13983 12.3707C5.10961 12.4009 5.0712 12.4238 5.0269 12.4355C4.56928 12.5561 4.08019 12.4759 3.6851 12.2154C3.28999 11.9548 3.02362 11.5369 2.95428 11.0687C2.93406 10.9321 3.02843 10.805 3.16499 10.7847C3.30161 10.7645 3.42876 10.8588 3.44899 10.9954C3.49753 11.3231 3.68395 11.6155 3.96043 11.7978C4.23691 11.9801 4.57914 12.0363 4.89935 11.9519C5.03291 11.9167 5.16973 11.9964 5.2049 12.1299C5.22848 12.2191 5.20071 12.3098 5.13983 12.3707ZM7.33971 5.94596C7.04722 6.23845 6.57127 6.23845 6.27878 5.94596C5.98629 5.65347 5.98629 5.17751 6.27878 4.88503C6.57127 4.59254 7.04722 4.59254 7.33971 4.88502C7.6322 5.17751 7.6322 5.65347 7.33971 5.94596ZM6.63242 5.23867C6.53491 5.33618 6.53491 5.4948 6.63242 5.59231C6.72993 5.68983 6.88856 5.68983 6.98607 5.59231C7.08358 5.4948 7.08358 5.33618 6.98607 5.23867C6.88856 5.14116 6.72993 5.14116 6.63242 5.23867Z"/>
</mask>
<path d="M17.5328 11.7546C17.4964 11.791 17.4563 11.8247 17.4126 11.8551C17.2188 11.9902 16.984 12.0416 16.7514 12C16.7473 11.9993 16.743 11.9985 16.7389 11.9977C16.7382 12.0019 16.7375 12.0061 16.7367 12.0103C16.6952 12.2429 16.5655 12.4453 16.3717 12.5803C16.1678 12.7223 15.9245 12.7663 15.698 12.7224C15.6973 12.7268 15.6965 12.7311 15.6958 12.7355C15.6543 12.968 15.5247 13.1704 15.3307 13.3054C15.1369 13.4404 14.9021 13.4919 14.6696 13.4503C14.6652 13.4495 14.6609 13.4487 14.6566 13.4479C14.6192 13.6756 14.4935 13.8886 14.2898 14.0305C13.9407 14.2737 13.4759 14.2296 13.1779 13.9487L9.56539 14.9012C9.43183 14.9364 9.29501 14.8567 9.25981 14.7231C9.22464 14.5896 9.30437 14.4529 9.43786 14.4176L13.2001 13.4256C13.3016 13.3989 13.409 13.4383 13.469 13.5245C13.5901 13.6983 13.8301 13.7412 14.0039 13.6202C14.1777 13.4993 14.2207 13.2591 14.0996 13.0853C13.9245 12.834 13.6621 12.6659 13.3606 12.612C13.2247 12.5877 13.1342 12.4578 13.1585 12.3218C13.1828 12.1859 13.3127 12.0954 13.4486 12.1197C13.8816 12.1971 14.2585 12.4385 14.51 12.7994C14.5101 12.7996 14.5102 12.7998 14.5103 12.8C14.569 12.8839 14.6568 12.9401 14.7576 12.9581C14.8587 12.9761 14.9607 12.9538 15.0449 12.8951C15.1291 12.8363 15.1854 12.7485 15.2035 12.6475C15.2216 12.5465 15.1992 12.4445 15.1406 12.3602C14.9188 12.0419 14.6066 11.8123 14.2375 11.6962C14.1058 11.6547 14.0326 11.5144 14.074 11.3826C14.1154 11.251 14.2558 11.1776 14.3876 11.2191C14.8629 11.3686 15.265 11.6641 15.5505 12.0737C15.5507 12.0739 15.5508 12.0741 15.551 12.0744C15.6721 12.2482 15.912 12.2911 16.0859 12.17C16.1701 12.1114 16.2264 12.0235 16.2445 11.9224C16.2625 11.8214 16.2402 11.7194 16.1815 11.6351C15.9157 11.2536 15.5456 10.9672 15.1111 10.807C14.9816 10.7592 14.9152 10.6155 14.963 10.4859C15.0108 10.3564 15.1546 10.29 15.2842 10.3378C15.8151 10.5336 16.2674 10.8834 16.5919 11.3493C16.592 11.3495 16.5921 11.3496 16.5923 11.3498C16.6509 11.4337 16.7387 11.4899 16.8395 11.5079C16.9406 11.526 17.0426 11.5036 17.1268 11.445C17.3006 11.324 17.3436 11.0839 17.2225 10.91C16.9131 10.4659 16.4862 10.123 15.988 9.91847C15.8603 9.86606 15.7992 9.71993 15.8517 9.59217C15.9039 9.46444 16.0502 9.40335 16.1779 9.45581C16.5904 9.62516 16.9614 9.87481 17.2719 10.1897L17.5512 10.1149C17.7948 10.0496 17.9962 9.89218 18.1183 9.6716C18.2392 9.45343 18.2664 9.20182 18.1951 8.96236C18.1105 8.7459 17.8662 8.59787 17.6551 8.63484L17.4305 8.69503C15.7608 9.14239 13.9798 9.21302 12.28 8.89927C12.1442 8.87421 12.0544 8.74376 12.0794 8.60796C12.1045 8.47209 12.235 8.38236 12.3708 8.40742C13.9979 8.70778 15.7028 8.64019 17.301 8.21197L17.535 8.14928C17.5405 8.1478 17.546 8.1465 17.5516 8.14542C18.0074 8.05601 18.497 8.34096 18.6663 8.79407C18.668 8.79878 18.6696 8.8035 18.6711 8.80831C18.7853 9.18098 18.7444 9.57367 18.5559 9.91397C18.3674 10.2544 18.0565 10.4974 17.6807 10.598L17.6251 10.6129C17.6277 10.6167 17.6303 10.6204 17.633 10.6242C17.8811 10.9804 17.8298 11.4576 17.5328 11.7546ZM7.15942 20.0049C7.06177 20.1025 6.90346 20.1025 6.80578 20.0049L6.27531 19.4744L5.98061 19.7691C5.88296 19.8668 5.72464 19.8668 5.62696 19.7691C5.52929 19.6714 5.52931 19.5131 5.62696 19.4155L5.92167 19.1207L5.3912 18.5903C5.29353 18.4926 5.29355 18.3343 5.3912 18.2366C5.48885 18.139 5.64717 18.139 5.74485 18.2366L6.27531 18.7671L6.57002 18.4724C6.66767 18.3747 6.82598 18.3747 6.92366 18.4724C7.02134 18.5701 7.02131 18.7284 6.92366 18.826L6.62896 19.1207L7.15942 19.6512C7.2571 19.7489 7.25708 19.9072 7.15942 20.0049ZM8.67717 17.1229C8.38466 17.4155 7.90873 17.4154 7.61624 17.1229C7.32375 16.8305 7.32373 16.3545 7.61624 16.062C7.90875 15.7695 8.38468 15.7695 8.67717 16.062C8.96966 16.3545 8.96968 16.8304 8.67717 17.1229ZM7.96988 16.4157C7.87237 16.5132 7.87237 16.6718 7.96988 16.7693C8.0674 16.8668 8.22602 16.8668 8.32353 16.7693C8.42104 16.6718 8.42104 16.5132 8.32353 16.4157C8.22602 16.3181 8.06739 16.3181 7.96988 16.4157ZM8.76615 15.0768C8.73592 15.107 8.69754 15.1299 8.65322 15.1416L5.32575 16.0189C4.6307 16.2022 3.88791 16.0803 3.28782 15.6846C2.68773 15.2889 2.28316 14.6541 2.17787 13.943L1.91313 12.1555L-3.34933 10.7454C-3.48273 10.7097 -3.5619 10.5725 -3.52616 10.4392C-3.49039 10.3058 -3.35332 10.2266 -3.2199 10.2623L2.20119 11.7149C2.29747 11.7407 2.36922 11.8212 2.38383 11.9198L2.67262 13.8697C2.75714 14.4403 3.08171 14.9495 3.56319 15.2671C4.04464 15.5845 4.6406 15.6823 5.19825 15.5353L8.52572 14.6579C8.65928 14.6227 8.79609 14.7025 8.83129 14.836C8.8548 14.9253 8.827 15.016 8.76615 15.0768ZM11.5466 11.2429C11.449 11.3405 11.2907 11.3405 11.193 11.2429L10.6625 10.7124L10.3678 11.0071C10.2702 11.1048 10.1119 11.1048 10.0142 11.0071C9.91651 10.9094 9.91651 10.7511 10.0142 10.6535L10.3089 10.3588L9.77842 9.82829C9.68074 9.73062 9.68074 9.57232 9.77842 9.47465C9.8761 9.37697 10.0344 9.37697 10.1321 9.47465L10.6625 10.0051L10.9572 9.71041C11.0549 9.61273 11.2132 9.61273 11.3109 9.71041C11.4086 9.80809 11.4086 9.96638 11.3109 10.0641L11.0162 10.3588L11.5466 10.8892C11.6443 10.9869 11.6443 11.1452 11.5466 11.2429ZM11.6177 8.63003C11.5566 8.69114 11.4655 8.71884 11.376 8.69488L1.37965 6.01643C1.24625 5.98069 1.16708 5.84357 1.20282 5.71017C1.23859 5.5768 1.37564 5.49761 1.50908 5.53335L11.5055 8.21178C11.6389 8.24752 11.718 8.38464 11.6823 8.51804C11.6705 8.56194 11.6477 8.60001 11.6177 8.63003ZM14.0891 5.38581C13.9914 5.48349 13.8331 5.48349 13.7355 5.38581L13.205 4.85534L12.9103 5.15005C12.8126 5.24772 12.6543 5.24772 12.5567 5.15005C12.459 5.05237 12.459 4.89408 12.5567 4.7964L12.8514 4.5017L12.3209 3.97123C12.2232 3.87355 12.2232 3.71526 12.3209 3.61759C12.4186 3.51991 12.5769 3.51991 12.6745 3.61759L13.205 4.14805L13.4997 3.85335C13.5974 3.75567 13.7557 3.75567 13.8533 3.85335C13.951 3.95103 13.951 4.10932 13.8533 4.20699L13.5586 4.5017L14.0891 5.03216C14.1868 5.12984 14.1868 5.28813 14.0891 5.38581ZM5.13983 12.3707C5.10961 12.4009 5.0712 12.4238 5.0269 12.4355C4.56928 12.5561 4.08019 12.4759 3.6851 12.2154C3.28999 11.9548 3.02362 11.5369 2.95428 11.0687C2.93406 10.9321 3.02843 10.805 3.16499 10.7847C3.30161 10.7645 3.42876 10.8588 3.44899 10.9954C3.49753 11.3231 3.68395 11.6155 3.96043 11.7978C4.23691 11.9801 4.57914 12.0363 4.89935 11.9519C5.03291 11.9167 5.16973 11.9964 5.2049 12.1299C5.22848 12.2191 5.20071 12.3098 5.13983 12.3707ZM7.33971 5.94596C7.04722 6.23845 6.57127 6.23845 6.27878 5.94596C5.98629 5.65347 5.98629 5.17751 6.27878 4.88503C6.57127 4.59254 7.04722 4.59254 7.33971 4.88502C7.6322 5.17751 7.6322 5.65347 7.33971 5.94596ZM6.63242 5.23867C6.53491 5.33618 6.53491 5.4948 6.63242 5.59231C6.72993 5.68983 6.88856 5.68983 6.98607 5.59231C7.08358 5.4948 7.08358 5.33618 6.98607 5.23867C6.88856 5.14116 6.72993 5.14116 6.63242 5.23867Z" fill="#87B1CA"/>
<path d="M17.5328 11.7546C17.4964 11.791 17.4563 11.8247 17.4126 11.8551C17.2188 11.9902 16.984 12.0416 16.7514 12C16.7473 11.9993 16.743 11.9985 16.7389 11.9977C16.7382 12.0019 16.7375 12.0061 16.7367 12.0103C16.6952 12.2429 16.5655 12.4453 16.3717 12.5803C16.1678 12.7223 15.9245 12.7663 15.698 12.7224C15.6973 12.7268 15.6965 12.7311 15.6958 12.7355C15.6543 12.968 15.5247 13.1704 15.3307 13.3054C15.1369 13.4404 14.9021 13.4919 14.6696 13.4503C14.6652 13.4495 14.6609 13.4487 14.6566 13.4479C14.6192 13.6756 14.4935 13.8886 14.2898 14.0305C13.9407 14.2737 13.4759 14.2296 13.1779 13.9487L9.56539 14.9012C9.43183 14.9364 9.29501 14.8567 9.25981 14.7231C9.22464 14.5896 9.30437 14.4529 9.43786 14.4176L13.2001 13.4256C13.3016 13.3989 13.409 13.4383 13.469 13.5245C13.5901 13.6983 13.8301 13.7412 14.0039 13.6202C14.1777 13.4993 14.2207 13.2591 14.0996 13.0853C13.9245 12.834 13.6621 12.6659 13.3606 12.612C13.2247 12.5877 13.1342 12.4578 13.1585 12.3218C13.1828 12.1859 13.3127 12.0954 13.4486 12.1197C13.8816 12.1971 14.2585 12.4385 14.51 12.7994C14.5101 12.7996 14.5102 12.7998 14.5103 12.8C14.569 12.8839 14.6568 12.9401 14.7576 12.9581C14.8587 12.9761 14.9607 12.9538 15.0449 12.8951C15.1291 12.8363 15.1854 12.7485 15.2035 12.6475C15.2216 12.5465 15.1992 12.4445 15.1406 12.3602C14.9188 12.0419 14.6066 11.8123 14.2375 11.6962C14.1058 11.6547 14.0326 11.5144 14.074 11.3826C14.1154 11.251 14.2558 11.1776 14.3876 11.2191C14.8629 11.3686 15.265 11.6641 15.5505 12.0737C15.5507 12.0739 15.5508 12.0741 15.551 12.0744C15.6721 12.2482 15.912 12.2911 16.0859 12.17C16.1701 12.1114 16.2264 12.0235 16.2445 11.9224C16.2625 11.8214 16.2402 11.7194 16.1815 11.6351C15.9157 11.2536 15.5456 10.9672 15.1111 10.807C14.9816 10.7592 14.9152 10.6155 14.963 10.4859C15.0108 10.3564 15.1546 10.29 15.2842 10.3378C15.8151 10.5336 16.2674 10.8834 16.5919 11.3493C16.592 11.3495 16.5921 11.3496 16.5923 11.3498C16.6509 11.4337 16.7387 11.4899 16.8395 11.5079C16.9406 11.526 17.0426 11.5036 17.1268 11.445C17.3006 11.324 17.3436 11.0839 17.2225 10.91C16.9131 10.4659 16.4862 10.123 15.988 9.91847C15.8603 9.86606 15.7992 9.71993 15.8517 9.59217C15.9039 9.46444 16.0502 9.40335 16.1779 9.45581C16.5904 9.62516 16.9614 9.87481 17.2719 10.1897L17.5512 10.1149C17.7948 10.0496 17.9962 9.89218 18.1183 9.6716C18.2392 9.45343 18.2664 9.20182 18.1951 8.96236C18.1105 8.7459 17.8662 8.59787 17.6551 8.63484L17.4305 8.69503C15.7608 9.14239 13.9798 9.21302 12.28 8.89927C12.1442 8.87421 12.0544 8.74376 12.0794 8.60796C12.1045 8.47209 12.235 8.38236 12.3708 8.40742C13.9979 8.70778 15.7028 8.64019 17.301 8.21197L17.535 8.14928C17.5405 8.1478 17.546 8.1465 17.5516 8.14542C18.0074 8.05601 18.497 8.34096 18.6663 8.79407C18.668 8.79878 18.6696 8.8035 18.6711 8.80831C18.7853 9.18098 18.7444 9.57367 18.5559 9.91397C18.3674 10.2544 18.0565 10.4974 17.6807 10.598L17.6251 10.6129C17.6277 10.6167 17.6303 10.6204 17.633 10.6242C17.8811 10.9804 17.8298 11.4576 17.5328 11.7546ZM7.15942 20.0049C7.06177 20.1025 6.90346 20.1025 6.80578 20.0049L6.27531 19.4744L5.98061 19.7691C5.88296 19.8668 5.72464 19.8668 5.62696 19.7691C5.52929 19.6714 5.52931 19.5131 5.62696 19.4155L5.92167 19.1207L5.3912 18.5903C5.29353 18.4926 5.29355 18.3343 5.3912 18.2366C5.48885 18.139 5.64717 18.139 5.74485 18.2366L6.27531 18.7671L6.57002 18.4724C6.66767 18.3747 6.82598 18.3747 6.92366 18.4724C7.02134 18.5701 7.02131 18.7284 6.92366 18.826L6.62896 19.1207L7.15942 19.6512C7.2571 19.7489 7.25708 19.9072 7.15942 20.0049ZM8.67717 17.1229C8.38466 17.4155 7.90873 17.4154 7.61624 17.1229C7.32375 16.8305 7.32373 16.3545 7.61624 16.062C7.90875 15.7695 8.38468 15.7695 8.67717 16.062C8.96966 16.3545 8.96968 16.8304 8.67717 17.1229ZM7.96988 16.4157C7.87237 16.5132 7.87237 16.6718 7.96988 16.7693C8.0674 16.8668 8.22602 16.8668 8.32353 16.7693C8.42104 16.6718 8.42104 16.5132 8.32353 16.4157C8.22602 16.3181 8.06739 16.3181 7.96988 16.4157ZM8.76615 15.0768C8.73592 15.107 8.69754 15.1299 8.65322 15.1416L5.32575 16.0189C4.6307 16.2022 3.88791 16.0803 3.28782 15.6846C2.68773 15.2889 2.28316 14.6541 2.17787 13.943L1.91313 12.1555L-3.34933 10.7454C-3.48273 10.7097 -3.5619 10.5725 -3.52616 10.4392C-3.49039 10.3058 -3.35332 10.2266 -3.2199 10.2623L2.20119 11.7149C2.29747 11.7407 2.36922 11.8212 2.38383 11.9198L2.67262 13.8697C2.75714 14.4403 3.08171 14.9495 3.56319 15.2671C4.04464 15.5845 4.6406 15.6823 5.19825 15.5353L8.52572 14.6579C8.65928 14.6227 8.79609 14.7025 8.83129 14.836C8.8548 14.9253 8.827 15.016 8.76615 15.0768ZM11.5466 11.2429C11.449 11.3405 11.2907 11.3405 11.193 11.2429L10.6625 10.7124L10.3678 11.0071C10.2702 11.1048 10.1119 11.1048 10.0142 11.0071C9.91651 10.9094 9.91651 10.7511 10.0142 10.6535L10.3089 10.3588L9.77842 9.82829C9.68074 9.73062 9.68074 9.57232 9.77842 9.47465C9.8761 9.37697 10.0344 9.37697 10.1321 9.47465L10.6625 10.0051L10.9572 9.71041C11.0549 9.61273 11.2132 9.61273 11.3109 9.71041C11.4086 9.80809 11.4086 9.96638 11.3109 10.0641L11.0162 10.3588L11.5466 10.8892C11.6443 10.9869 11.6443 11.1452 11.5466 11.2429ZM11.6177 8.63003C11.5566 8.69114 11.4655 8.71884 11.376 8.69488L1.37965 6.01643C1.24625 5.98069 1.16708 5.84357 1.20282 5.71017C1.23859 5.5768 1.37564 5.49761 1.50908 5.53335L11.5055 8.21178C11.6389 8.24752 11.718 8.38464 11.6823 8.51804C11.6705 8.56194 11.6477 8.60001 11.6177 8.63003ZM14.0891 5.38581C13.9914 5.48349 13.8331 5.48349 13.7355 5.38581L13.205 4.85534L12.9103 5.15005C12.8126 5.24772 12.6543 5.24772 12.5567 5.15005C12.459 5.05237 12.459 4.89408 12.5567 4.7964L12.8514 4.5017L12.3209 3.97123C12.2232 3.87355 12.2232 3.71526 12.3209 3.61759C12.4186 3.51991 12.5769 3.51991 12.6745 3.61759L13.205 4.14805L13.4997 3.85335C13.5974 3.75567 13.7557 3.75567 13.8533 3.85335C13.951 3.95103 13.951 4.10932 13.8533 4.20699L13.5586 4.5017L14.0891 5.03216C14.1868 5.12984 14.1868 5.28813 14.0891 5.38581ZM5.13983 12.3707C5.10961 12.4009 5.0712 12.4238 5.0269 12.4355C4.56928 12.5561 4.08019 12.4759 3.6851 12.2154C3.28999 11.9548 3.02362 11.5369 2.95428 11.0687C2.93406 10.9321 3.02843 10.805 3.16499 10.7847C3.30161 10.7645 3.42876 10.8588 3.44899 10.9954C3.49753 11.3231 3.68395 11.6155 3.96043 11.7978C4.23691 11.9801 4.57914 12.0363 4.89935 11.9519C5.03291 11.9167 5.16973 11.9964 5.2049 12.1299C5.22848 12.2191 5.20071 12.3098 5.13983 12.3707ZM7.33971 5.94596C7.04722 6.23845 6.57127 6.23845 6.27878 5.94596C5.98629 5.65347 5.98629 5.17751 6.27878 4.88503C6.57127 4.59254 7.04722 4.59254 7.33971 4.88502C7.6322 5.17751 7.6322 5.65347 7.33971 5.94596ZM6.63242 5.23867C6.53491 5.33618 6.53491 5.4948 6.63242 5.59231C6.72993 5.68983 6.88856 5.68983 6.98607 5.59231C7.08358 5.4948 7.08358 5.33618 6.98607 5.23867C6.88856 5.14116 6.72993 5.14116 6.63242 5.23867Z" stroke="#87B1CA" stroke-width="0.3" mask="url(#path-1-outside-1_6263_12805)"/>
</g>
<defs>
<clipPath id="clip0_6263_12805">
<rect width="20" height="20" fill="white"/>
</clipPath>
</defs>
</svg>
