<svg width="20" height="20" viewBox="0 0 20 20" fill="none" xmlns="http://www.w3.org/2000/svg">
<g clip-path="url(#clip0_6263_13237)">
<path d="M18.4463 5.70179C18.6082 5.60341 18.8192 5.65504 18.9175 5.8169L20.0294 7.64792C20.6253 8.62926 20.2449 9.90982 19.215 10.4139L19.1931 10.3689L19.215 10.4139C16.5726 11.7067 14.1513 14.0823 14.1154 14.1177C14.0823 14.1512 11.7054 16.5752 10.4139 19.215C9.90971 20.2454 8.629 20.6251 7.64789 20.0294L3.08752 17.26L3.08751 17.26C2.79762 17.0839 2.62828 16.7819 2.61407 16.4625C2.40385 15.9555 1.75945 14.0565 2.68502 11.6347L2.16334 10.3488C1.93473 9.78521 1.98952 9.14216 2.31011 8.62834C3.89823 6.08306 6.08295 3.89834 8.62829 2.31016L8.65472 2.3525L8.62829 2.31016C9.14211 1.98957 9.78519 1.93481 10.3488 2.16342L11.6346 2.68507C14.0564 1.75953 15.9554 2.4039 16.4624 2.61409C16.782 2.62828 17.0839 2.79761 17.26 3.08754L18.2078 4.64833L18.165 4.67428L18.2078 4.64833C18.3061 4.8103 18.2545 5.02112 18.0927 5.11947C17.9308 5.21784 17.7198 5.16622 17.6215 5.00436L16.6737 3.44356C16.5961 3.31587 16.4405 3.26652 16.3049 3.32078L16.3038 3.32117C10.814 5.54397 5.50104 10.9195 3.3212 16.3037L3.32119 16.3037C3.2656 16.4418 3.31714 16.5969 3.44358 16.6737C3.44358 16.6737 3.44359 16.6737 3.44359 16.6737L7.98692 19.4327C8.94989 17.1662 10.3799 14.9903 12.1384 13.12C12.2678 12.981 12.4855 12.9757 12.6232 13.1051C12.7612 13.2349 12.7679 13.4519 12.6381 13.5899C10.9537 15.3814 9.58088 17.4609 8.64989 19.6261M18.4463 5.70179C18.4463 5.70178 18.4463 5.70178 18.4464 5.70177L18.4723 5.74452L18.4463 5.70179ZM18.4463 5.70179C18.2844 5.80007 18.2328 6.01101 18.3312 6.1729L18.374 6.14695M18.374 6.14695L18.3312 6.17292L19.4327 7.98691M18.374 6.14695L19.4793 7.96721C19.4638 7.97376 19.4483 7.98033 19.4327 7.98691M18.374 6.14695L19.6758 8.62861C19.6592 8.63569 19.6426 8.64279 19.626 8.64992M19.4327 7.98691C17.1662 8.94997 14.9903 10.3799 13.1202 12.1383C12.9816 12.267 12.9756 12.4854 13.1052 12.6232C13.2349 12.7612 13.452 12.7679 13.59 12.6381C15.3814 10.9538 17.4608 9.58093 19.626 8.64992M19.4327 7.98691L19.4431 8.00395C19.4457 8.00827 19.4481 8.01247 19.4506 8.0168C19.4531 8.02111 19.4555 8.02555 19.4583 8.0304C17.1952 8.9911 15.022 10.4187 13.1543 12.1748C13.0362 12.2844 13.0308 12.4711 13.1416 12.5889C13.2524 12.7068 13.4378 12.7125 13.5557 12.6017C15.3563 10.9087 17.4473 9.52962 19.6247 8.59609C19.6255 8.61405 19.626 8.632 19.626 8.64992M19.626 8.64992C19.6277 9.12363 19.359 9.57983 18.9136 9.79772L18.9355 9.84264L18.9136 9.79772C16.1633 11.1434 13.7351 13.5291 13.6306 13.6325L13.6302 13.6329C13.5292 13.7351 11.1434 16.1633 9.79775 18.9135C9.58318 19.3521 9.13117 19.6279 8.64989 19.6261M8.64989 19.6261C8.63199 19.626 8.61404 19.6255 8.59606 19.6247L13.6657 13.6681C13.5651 13.7699 11.1844 16.1932 9.84267 18.9355C9.61647 19.3978 9.13673 19.686 8.62859 19.6758C8.63566 19.6592 8.64276 19.6426 8.64989 19.6261ZM3.2748 16.285C3.21012 16.4458 3.27016 16.6269 3.41763 16.7165L3.2748 16.285ZM3.2748 16.285L3.27486 16.2849L3.2748 16.285ZM3.31021 16.3203L3.31099 16.3195C3.31032 16.3202 3.31 16.3205 3.31021 16.3203ZM2.99222 15.3316C2.86316 14.6792 2.80031 13.7383 3.08706 12.6258L3.64857 14.0099C3.41121 14.4485 3.19229 14.8895 2.99222 15.3316ZM13.2492 4.08033C9.70046 6.18478 6.28293 9.5345 4.08028 13.2493L2.799 10.0909L2.799 10.0909C2.65267 9.73023 2.68757 9.31912 2.89206 8.99141C4.42511 6.53433 6.53428 4.42516 8.99135 2.89211C9.31907 2.68762 9.73018 2.65272 10.0909 2.79908L10.1097 2.75274L10.0909 2.79908L11.494 3.36828L11.4941 3.36831L11.5034 3.37212L13.2492 4.08033ZM12.6257 3.08713C13.7382 2.80035 14.6791 2.8632 15.3315 2.99227C14.8894 3.19232 14.4484 3.41123 14.0098 3.6486L12.6257 3.08713Z" fill="#87B1CA" stroke="#87B1CA" stroke-width="0.1"/>
<path d="M11.9037 12.458L12.458 11.9037C12.6837 11.678 12.6837 11.311 12.458 11.0853L11.9713 10.5986L12.458 10.112C12.6837 9.8863 12.6837 9.51928 12.458 9.29362L11.9037 8.73927C11.678 8.51364 11.311 8.51365 11.0853 8.7393L10.5987 9.22597L10.1119 8.73922C9.88625 8.51356 9.51922 8.51356 9.29356 8.73922L8.73922 9.29356C8.51356 9.51922 8.51356 9.88625 8.73922 10.1119L9.22592 10.5986L8.73925 11.0853C8.51359 11.3109 8.51359 11.678 8.73922 11.9036L9.29356 12.4579C9.51922 12.6836 9.88625 12.6836 10.1119 12.4579L10.5986 11.9713L11.0853 12.458C11.0853 12.458 11.0853 12.458 11.0853 12.458C11.3109 12.6837 11.678 12.6836 11.9037 12.458ZM9.70274 11.8971L9.30009 11.4945L9.78679 11.0078C10.0124 10.7821 10.0124 10.4151 9.78676 10.1895L9.30006 9.70276L9.70274 9.30008L10.1894 9.78679C10.4151 10.0124 10.7821 10.0124 11.0078 9.78681L11.4945 9.30011L11.8971 9.70276L11.4104 10.1895C11.1848 10.4151 11.1848 10.7821 11.4104 11.0078L11.8971 11.4945L11.4944 11.8971L11.0077 11.4104C10.7821 11.1848 10.4151 11.1848 10.1894 11.4104L9.70274 11.8971Z" fill="#87B1CA" stroke="#87B1CA" stroke-width="0.1"/>
</g>
<defs>
<clipPath id="clip0_6263_13237">
<rect width="20" height="20" fill="white"/>
</clipPath>
</defs>
</svg>
