<svg width="20" height="20" viewBox="0 0 20 20" fill="none" xmlns="http://www.w3.org/2000/svg">
<g clip-path="url(#clip0_6342_12099)">
<path d="M15.8351 9.49759C15.589 9.74375 15.3936 10.0215 15.2473 10.3176C14.8076 10.3042 14.3659 10.3704 13.9461 10.5168C13.8185 10.2853 13.6575 10.0674 13.4615 9.87139C13.0682 9.47809 12.5883 9.22323 12.0827 9.10567C12.2114 7.4501 11.6443 5.75006 10.3808 4.48655C8.80744 2.91316 6.24843 2.91145 4.67283 4.48136C4.27544 3.95377 4.31651 3.19863 4.79666 2.71848L3.96801 1.88984C3.0306 2.82726 2.98845 4.32522 3.8401 5.31392L2.88993 6.2641C1.90125 5.41242 0.403285 5.45457 -0.534129 6.39199L0.294512 7.22063C0.774654 6.74048 1.52982 6.69938 2.05736 7.09677C0.487861 8.67202 0.489215 11.2307 2.06256 12.8048C3.32607 14.0683 5.02608 14.6353 6.68165 14.5066C6.7992 15.0123 7.05409 15.4921 7.44742 15.8855C7.89972 16.3378 8.46643 16.6074 9.05526 16.6951C9.15575 16.827 9.26598 16.9539 9.38644 17.0744C10.7165 18.4044 12.8109 18.5153 14.2686 17.4074C15.4532 17.6996 16.7583 17.3838 17.6821 16.46C18.1689 15.9732 18.4867 15.3805 18.6359 14.7554C19.224 14.6412 19.7852 14.3569 20.2398 13.9023C21.4542 12.6879 21.4542 10.712 20.2398 9.49762C19.0255 8.28328 17.0495 8.28322 15.8351 9.49759V9.49759ZM19.4112 13.0736C19.2069 13.2779 18.968 13.4266 18.7133 13.5207C18.6275 12.734 18.2839 11.9703 17.6821 11.3685C17.3226 11.009 16.9054 10.7418 16.46 10.5665C16.5205 10.4823 16.5882 10.4018 16.6638 10.3262C17.4213 9.56875 18.6538 9.56877 19.4112 10.3262C20.1687 11.0837 20.1687 12.3162 19.4112 13.0736ZM8.27606 15.0568C8.05863 14.8394 7.91279 14.5773 7.83752 14.2998C8.76949 14.0352 9.64854 13.5371 10.3809 12.8048C11.1132 12.0725 11.6112 11.1934 11.8758 10.2615C12.1533 10.3368 12.4155 10.4826 12.6329 10.7001C13.2979 11.3651 13.2979 12.4472 12.6329 13.1123L10.6883 15.0569C10.0233 15.7219 8.94113 15.7219 8.27606 15.0568V15.0568ZM2.89073 11.9757C1.773 10.8574 1.77322 9.03808 2.89122 7.92008L5.49614 5.31517C6.61442 4.19689 8.43397 4.19692 9.55222 5.31517C11.3887 7.1516 11.3887 10.1397 9.55222 11.9762C7.71579 13.8126 4.72766 13.8126 2.89073 11.9757V11.9757ZM11.517 15.8855L13.4615 13.941C13.7473 13.6552 13.9598 13.3236 14.1 12.9698C14.8046 13.9648 14.7123 15.3552 13.8218 16.2458C12.9312 17.1363 11.5408 17.2286 10.5458 16.524C10.8996 16.3838 11.2312 16.1713 11.517 15.8855ZM14.6504 11.8104C14.5749 11.7349 14.4968 11.6635 14.4166 11.5959C15.2499 11.3387 16.1951 11.5388 16.8535 12.1971C17.8003 13.1439 17.8003 14.6846 16.8535 15.6314C16.4016 16.0832 15.8146 16.3189 15.2213 16.3395C16.0667 14.9119 15.8764 13.0364 14.6504 11.8104Z" fill="#87B1CA"/>
<path d="M3.38159 10.7258L4.21023 9.89719L5.03887 10.7258L4.21023 11.5545L3.38159 10.7258Z" fill="#87B1CA"/>
<path d="M7.46954 6.63787L8.29818 5.80923L9.12682 6.63787L8.29818 7.46651L7.46954 6.63787Z" fill="#87B1CA"/>
<path d="M8.20612 10.6338C8.77294 10.0669 8.99648 9.23331 8.78949 8.4582L7.65732 8.76057C7.75673 9.13288 7.64953 9.53314 7.37748 9.80518C7.10544 10.0772 6.70518 10.1844 6.3329 10.085L6.0305 11.2172C6.80564 11.4242 7.63928 11.2006 8.20612 10.6338V10.6338Z" fill="#87B1CA"/>
</g>
<defs>
<clipPath id="clip0_6342_12099">
<rect width="20" height="20" fill="white"/>
</clipPath>
</defs>
</svg>
