<svg width="20" height="20" viewBox="0 0 20 20" fill="none" xmlns="http://www.w3.org/2000/svg">
<g clip-path="url(#clip0_6263_12774)">
<path d="M19.5148 18.6441L17.7815 16.905L18.3815 14.5639V14.497C18.3815 14.4301 18.3815 14.4301 18.3815 14.3632C18.3815 14.2963 18.3815 14.2963 18.3815 14.2294C18.3815 14.1625 18.3815 14.1625 18.3148 14.0956C18.3148 14.0287 18.2482 14.0287 18.2482 13.9618C18.2482 13.9618 18.2482 13.895 18.1815 13.895L14.8482 10.5505L7.31484 3.05884L8.18151 2.18927C8.31484 2.05549 8.38151 1.92171 8.38151 1.72104C8.38151 1.52038 8.31484 1.3866 8.18151 1.25282C7.91484 0.985258 7.51484 0.985258 7.24818 1.25282L5.71484 2.79128L4.64818 1.72104L5.51484 0.851479C5.78151 0.583921 5.78151 0.182583 5.51484 -0.0849756C5.24818 -0.352534 4.84818 -0.352534 4.58151 -0.0849756L-0.0851562 4.5973C-0.351823 4.86486 -0.351823 5.26619 -0.0851562 5.53375C0.0481771 5.66753 0.18151 5.73442 0.38151 5.73442C0.58151 5.73442 0.714844 5.66753 0.848177 5.53375L1.71484 4.66419L2.78151 5.73442L1.24818 7.27288C1.11484 7.40666 1.04818 7.54044 1.04818 7.74111C1.04818 7.94178 1.11484 8.07556 1.24818 8.20934C1.38151 8.34312 1.51484 8.41001 1.71484 8.41001C1.91484 8.41001 2.04818 8.34312 2.18151 8.20934L3.04818 7.33977L7.24818 11.5538L13.9148 18.2428C13.9815 18.3097 13.9815 18.3097 14.0482 18.3097H14.1148C14.1815 18.3097 14.2482 18.3766 14.3815 18.3766C14.4482 18.3766 14.5148 18.3766 14.5148 18.3766L16.8482 17.7746L18.5815 19.5137C18.7148 19.6475 18.9148 19.7144 19.0482 19.7144C19.1815 19.7144 19.3815 19.6475 19.5148 19.5137C19.7815 19.313 19.7815 18.9117 19.5148 18.6441ZM14.5815 17.0388L9.31484 11.7545H14.1148L16.9815 14.6307L16.5148 16.5705L14.5815 17.0388ZM2.64818 3.72773L3.71484 2.6575L4.78151 3.72773L3.71484 4.79797L2.64818 3.72773ZM6.38151 3.99529L12.7815 10.4167H7.98151L3.98151 6.40332L6.38151 3.99529Z" fill="#87B1CA"/>
<g clip-path="url(#clip1_6263_12774)">
<path d="M19.5148 18.6441L17.7815 16.905L18.3815 14.5639V14.497C18.3815 14.4301 18.3815 14.4301 18.3815 14.3632C18.3815 14.2963 18.3815 14.2963 18.3815 14.2294C18.3815 14.1625 18.3815 14.1625 18.3148 14.0956C18.3148 14.0287 18.2482 14.0287 18.2482 13.9618C18.2482 13.9618 18.2482 13.895 18.1815 13.895L14.8482 10.5505L7.31484 3.05884L8.18151 2.18927C8.31484 2.05549 8.38151 1.92171 8.38151 1.72104C8.38151 1.52038 8.31484 1.3866 8.18151 1.25282C7.91484 0.985258 7.51484 0.985258 7.24818 1.25282L5.71484 2.79128L4.64818 1.72104L5.51484 0.851479C5.78151 0.583921 5.78151 0.182583 5.51484 -0.0849756C5.24818 -0.352534 4.84818 -0.352534 4.58151 -0.0849756L-0.0851562 4.5973C-0.351823 4.86486 -0.351823 5.26619 -0.0851562 5.53375C0.0481771 5.66753 0.18151 5.73442 0.38151 5.73442C0.58151 5.73442 0.714844 5.66753 0.848177 5.53375L1.71484 4.66419L2.78151 5.73442L1.24818 7.27288C1.11484 7.40666 1.04818 7.54044 1.04818 7.74111C1.04818 7.94178 1.11484 8.07556 1.24818 8.20934C1.38151 8.34312 1.51484 8.41001 1.71484 8.41001C1.91484 8.41001 2.04818 8.34312 2.18151 8.20934L3.04818 7.33977L7.24818 11.5538L13.9148 18.2428C13.9815 18.3097 13.9815 18.3097 14.0482 18.3097H14.1148C14.1815 18.3097 14.2482 18.3766 14.3815 18.3766C14.4482 18.3766 14.5148 18.3766 14.5148 18.3766L16.8482 17.7746L18.5815 19.5137C18.7148 19.6475 18.9148 19.7144 19.0482 19.7144C19.1815 19.7144 19.3815 19.6475 19.5148 19.5137C19.7815 19.313 19.7815 18.9117 19.5148 18.6441ZM14.5815 17.0388L9.31484 11.7545H14.1148L16.9815 14.6307L16.5148 16.5705L14.5815 17.0388ZM2.64818 3.72773L3.71484 2.6575L4.78151 3.72773L3.71484 4.79797L2.64818 3.72773ZM6.38151 3.99529L12.7815 10.4167H7.98151L3.98151 6.40332L6.38151 3.99529Z" fill="#87B1CA"/>
</g>
</g>
<defs>
<clipPath id="clip0_6263_12774">
<rect width="20" height="20" fill="white"/>
</clipPath>
<clipPath id="clip1_6263_12774">
<rect width="20" height="20" fill="white"/>
</clipPath>
</defs>
</svg>
