<svg width="25" height="29" viewBox="0 0 25 29" fill="none" xmlns="http://www.w3.org/2000/svg">
<path d="M19.9378 12.0687V1.97153C19.9378 0.886547 19.0551 0.00390625 17.9701 0.00390625H1.97153C0.886547 0.00390625 0.00390625 0.886547 0.00390625 1.97153V22.9537C0.00390625 24.0386 0.886547 24.9213 1.97153 24.9213H14.0482V28.0926C14.0482 28.7855 14.7986 29.2251 15.4039 28.8793L18.1256 27.324C21.1318 29.0418 20.9746 28.9987 21.2969 28.9987C21.7973 28.9987 22.203 28.5924 22.203 28.0926V21.9184C25.428 18.8201 24.1506 13.4343 19.9378 12.0687ZM1.97153 23.1091C1.88579 23.1091 1.81608 23.0394 1.81608 22.9537V1.97153C1.81608 1.88579 1.88579 1.81608 1.97153 1.81608H17.9702C18.0559 1.81608 18.1256 1.88579 18.1256 1.97153V11.783C14.8781 11.783 12.2361 14.4251 12.2361 17.6726C12.2361 19.3391 12.9319 20.846 14.0482 21.9184V23.1091H1.97153ZM20.3908 26.5312L18.5752 25.4937C18.2965 25.3345 17.9547 25.3345 17.676 25.4937L15.8604 26.5312V23.1088C17.3052 23.7131 18.9441 23.7139 20.3908 23.1088V26.5312H20.3908ZM18.1256 21.75C15.8773 21.75 14.0482 19.9209 14.0482 17.6726C14.0482 15.4243 15.8773 13.5952 18.1256 13.5952C20.3739 13.5952 22.203 15.4243 22.203 17.6726C22.203 19.9209 20.3739 21.75 18.1256 21.75Z" fill="#3F85EF"/>
<path d="M13.143 6.34733H5.44124C4.94086 6.34733 4.53516 5.94163 4.53516 5.44124C4.53516 4.94086 4.94086 4.53516 5.44124 4.53516H13.143C13.6434 4.53516 14.0491 4.94086 14.0491 5.44124C14.0491 5.94163 13.6434 6.34733 13.143 6.34733Z" fill="#3F85EF"/>
<path d="M13.143 9.97038H5.44124C4.94086 9.97038 4.53516 9.56468 4.53516 9.06429C4.53516 8.5639 4.94086 8.1582 5.44124 8.1582H13.143C13.6434 8.1582 14.0491 8.5639 14.0491 9.06429C14.0491 9.56468 13.6434 9.97038 13.143 9.97038Z" fill="#3F85EF"/>
</svg>
