<svg width="18" height="22" viewBox="0 0 18 22" fill="none" xmlns="http://www.w3.org/2000/svg">
<path d="M17 9C17 15.2222 9 20.5556 9 20.5556C9 20.5556 1 15.2222 1 9C1 6.87827 1.84285 4.84344 3.34315 3.34315C4.84344 1.84285 6.87827 1 9 1C11.1217 1 13.1566 1.84285 14.6569 3.34315C16.1571 4.84344 17 6.87827 17 9Z" stroke="#87B1CA" stroke-width="2" stroke-linecap="round" stroke-linejoin="round"/>
<path d="M9.00065 11.6654C10.4734 11.6654 11.6673 10.4715 11.6673 8.9987C11.6673 7.52594 10.4734 6.33203 9.00065 6.33203C7.52789 6.33203 6.33398 7.52594 6.33398 8.9987C6.33398 10.4715 7.52789 11.6654 9.00065 11.6654Z" stroke="#87B1CA" stroke-width="2" stroke-linecap="round" stroke-linejoin="round"/>
</svg>
