<svg width="40" height="40" viewBox="0 0 40 40" fill="none" xmlns="http://www.w3.org/2000/svg">
<rect width="40" height="40" rx="10" fill="#F0F1F8"/>
<g clip-path="url(#clip0_207_473)">
<path d="M25.1423 10.2852H14.8566C14.5137 10.2852 14.2852 10.5137 14.2852 10.8566V19.9994C14.2852 20.8566 14.3994 21.428 14.9709 22.1137C15.4852 22.7423 16.2852 23.2566 16.9137 23.6566C17.1994 23.828 17.4852 24.0566 17.6566 24.1709V25.1423C17.6566 26.3994 18.2852 27.1994 19.3709 27.3709C19.4852 28.9709 20.228 30.8566 22.0566 31.3709C22.1137 31.3709 22.1709 31.3709 22.228 31.3709C22.4566 31.3709 22.6852 31.1994 22.7994 30.9709C22.9137 30.6852 22.7423 30.3423 22.3994 30.2852C20.9709 29.8852 20.628 28.228 20.5709 27.3137C21.6566 27.0852 22.228 26.2852 22.228 25.0852V24.1137C22.3994 23.9994 22.7423 23.7709 22.9709 23.5994C23.5994 23.1994 24.3994 22.628 24.9137 22.0566C25.5423 21.3709 25.5994 20.7994 25.5994 19.9423V10.8566C25.7137 10.5137 25.4852 10.2852 25.1423 10.2852ZM24.5709 19.9994C24.5709 20.628 24.5137 20.9137 24.1137 21.3137C23.6566 21.828 22.9709 22.2852 22.3994 22.6852C21.5994 23.1994 21.1994 23.4852 21.1423 23.9423V23.9994V25.1423C21.1423 25.9423 20.7994 26.2852 19.9994 26.2852C19.1994 26.2852 18.8566 25.9423 18.8566 25.1423V23.9994V23.9423C18.7994 23.4852 18.3994 23.1994 17.5994 22.6852C17.028 22.2852 16.2852 21.828 15.8852 21.3137C15.4852 20.9137 15.428 20.628 15.428 19.9994V13.9994C16.2852 13.428 17.428 13.4852 18.5709 14.1709C19.3137 14.6852 20.1137 14.8566 20.9137 14.8566C21.9994 14.8566 22.9137 14.5137 23.3137 14.1137C23.5423 13.8852 23.4852 13.5423 23.2566 13.3137C23.028 13.0852 22.6852 13.0852 22.4566 13.3137C22.228 13.5423 20.5137 14.0566 19.1423 13.1994C17.8852 12.4566 16.5137 12.2852 15.428 12.7423V11.428H24.5709V19.9994Z" fill="#3F85EF"/>
</g>
<defs>
<clipPath id="clip0_207_473">
<rect width="11.4286" height="21.1429" fill="white" transform="translate(14.2852 10.2852)"/>
</clipPath>
</defs>
</svg>
