<svg width="28" height="29" viewBox="0 0 28 29" fill="none" xmlns="http://www.w3.org/2000/svg">
<path d="M19.834 2.62109H8.16732C4.94566 2.62109 2.33398 5.23277 2.33398 8.45443V20.1211C2.33398 23.3428 4.94566 25.9544 8.16732 25.9544H19.834C23.0556 25.9544 25.6673 23.3428 25.6673 20.1211V8.45443C25.6673 5.23277 23.0556 2.62109 19.834 2.62109Z" stroke="#3F85EF" stroke-width="2" stroke-linecap="round" stroke-linejoin="round"/>
<path d="M18.6676 13.5525C18.8116 14.5234 18.6458 15.515 18.1937 16.3863C17.7416 17.2576 17.0263 17.9641 16.1495 18.4054C15.2728 18.8467 14.2791 19.0003 13.31 18.8444C12.3409 18.6884 11.4457 18.2309 10.7516 17.5368C10.0575 16.8427 9.59998 15.9475 9.44404 14.9784C9.2881 14.0093 9.4417 13.0157 9.88301 12.1389C10.3243 11.2621 11.0308 10.5468 11.9021 10.0947C12.7734 9.64266 13.765 9.47681 14.736 9.62079C15.7264 9.76766 16.6433 10.2292 17.3513 10.9372C18.0593 11.6451 18.5208 12.5621 18.6676 13.5525Z" stroke="#3F85EF" stroke-width="2" stroke-linecap="round" stroke-linejoin="round"/>
<path d="M20.416 7.87109H20.4277" stroke="#3F85EF" stroke-width="2" stroke-linecap="round" stroke-linejoin="round"/>
</svg>
