<svg width="24" height="42" viewBox="0 0 24 42" fill="none" xmlns="http://www.w3.org/2000/svg">
<path d="M23.0005 34C23.0005 32.3 21.7005 31 20.0005 31C18.3005 31 17.0005 32.3 17.0005 34C17.0005 35.3 17.8005 36.3 18.9005 36.8C18.5005 38.1 17.4005 39 16.0005 39C14.3005 39 13.0005 37.7 13.0005 36V31C13.1005 28.4 14.7005 25.9 16.3005 23.7C16.4005 23.7 16.4005 23.8 16.5005 23.8C18.2005 24.7 20.0005 26.5 21.1005 28.4C21.3005 28.7 21.6005 28.9 22.0005 28.9C22.2005 28.9 22.3005 28.9 22.5005 28.8C23.0005 28.5 23.2005 27.9 22.9005 27.4C21.6005 25.2 19.6005 23.1 17.6005 22.1C18.1005 21.5 18.5005 21 18.8005 20.5C20.2005 18.5 20.9005 16.7 21.0005 15C21.1005 12.5 20.2005 10.9 19.9005 10.5C20.0005 10 20.0005 9.5 20.0005 9C20.0005 4.1 16.1005 0 11.5005 0C6.90048 0 3.00048 4.1 3.00048 9C3.00048 9.5 3.00048 10 3.10048 10.5C2.80048 10.9 1.90048 12.5 2.00048 15C2.10048 16.7 2.80048 18.6 4.20048 20.5C4.50048 21 5.00048 21.5 5.50048 22.1C3.50048 23.2 1.40048 25.2 0.100481 27.5C-0.0995192 28 0.000480801 28.6 0.500481 28.9C0.700481 29 0.800481 29 1.00048 29C1.30048 29 1.70048 28.8 1.90048 28.5C3.00048 26.6 4.80048 24.8 6.50048 23.9C6.60048 23.8 6.80048 23.7 6.90048 23.7C8.80048 25.8 11.0005 28.5 11.0005 31.1V36.1C11.0005 38.9 13.2005 41.1 16.0005 41.1C18.5005 41.1 20.5005 39.3 20.9005 36.9C22.1005 36.5 23.0005 35.3 23.0005 34ZM9.00048 20V18.5C9.80048 18.8 10.6005 19 11.5005 19C12.4005 19 13.2005 18.8 14.0005 18.5V20C14.0005 21 14.3005 21.8 14.8005 22.5C13.8005 23.9 12.7005 25.5 11.9005 27.2C11.0005 25.4 9.60048 23.7 8.30048 22.3C8.80048 21.6 9.00048 20.9 9.00048 20ZM19.0005 15C19.0005 16.3 18.3005 17.8 17.2005 19.5C16.9005 19.9 16.6005 20.4 16.2005 20.9C16.1005 20.5 16.0005 20.3 16.0005 20V17.3C17.2005 16.3 18.2005 15 18.9005 13.6C19.0005 14 19.0005 14.5 19.0005 15ZM18.0005 9C18.0005 12.6 15.1005 17 11.5005 17C8.50048 17 6.10048 14 5.30048 11C5.80048 10.9 10.5005 9.7 13.6005 6.4C14.5005 8 15.3005 8.7 15.4005 8.8C15.5005 8.9 15.8005 9 16.0005 9C16.3005 9 16.5005 8.9 16.7005 8.7C17.1005 8.3 17.0005 7.7 16.6005 7.3C16.6005 7.3 15.8005 6.5 14.9005 4.6C15.1005 4.3 15.3005 3.9 15.5005 3.5C17.0005 4.8 18.0005 6.8 18.0005 9ZM11.5005 2C12.3005 2 13.1005 2.2 13.8005 2.5C11.9005 6.9 6.20048 8.7 5.00048 9C5.00048 5.2 8.00048 2 11.5005 2ZM4.00048 15C4.00048 14.5 4.00048 14 4.10048 13.6C4.80048 15.1 5.80048 16.4 7.00048 17.3V20C7.00048 20.3 7.00048 20.5 6.90048 20.7C6.50048 20.2 6.10048 19.8 5.80048 19.4C4.70048 17.8 4.00048 16.3 4.00048 15ZM20.0005 35C19.4005 35 19.0005 34.6 19.0005 34C19.0005 33.4 19.4005 33 20.0005 33C20.6005 33 21.0005 33.4 21.0005 34C21.0005 34.6 20.6005 35 20.0005 35Z" fill="#3F85EF"/>
<path d="M8 31H6V29C6 28.4 5.6 28 5 28C4.4 28 4 28.4 4 29V31H2C1.4 31 1 31.4 1 32C1 32.6 1.4 33 2 33H4V35C4 35.6 4.4 36 5 36C5.6 36 6 35.6 6 35V33H8C8.6 33 9 32.6 9 32C9 31.4 8.6 31 8 31Z" fill="#3F85EF"/>
</svg>
